<svg xmlns="http://www.w3.org/2000/svg" xmlns:xlink="http://www.w3.org/1999/xlink" viewBox="0 0 2921.53 523"><defs><style>.cls-1{fill:url(#linear-gradient);}.cls-2,.cls-3,.cls-4,.cls-5,.cls-6{fill:none;stroke:#fff;stroke-miterlimit:10;}.cls-2{stroke-width:0.75px;}.cls-3,.cls-4{stroke-width:0.66px;}.cls-4{stroke-linecap:round;}.cls-5{stroke-width:0.63px;}.cls-6{stroke-width:0.6px;}</style><linearGradient id="linear-gradient" x1="1180.37" y1="261.5" x2="5501.61" y2="261.5" gradientTransform="matrix(1, 0, 0, -1, 0, 523)" gradientUnits="userSpaceOnUse"><stop offset="0.01" stop-color="#3e80f2"/><stop offset="0.54" stop-color="#48bdf4"/><stop offset="1" stop-color="#00e5b0"/></linearGradient></defs><g id="Layer_2" data-name="Layer 2"><g id="Layer_1-2" data-name="Layer 1"><rect class="cls-1" width="2921.53" height="523" transform="translate(2921.53 523) rotate(-180)"/><g id="dYAP2o.tif"><path class="cls-2" d="M897.08,393.14c-2.07-.33-4.15-.63-6.22-1a29.74,29.74,0,0,1-8.69-3.08,2,2,0,0,1-1.07-1.29c-.11-2.31-.08-4.62,0-6.94a1.45,1.45,0,0,1,1.42-1.46,4,4,0,0,1,1.85.15,49.8,49.8,0,0,0,15.4,3.39,36.79,36.79,0,0,0,11.5-.86,22.07,22.07,0,0,0,10-5.33,22.52,22.52,0,0,0,6.35-12.67,42.65,42.65,0,0,0,.15-12.76,32,32,0,0,0-3.32-10.91,26.87,26.87,0,0,0-11-11.19c-4.25-2.41-9-3-13.8-3.25a28.71,28.71,0,0,0-12,1.78,21.88,21.88,0,0,0-10,7.82,20.94,20.94,0,0,0-3.43,8.27,34,34,0,0,0-.56,9.71,23.15,23.15,0,0,0,2.79,9.37,4.12,4.12,0,0,0,3.72,2.46c1.55,0,2.7-.27,3.3-1.75a7.58,7.58,0,0,0,.61-2.64c0-2.43-.09-4.86-.16-7.29-.05-1.61-.11-3.21-.18-4.81-.17-3.69-.33-7.37-.51-11.06a1.82,1.82,0,0,1,1.37-2,28.61,28.61,0,0,1,3.63-1c2.58-.42,5.18-.81,7.79-1.06a24.11,24.11,0,0,1,8.42.31,20.55,20.55,0,0,1,12.3,8.86,23,23,0,0,1,3.51,11.26,23.36,23.36,0,0,1-2.19,12.44,14.55,14.55,0,0,1-7.84,7.43,19.22,19.22,0,0,1-7.41,1,14.35,14.35,0,0,1-8.76-3c-1-.72-1.79-1.58-2.71-2.4l-.54.68a11.79,11.79,0,0,1-6.52,4.48,14,14,0,0,1-6,.17,14.24,14.24,0,0,1-8.76-5c-3.53-4.18-5.16-9.22-5.93-14.57-.24-1.69-.44-3.39-.65-5.08V347.9a4.48,4.48,0,0,0,.11-.5c.32-2.11.49-4.26,1-6.33a42.55,42.55,0,0,1,2.17-6.39,33.78,33.78,0,0,1,5.45-8.49,27.75,27.75,0,0,1,8.4-6.31,31.24,31.24,0,0,1,15.33-4c3.29,0,6.59,0,9.85.39a39.77,39.77,0,0,1,9.62,2.66,36.83,36.83,0,0,1,11.52,7.31c3.16,2.85,5.36,6.46,7.43,10.13a18.79,18.79,0,0,1,1.85,4c.86,3,1.63,6,2.2,9.13a41.88,41.88,0,0,1,.67,7,67.08,67.08,0,0,1-.4,6.93,37.49,37.49,0,0,1-2.31,10.3c-1.74,4.5-4.76,8-8.14,11.21a16.35,16.35,0,0,1-3.24,2.51,58.44,58.44,0,0,1-6.13,3.07,22.66,22.66,0,0,1-7.62,2.16c-1.14.05-2.26.29-3.38.44Z"/><path class="cls-2" d="M908.73,361.07a18,18,0,0,0,.44-6.63,16.85,16.85,0,0,0-1.95-6.69,7.7,7.7,0,0,0-6.5-4.27c-1.84-.11-3.7.09-5.54.16-.54,0-.83.23-.81.84a77.82,77.82,0,0,0,1.24,13.89,15.52,15.52,0,0,0,1.73,4.25,5.22,5.22,0,0,0,5.34,2.64C906.3,365.42,908,363.83,908.73,361.07Z"/></g><g id="G2siTW.tif"><path class="cls-2" d="M1069.2,26.57h.2a9.66,9.66,0,0,0,1.29.22c9,.49,17.54,2.66,25.24,7.54,5.86,3.71,11.59,7.64,16.21,12.86,2.17,2.44,3.71,5.45,5.47,8.25,8.11,12.92,10.08,26.91,6.93,41.67a64.3,64.3,0,0,1-3.59,10.75,64.51,64.51,0,0,1-5.4,10.28l-.07.09c-6.9,8.93-14.94,16.31-24.76,20.66a60.18,60.18,0,0,1-27.38,5.14,43.24,43.24,0,0,1-9.95-1.45c-10.31-3-19.38-8.89-27.73-16.35l-.1-.09a61.48,61.48,0,0,1-15.64-30.92,48.74,48.74,0,0,1-1.14-9.28c0-4.24.62-8.49,1-12.73a43.36,43.36,0,0,1,4.11-13.73c2.71-5.94,7.21-10.79,11.3-15.8l.09-.1c10.06-9.52,21.44-15.36,34.67-16.45,1.94-.16,3.88-.38,5.81-.57h3.42ZM1009.49,76c.31-.44,2,0,2,0,1.48.37,2.88.6,3.63-1.26.07-.18.77-.11,1.18-.16a4.21,4.21,0,0,1,.05,1.17,14.84,14.84,0,0,1-.7,2.17c-.29.72-.64,1.34-1.24,1.12a1.15,1.15,0,0,0-1.23.42c-3.14,3.72,1.77,6.54,2.14,6.19a20.78,20.78,0,0,0,3.18-3,32.71,32.71,0,0,0,2.13-4.32c.72-1.35,2.12-.89,1.52.86a3.91,3.91,0,0,1-.4.75,9,9,0,0,0-1.76,4.17,8.89,8.89,0,0,1-1.12,2.62,7.33,7.33,0,0,0-.68,1.72c-.38,2.32-1.25,3.19-2.78,2.62a1,1,0,0,0-1.31,1.12,13.07,13.07,0,0,0,2.74,6.54,11.28,11.28,0,0,1,2.45,6.79,10,10,0,0,0,1.83,5.37q2,2.77,3.86,5.69a11.6,11.6,0,0,1,1,2.54,7.41,7.41,0,0,0,3.41,4.47c1.5.85,2.93,1.81,4.43,2.66a8.14,8.14,0,0,0,1.75.44c-.12-2.74-.24-5.26-.36-7.79a10.56,10.56,0,0,0-1.42-4.9c-1.34-2.33-.49-4.7.54-6.87a4,4,0,0,0,.5-2.84,6.66,6.66,0,0,1-.17-1.72c0-1.12.78-1.37,1.74-1.43.55,0,1.08-.23,1.63-.31a7,7,0,0,1,2.41-.24,22.82,22.82,0,0,1,3.76,1.42,5.62,5.62,0,0,0,6.23-1c1.7-1.7,2.6-4.21,3.79-6.42a1,1,0,0,0,.1-.62c-.65-3.87,0-8.18-4-10.9a2.59,2.59,0,0,1-.82-3.14c.3-.83.06-1.1-.69-1.52a2.83,2.83,0,0,1-1.13-1.87c-.16-1-.19-1.81-1.59-1.52a4.27,4.27,0,0,1-1.52-.28c-1.07-.2-2.15-.34-3.2-.61a30.57,30.57,0,0,1-3.66-1.17c-1.13-.46-1.73-.45-1.73,1.28a1.05,1.05,0,0,1-.37.81,18.76,18.76,0,0,1-3.49,2.29c-2.16,1-4.07-1.25-4.52-1a1.73,1.73,0,0,1-2.24-.07,5,5,0,0,0-1.29-.42,5.26,5.26,0,0,1-1.5-.68c-.82-.73-.93-3.34-.23-4.5s1.85-1,2.95-.71c.87.26,1.55.11,1.84-.8s.26-1.56-.86-1.71a.51.51,0,0,1-.36-.21c-.58-1.22-1.47-1.22-2.58-1a1,1,0,0,1-1.05-1.52,2.31,2.31,0,0,1,2.31-1.32c.49.06,1-.3,1.51-.3.68,0,1.6-.06,2,.33a2.21,2.21,0,0,1,.22,2c-.45,1-.41,1.64.61,2.25.43.26.62.94,1.07,1.68a8.48,8.48,0,0,0,.9-.7c1.38-1.31,2.7-2.7,4.14-3.94.39-.34,1.52,1,1.12,1.39a5.66,5.66,0,0,0-1.1,1.56,1.9,1.9,0,0,0,.51,2.45c.35.27.66.47.75.41,1.46-.93.68-4,2.15-4.95a2.2,2.2,0,0,1,3,1.11,20.53,20.53,0,0,0,1,1.8c.49.94.94,1.91,1.4,2.87.1.2.09.49.23.64.39.41,4.12.7,4.5.28a2.77,2.77,0,0,0,.83-1.54,31.42,31.42,0,0,0-.33-3.66c-.49.12-1.12.26-1.73.45-.95.29-1.92.34-2.41-.64a2.39,2.39,0,0,1,.48-2.92,16,16,0,0,1,1.59-1.19c-1.33-1.25-2.67-2.44-3.91-3.72-.3-.31-.27-.92-.4-1.39-.42-.35-.84-.92-1.4-1.09a9.63,9.63,0,0,0-2.23-.13,5.42,5.42,0,0,1-1.62-.21,4,4,0,0,1-1.43-1,6.6,6.6,0,0,1-.78-1.54c-1.15-.26-1.36-.76-.61-1.76a1,1,0,0,0,0-1.06c-.27-.47-.53-.9-.42-1.2.31-.93,1.17-1.12,2.14-.75,1.53.58,1.77.35,1.78-1.32a2.36,2.36,0,0,1,1.46-2.51c.36,1,1,2,.93,2.86a7,7,0,0,1-1.21,3.1,1.66,1.66,0,0,0,.22,2.43c.89.71,1.34-.21,1.77-.83,1.14-1.61,1.37-1.64,3.05-.19.19-.44.53-.85.48-1.2a5,5,0,0,1,0-2.38,1,1,0,0,0-.65-1.25c-1.11-.28-1.26-.88-.48-2s1.22-1.87.1-2.9a2.94,2.94,0,0,0-3.67-.19,5.92,5.92,0,0,1-1.75.52c-1,.22-1.92.42-2.87.63.51.54,1.1.89,1.16,1.33,0,.28-.62.92-1,1a2.26,2.26,0,0,1-1.74-.44,11.5,11.5,0,0,1-1.3-2.39,1,1,0,0,0-.7-.55c-.81-.17-1.17-.28-1.39-.54a1,1,0,0,0-1.46,0l-1.18-.93m73.67.59c.79,1-.56,1.45-.61,2.23a7.86,7.86,0,0,0-1.45-.46c-1-.12-2.11-.15-3.17-.23-.33,0-.75,0-1-.12-.9-.64-1.62-1-2.22.38-.07.14-1.19-.2-1.73-.29a2.74,2.74,0,0,0,2.82,1.58c.47,0,1,.52,1.46.88s.55.9.89,1a3.81,3.81,0,0,1,2.92,2.09,2.24,2.24,0,0,0,.3.32c.51.52,1.46,1.06,1.44,1.57a4.08,4.08,0,0,1-1.7,3.59c-.43.27-.89.53-1.39.82a8.83,8.83,0,0,1,.75,2.28,1.91,1.91,0,0,1-.78,1.49,1.53,1.53,0,0,1-1.45-.42c-1.06-1.71-2.43-3.42-2.79-5.3a9.86,9.86,0,0,0-1.95-3.83c-.23-.35-1.18-.65-1.4-.47a4.07,4.07,0,0,0-1.17,1.75,6.81,6.81,0,0,0-.18,1.83c-.63-.07-1.26-.13-1.88-.21a4.32,4.32,0,0,1-.62-.22c-.73,1.35.18,3.53-2.31,4l.1.38,1.53.73-.31.52-2.68.28c.62.57,1,1.15,1.39,1.22a33.7,33.7,0,0,0,4.14.38,5.4,5.4,0,0,1,4,1.41,9.49,9.49,0,0,1,.88,1.35l-.27.44-3.21-.93.86,2.06-.31.3a16,16,0,0,0,1.87.47,2.64,2.64,0,0,1,2.52,2.06,1,1,0,0,0,.92.8,3.29,3.29,0,0,1,2,1.39c.19.22.48.34.68.56.38.41,1.07.88,1,1.28a3.87,3.87,0,0,0,1.92,3.41c1.84,1.28,1.84,3.87,1.62,6-.07.69,1.66.91,2,.09s.06-3.51.71-3.74,1.87-.56,2.53.23a1,1,0,0,0,1.17.18c2.12-1.1,3.22-.4,3.8,2.3a22.76,22.76,0,0,1,.52,4.27,2.71,2.71,0,0,1-2.53,2.84c-.43,0-.94-.42-1.36-.74a8.06,8.06,0,0,1-.92-1l-.48.25c.21.79.42,1.59.62,2.38.28,1.09.45,2-1.06,2.49-.42.13-.81,1-.89,1.58-.21,1.64-.35,3.26-1.9,4.33a2.92,2.92,0,0,0,2.54-2.11,10.46,10.46,0,0,1,5.88-6.2c.95-.45,3-3.83,3.08-5.14.2-3,.45-5.92.72-8.88,0-.48.14-.91.39-1,.42-.14.8-.38.83-.81a19.7,19.7,0,0,0-2.74-11.49,18.47,18.47,0,0,1-1.9-4.86c-.51-1.85-2-3.45-2.42-5.31-1-4-4.45-5.46-7.22-7.63a10.18,10.18,0,0,0-2.84-1C1101.55,41.37,1101.46,41.67,1101.57,41.82Zm-8.25,92.27a.93.93,0,0,0,.3-.74c-.21-1.77,2.23-2.77,1.48-4.85-.4-1.1.09-2.54.24-3.82a17,17,0,0,0,.51-3.54c-.2-2.27,1-3.51,2.59-4.77a13.48,13.48,0,0,0,3.16-3.41c1.06-1.75,2.28-3.67,2.45-5.61s1-3.88-.54-5.83-1.18-4.11.48-6l-1.13.64a1,1,0,0,1-1.09-.06l-.59-.44a1,1,0,0,0-1.43.25h0a1,1,0,0,1-1.45.24l-.54-.43a1,1,0,0,0-.91-.16c-1.21.37-2.55.77-3.87,1.23-.52.18-1.21.49-1.39.92-1,2.28-3,3.19-5.08,3.93a2.29,2.29,0,0,0-1.76,1.75,6.93,6.93,0,0,1-.94,1.62,10.8,10.8,0,0,1,1.31,1.16c.7.86.42,1.52-.67,1.7-.12,0-.34,0-.34,0-.25,2-2,1.1-2.52.84-2.19-1.15-3.75,0-5.46,1a28.53,28.53,0,0,1-4.38,2,1,1,0,0,0-.68,1c.16,1.4,1.62,2.2,2.14,3.41a14,14,0,0,1,1.24,4c.24,2.22.35,2.51,2.47,3,1.2.26,2.39.58,3.56,1a1.4,1.4,0,0,1,1.06,1.77,3.49,3.49,0,0,0,2.86,3.67c.29,0,.65-.32.9-.58.64-.66,1.33-1.64,2.2-.61s-.29,1.49-.91,2c-.14.13-.3.23-.17.14l2.87,1.15a.9.9,0,0,1,.52.94c0,1,1.37,2.25-.51,2.79l1.2,1.52Zm-42.27-81.31-.58-.41c-.87,1.11-4.72,5.13-4.8,5.69a3.58,3.58,0,0,0,1.59,1.63.85.85,0,0,0,1.19-.46C1049.13,57.37,1050.66,53.38,1051.05,52.78Zm44.73-13.55c.25.65.48,1.31.74,2,0,.13.18.22.3.37l1.93-.69C1098.16,39,1097.46,38.63,1095.78,39.23Z"/><path class="cls-2" d="M1082,35.39c0,.54-.23,1.16,0,1.59.46,1,.27,1.57-.84,1.57a23.48,23.48,0,0,1-3-.36c-.18,1-.8,2.15-.44,2.73.71,1.13.21,1.52-.57,2,.32.88.64,1.68.89,2.5a5.25,5.25,0,0,1-1.57,5.05c-1.27,1-3.14.67-3.45-.73s-1.46-2-2.54-2.68a6.09,6.09,0,0,1-2.16-2.15,2.12,2.12,0,0,0-2.09-1.35,8.52,8.52,0,0,1-2.68-.37,1.72,1.72,0,0,1-.91-1.38,11.89,11.89,0,0,1,1.21-2.5,3.78,3.78,0,0,1-.6,0c-.59-.1-1.17-.22-1.76-.33a5.27,5.27,0,0,1,.59-1.87,2.17,2.17,0,0,0-.17-3.08c-.83-.7-.76-1.47.28-1.58a10,10,0,0,1,3.16.48c.53.12,2.15-1,2.67-1a2.68,2.68,0,0,0,1.07-.09,3.64,3.64,0,0,1,3.45.19,5,5,0,0,0,1.61.49c.88.12,1.78.14,2.67.21C1078.11,34.34,1080.12,34.68,1082,35.39Z"/><path class="cls-2" d="M1090.66,41.92c-1.7,0-2.54.51-2.71,1.67s.55,1.82,1.73,2.11a4.49,4.49,0,0,1,1.2.8c-.34.29-.69.56-1,.85a9.7,9.7,0,0,0-1.26,1.22c-.61.8-1.29,1.31-2.32.88a1.85,1.85,0,0,1-1.29-2.27c.08-.37.14-.74.18-.9-.68.12-1.5.51-1.78.26-.51-.44-1.14-1.65-1-1.84a8.2,8.2,0,0,0,2-3.7c.08-.33,1.07-.35,1.5-.68a5.23,5.23,0,0,1,4.59-1.17c.08-.65-.06-1.52.31-1.88s1.29-.4,2.16-.62c0-.88.81-1.07,1.68-.69.45.19.73.76,1.09,1.16l-1.7.93c0,.44.11,1.37-.26,1.71s-1.28.07-2,.07l.27.42L1090.61,42Z"/><path class="cls-2" d="M1077.38,31.63c2.19-.16,4.42-.53,6.46.64.56.32,1.09.69.49,1.47-.11.14,1.88-.69,2.86.33,1.16,1.21,3.22,3.93,1,4.37a10.89,10.89,0,0,1-1.69.23c-.79,0-1.36-.2-1.52-1.15a2,2,0,0,0-.88-1.11,18.53,18.53,0,0,0-2.16-1c-1.83-.71-3.84-1-5.2-2.65C1077,32.35,1077.15,31.65,1077.38,31.63Z"/><path class="cls-2" d="M1033.8,40.73a4.12,4.12,0,0,0,1.29.34c1-.06,3.39-2.57,3.46-3.53a1.22,1.22,0,0,0-.39-.84.8.8,0,0,0-.75-.11c-1.13,1.08-2.23,2.19-3.32,3.31C1034,40,1034,40.25,1033.8,40.73Z"/><path class="cls-2" d="M1047.34,36.68a1.28,1.28,0,0,0-.18-.94c-.62-.83-.26-1.33.49-1.72a3.84,3.84,0,0,1,4.53.91c.16.2-.06.7-.11,1.06a4,4,0,0,1-2.47,1.62c-.29.1-.6.08-.91.19C1047.84,37.69,1047.11,37.74,1047.34,36.68Z"/><path class="cls-2" d="M1061.19,46.08a12.43,12.43,0,0,1,1.11,1.28,7.32,7.32,0,0,1-1.81,1,3.57,3.57,0,0,1-1.8-.26c-.91-.29-1.86-.84-1.42-1.92.26-.63,1.17-1,1.92-1.59C1060,45.22,1060.65,45.6,1061.19,46.08Z"/><path class="cls-2" d="M1052.27,55.87c.26-.11,1,.43,1.19.83a9.08,9.08,0,0,1,.85,2.39c.21.94-.48,1.53-1.22,1a9.59,9.59,0,0,1-1.7-1.81,1.33,1.33,0,0,1,0-1.72A2.31,2.31,0,0,1,1052.27,55.87Z"/></g><path class="cls-3" d="M1064.78,324.25,1030,326.8a6.13,6.13,0,0,0-5.65,6.54l12.05,164.23a6.1,6.1,0,0,0,6.54,5.64l109.36-8a6.1,6.1,0,0,0,5.64-6.54l-12-164.22a6.11,6.11,0,0,0-6.54-5.65l-40.81,3"/><path class="cls-3" d="M1045.17,340.62l-12.43.91a2.14,2.14,0,0,0-2,2.29l10.83,147.63a2.14,2.14,0,0,0,2.29,2L1150,485.64a2.13,2.13,0,0,0,2-2.29l-10.83-147.62a2.13,2.13,0,0,0-2.29-2l-21.52,1.58"/><rect class="cls-3" x="1104.57" y="375.84" width="11.07" height="11.07" transform="translate(2245.12 680.52) rotate(175.81)"/><rect class="cls-3" x="1104.57" y="375.84" width="11.07" height="11.07" transform="translate(2245.12 680.52) rotate(175.81)"/><rect class="cls-3" x="1105.99" y="395.29" width="11.07" height="11.07" transform="translate(2249.4 719.27) rotate(175.81)"/><rect class="cls-3" x="1107.42" y="414.74" width="11.07" height="11.07" transform="translate(2253.67 758.02) rotate(175.81)"/><rect class="cls-3" x="1108.85" y="434.2" width="11.07" height="11.07" transform="translate(2257.94 796.77) rotate(175.81)"/><rect class="cls-3" x="1110.27" y="453.65" width="11.07" height="11.07" transform="translate(2262.21 835.51) rotate(175.81)"/><line class="cls-4" x1="1097.61" y1="382.29" x2="1049.52" y2="385.82"/><line class="cls-4" x1="1099.04" y1="401.74" x2="1050.94" y2="405.27"/><line class="cls-4" x1="1100.46" y1="421.19" x2="1052.37" y2="424.72"/><line class="cls-4" x1="1101.89" y1="440.65" x2="1053.8" y2="444.17"/><line class="cls-4" x1="1103.32" y1="460.1" x2="1055.22" y2="463.63"/><path class="cls-3" d="M1039.24,349.23a31.52,31.52,0,0,1,1.32-3.4c2.6-4.77,7.17-6.35,12.08-7.23,3.49-.62,7-1.05,10.54-1.53,2.7-.37,3.86-1.64,3.62-4.1-.32-3.12-.6-6.24-1-9.36a1.52,1.52,0,0,1,1.19-1.9,10.94,10.94,0,0,0,6.42-5.82,27.37,27.37,0,0,0,1.56-4.95c1.15-4.95,8.37-7.58,12.72-2.94,1.92,2.06,3.11,4.84,4.43,7.4s2.91,4.46,5.74,5.17l.57.16a2.07,2.07,0,0,1,1.49,1.85c.13,2.08.22,4.07.48,6.05.71,5.46-.32,5.23,6,5.68,5.15.37,10.32.66,15.43,1.34,3.77.5,7.27,4.29,7.82,7.87Z"/><line class="cls-4" x1="1111.15" y1="340.15" x2="1059.35" y2="343.95"/><circle class="cls-4" cx="1082.17" cy="314.69" r="3.51"/><path class="cls-4" d="M1076.53,318.27c1.28,2.34,2.86,3.29,6.14,3.23a5.79,5.79,0,0,0,5.6-4.09"/><rect class="cls-3" x="1128.51" y="369.73" width="7.24" height="90.65" rx="0.78" transform="matrix(-1, 0.07, -0.07, -1, 2291.58, 746.19)"/><path class="cls-3" d="M1139,459.18l-1.45,11.27a.8.8,0,0,1-1.53.19l-4.24-10.93"/><path class="cls-3" d="M1126.38,370l4.9-.36a1.06,1.06,0,0,0,.89-1.31l-.61-2.9a1,1,0,0,0-1-.85l-4,.3a1,1,0,0,0-.91,1l-.26,3A1.06,1.06,0,0,0,1126.38,370Z"/><path class="cls-3" d="M1129.8,364.66l-.31-4.27a.82.82,0,0,0-.87-.75l-1.11.08a.82.82,0,0,0-.75.87l.31,4.27"/><polyline class="cls-4" points="1132.17 368.36 1134.86 372.99 1136.45 394.63"/><rect class="cls-5" x="124.79" y="319.63" width="44.63" height="15.57" transform="translate(319.92 642.03) rotate(175.42)"/><rect class="cls-5" x="124.79" y="319.63" width="44.63" height="15.57" transform="matrix(1, -0.08, 0.08, 1, -25.7, 12.81)"/><rect class="cls-5" x="123.05" y="297.85" width="44.63" height="15.57" transform="matrix(-1, 0.08, -0.08, -1, 314.69, 598.67)"/><rect class="cls-5" x="123.05" y="297.85" width="44.63" height="15.57" transform="translate(-23.96 12.6) rotate(-4.58)"/><path class="cls-2" d="M591.67,137.51l-2.3.59-1.89-7.31,2.19-.57a8.89,8.89,0,0,0,5.83-4.41,10.53,10.53,0,0,0,.66-8l-4.73-18.28a15.84,15.84,0,0,1-.32-8.34,10,10,0,0,1,4.21-5.49l-.11-.42a9.88,9.88,0,0,1-6.36-2.81,15.81,15.81,0,0,1-3.75-7.39l-4.74-18.29a10.58,10.58,0,0,0-4.45-6.65,8.9,8.9,0,0,0-7.24-1l-2.19.57-1.9-7.31,2.3-.6q7.85-2,13.64,1.43t7.81,11.19l4.73,18.29q1.11,4.29,3.85,6a7.54,7.54,0,0,0,6.18.85l1.9,7.31a7.56,7.56,0,0,0-5,3.75c-1,1.9-1.17,4.28-.44,7.14l4.74,18.28q2,7.74-1.39,13.58T591.67,137.51Z"/><path class="cls-2" d="M506.47,68.42l45.27,60a3.94,3.94,0,0,1-2.15,6.19h0a3.94,3.94,0,0,1-4.13-1.44l-45.27-60A3.93,3.93,0,0,1,502.34,67h0A3.94,3.94,0,0,1,506.47,68.42Z"/><path class="cls-2" d="M488.54,164.21l-2.3.6q-7.83,2-13.64-1.43t-7.8-11.19l-4.74-18.29q-1.11-4.28-3.85-6A7.54,7.54,0,0,0,450,127l-1.89-7.31a7.56,7.56,0,0,0,5-3.75q1.55-2.85.44-7.14l-4.74-18.28q-2-7.74,1.39-13.58t11.23-7.87l2.3-.59,1.9,7.31-2.2.57a8.87,8.87,0,0,0-5.82,4.41,10.58,10.58,0,0,0-.67,8l4.73,18.28a15.94,15.94,0,0,1,.31,8.29,9.84,9.84,0,0,1-4.19,5.54l.1.42a9.94,9.94,0,0,1,6.35,2.76A15.84,15.84,0,0,1,468,131.5l4.73,18.29a10.57,10.57,0,0,0,4.46,6.65,8.87,8.87,0,0,0,7.23,1l2.2-.57Z"/><g id="nID6q6"><path class="cls-2" d="M379.29,308.61c3.32.68,6.65,1.3,9.94,2.08a7.2,7.2,0,0,1,2.94,1.49,5.65,5.65,0,0,1,1.72,5.85q-1.84,8.84-3.61,17.67c-2,10.05-4,20.12-6,30.16-1.87,9.1-3.82,18.18-5.73,27.27-.86,4.1-1.35,8.32-2.67,12.26-.74,2.23-.12,3.62.81,5.33q5.4,10,10.69,20c1.65,3.13,3.26,6.29,4.77,9.49.92,1.95.34,3.44-1.65,4.15a16.12,16.12,0,0,1-4.81,1.08c-4.7.17-9.27-.84-13.85-1.76-6.2-1.24-12.44-2.33-18.64-3.57q-13.74-2.76-27.44-5.64c-4.15-.87-8.26-1.92-12.41-2.79-2.78-.57-5.61-.89-8.39-1.45q-11.46-2.31-22.89-4.72c-5.56-1.17-11.09-2.48-16.66-3.64-3.36-.7-6.76-1.17-10.12-1.85q-13.87-2.84-27.72-5.76c-4.94-1-9.87-2.14-14.79-3.25a26.43,26.43,0,0,1-8.94-3.89,4.33,4.33,0,0,1-.35-7.31c.69-.49,1.29-1.13,1.95-1.67q8.75-7.1,17.51-14.18c2.25-1.82,4.52-3.62,6.86-5.33.87-.63,2.24-.72,1.47-2.39-.18-.39.15-1,.26-1.56,1.08-5.2,2.22-10.4,3.24-15.61s1.9-10.68,3-16c1.31-6.35,2.8-12.67,4.15-19,.66-3.1,1.16-6.24,1.79-9.34,1.22-6.05,2.43-12.11,3.74-18.14.72-3.35,1.49-6.71,2.49-10a4.12,4.12,0,0,1,4.39-3.07,26.14,26.14,0,0,1,4.16.35c4.35.91,8.67,2,13,2.9,3.88.8,7.82,1.35,11.71,2.14,10.69,2.15,21.36,4.38,32,6.55,4.95,1,9.92,1.93,14.86,2.94,8.16,1.67,16.3,3.39,24.46,5,4.26.86,8.55,1.63,12.81,2.48C371.35,306.73,379.31,308.54,379.29,308.61Zm-3.62,99.89c-1-.72-4.12-.95-5.33-1.2-.54-.11-1.4-.77-1.44.57a3.08,3.08,0,0,1-1.11.05c-3.48-.69-7-1.43-10.43-2.12-9.33-1.84-18.67-3.63-28-5.49-6.58-1.31-13.15-2.71-19.72-4.08q-18.22-3.78-36.43-7.59Q262,386.31,250.8,384c-3.05-.62-6.11-1.18-9.16-1.8-.64-.13-1.46-.08-1.4-1.17,0-.22-.52-.6-.86-.68-1.51-.36-3-.67-4.58-.95l-4.67-1M202.5,400.75c1.28,4.33,3.82,5,3.82,5,1.77.47,3.56.83,5.36,1.18,5.32,1,10.66,2,16,3.1,8.1,1.69,16.16,3.56,24.26,5.24,5.83,1.22,11.72,2.19,17.56,3.38,8.27,1.67,16.52,3.45,24.78,5.17,3.68.77,7.37,1.51,11.06,2.27l0,.06c14.22,2.92,28.43,5.88,42.66,8.73,8.9,1.78,17.85,3.34,26.75,5.11,4.64.93,9.22,2.11,13.83,3.13,1,.22,2.33.23,3.34.39m-24.81-36c.23-2.52-.7-3.47-2-3.72-13.17-2.65-39.49-8-39.5-7.93q-12.22-2.5-24.46-5c-4.32-.9-8.61-1.9-12.92-2.79q-23.13-4.77-46.26-9.5c-.54-.11-1.31-.27-1.64,0a2.46,2.46,0,0,0-.91,1.84"/><path class="cls-2" d="M302.53,421.12c10.48,2.15,21,4.27,31.43,6.44.93.19.92,0,.82-.67-.34-2.2-.62-4.4-.82-6.61a1.34,1.34,0,0,0-1.26-1.38q-5.13-1-10.26-2l-45.34-9.23a10,10,0,0,0-2.05-.39,2.1,2.1,0,0,0-1.51.56c-1.08,1.89-2,3.86-3,5.75-.51.91,0,1.15.88,1.32,1.47.32,3,.61,4.42.91l0-.11Q289.19,418.39,302.53,421.12Z"/><path class="cls-2" d="M321.13,304.25l5.68,1.17,26.85,5.48,34.56,7.1c1.87.38,1.86.4,1.61,2.37-.09.75-.15,1.5-.3,2.23-1.73,8.2-3.5,16.39-5.22,24.58s-3.42,16.63-5.16,24.94c-1.59,7.63-3.24,15.24-4.8,22.87-.23,1.13-.63,1.36-1.72,1.06-2.38-.65-4.78-1.24-7.19-1.74q-13.26-2.76-26.52-5.44c-4.52-.92-9.08-1.71-13.6-2.64-5.79-1.18-11.55-2.5-17.34-3.67-9.57-1.93-19.17-3.77-28.75-5.69-6.21-1.24-12.41-2.53-18.61-3.81q-5.53-1.14-11-2.32c-4-.87-8-1.8-12-2.63-.93-.2-1.1-.59-.93-1.44.74-3.84,1.4-7.69,2.18-11.53,2.32-11.42,4.69-22.83,7-34.25q3-14.59,5.92-29.21c.24-1.2.63-1.56,1.92-1.29,7.1,1.47,14.23,2.8,21.33,4.24q23.06,4.69,46.1,9.44Z"/></g><path class="cls-2" d="M344.57,406.55l-.05-.06c-.22-.37-.37-1-.65-1.07-1.77-.49-3.56-.87-5.36-1.24a2.69,2.69,0,0,0-.89.17c.17.4.29,1.11.54,1.15,2.12.39,4.27.65,6.4.95Zm-.66,5.29c1.73.41,3.48.73,5.22,1a3,3,0,0,0,1-.14c-.2-.38-.33-1-.6-1.08-2.1-.53-4.22-1-6.34-1.37-.16,0-.42.49-.63.75l.09,0,0-.08A5,5,0,0,0,343.91,411.84Zm8,4c1.66.42,3.35.75,5,1.07a3.1,3.1,0,0,0,1-.14c-.2-.37-.33-1-.6-1.08-2.15-.52-4.33-.95-6.5-1.36-.1,0-.27.39-.41.6l-.07.08.06,0A6.35,6.35,0,0,0,352,415.82Zm-14-.43c1.73.43,3.49.76,5.25,1.08a3.31,3.31,0,0,0,1.08-.2c-.27-.37-.46-1-.81-1.07-1.17-.36-2.39-.54-3.59-.79a14.37,14.37,0,0,0-2.3-.45c-.38,0-.78.37-1.18.58l.05.22-.12,0,.11-.2A6,6,0,0,0,337.93,415.39Zm-46.71-8.3c-3.39-.7-6.74-1.56-10.11-2.32a8.86,8.86,0,0,0-2.48-.33c-.46,0-.89.56-1.33.86a4.06,4.06,0,0,0,1.08.68c7.32,1.5,14.64,3,22,4.47,9.4,1.93,18.8,3.91,28.2,5.84.36.07.78-.18,1.17-.28-.17-.57.12-1.29-.91-1.47-3-.54-6-1.21-9-1.82l0,.23C310.22,411,300.71,409.07,291.22,407.09Zm-36.91-9c.22,0,.47.18.64.11a5.91,5.91,0,0,0,1-.58c-.27-.19-.51-.5-.8-.56-3.16-.7-6.32-1.36-9.49-2l-9.16-1.9c-.33-.07-.72-.24-1-.14a7.75,7.75,0,0,0-1.28.86,4.69,4.69,0,0,0,1,.49c3.16.67,6.33,1.31,9.5,2l0-.17Zm118.5,24.46a4.9,4.9,0,0,0,1.31-.09c-.36-.42-.66-1.12-1.1-1.22-3.59-.8-7.21-1.49-10.81-2.22-1.75-.36-3.48-.75-5.23-1.11a4.14,4.14,0,0,0-.79,0c.09.3.1.73.3.89a3.64,3.64,0,0,0,1.41.72c2.5.56,5,1.05,7.53,1.56h0C367.89,421.57,370.34,422.09,372.81,422.56Zm-99.42-17.51c.71.16,1.43.3,1.55-.63,0-.24-.63-.75-1-.84-3.42-.76-6.85-1.49-10.3-2.13-.4-.07-.91.49-1.38.76.35.24.66.61,1,.7,1.68.39,3.38.71,5.07,1.06v0C270,404.35,271.71,404.68,273.39,405.05Zm-21.47-14.61a1.89,1.89,0,0,0,1.19-.21c.45-.27.62-.66-.15-.83-4-.83-8-1.69-11.92-2.51a1.76,1.76,0,0,0-1.08.18c-.25.14-.38.51-.56.77a3.52,3.52,0,0,0,.72.32c2,.43,4,.84,6,1.25l0-.12C248.1,389.68,250,390.09,251.92,390.44Zm-.54,4.68c.41.07.9-.3,1.35-.47-.32-.24-.61-.64-1-.71-4.73-1-9.47-2-14.22-2.95a1.52,1.52,0,0,0-.81-.05,3.24,3.24,0,0,0-.69.65,2.46,2.46,0,0,0,.67.37c2.55.54,5.12,1.06,7.68,1.59l0,.16C246.69,394.19,249,394.7,251.38,395.12Zm92.5,24.23a3.55,3.55,0,0,0,1-.11,10.74,10.74,0,0,0-.66-1.2c-.1-.14-.41-.12-.63-.17q-5.18-1-10.34-2.08a3.55,3.55,0,0,0-1,.11c.27.42.46,1.12.81,1.21,1.89.49,3.82.83,5.73,1.22h0C340.49,418.67,342.18,419,343.88,419.35Zm-50-12.3c.91.24,1.19-.23,1.31-1s-.41-.81-1-.92c-1.69-.31-3.37-.69-5-1.09-.72-.16-1.32-.23-1.59.66s.49,1.09,1.1,1.25c.86.22,1.74.37,2.61.55h0C292.16,406.68,293,406.83,293.9,407.05Zm19.88,3.9a1.51,1.51,0,0,0,.91-.28,2,2,0,0,0-.4-1.27,2.93,2.93,0,0,0-1.38-.5c-1.52-.34-3-.68-4.56-.91a1.25,1.25,0,0,0-1,.65,1.18,1.18,0,0,0,.6,1,28.44,28.44,0,0,0,3,.84v0C311.93,410.6,312.85,410.82,313.78,411Zm47.66,5.47a3.59,3.59,0,0,0-1.1.17c.34.37.61,1,1,1.07,1.56.39,3.17.58,4.75.9,2,.4,3.91.85,5.87,1.26a4.06,4.06,0,0,0,.85,0c-.12-.3-.16-.71-.38-.88a2.93,2.93,0,0,0-1.19-.5c-1.69-.37-3.38-.7-5.07-1.05h0C364.6,417.06,363,416.71,361.44,416.42Zm9.11,1.28a4.75,4.75,0,0,0,1.28-.17c-.38-.47-.67-1.1-1.16-1.38a5.32,5.32,0,0,0-1.78-.36c-2.12-.42-4.25-.86-6.38-1.27a3.74,3.74,0,0,0-.88,0c.09.25.11.58.28.73a3.57,3.57,0,0,0,1.29.89c1.23.34,2.5.54,3.75.8S369.35,417.51,370.55,417.7ZM318.42,410a4,4,0,0,0-1.23.25c.29.52.46,1.3.89,1.5a12.41,12.41,0,0,0,2.74.62,26.57,26.57,0,0,0,2.63.41,4,4,0,0,0,1.19-.28c-.28-.47-.46-1.2-.86-1.36a17.32,17.32,0,0,0-2.91-.65v0C320.06,410.34,319.25,410.12,318.42,410Zm-19.88-4c-.34,0-.71.34-1.07.53.25.39.44,1,.77,1.12,1.81.5,3.67.87,5.51,1.27.61.14,1.07.1,1.19-.7s-.17-1-.84-1.13c-.93-.15-1.86-.37-2.78-.56A27.2,27.2,0,0,0,298.54,406Zm-19.46-4c-.73-.17-1.18,0-1.35.78s.54,1,1.09,1.12c1.8.36,3.61.6,5.41,1,.72.14,1.13-.1,1.09-.77a1.26,1.26,0,0,0-.69-.93,25.26,25.26,0,0,0-2.77-.61v0C280.93,402.33,280,402.17,279.08,401.94Zm95.83,23.66a2.44,2.44,0,0,0,.6,0c0-.21,0-.48-.1-.62-.26-.32-.56-.74-.92-.83-2-.51-4-1-6-1.38a3.15,3.15,0,0,0-1.08.14c.23.4.36,1,.7,1.18a15.91,15.91,0,0,0,2.58.62L372,425V425C373,425.21,373.93,425.42,374.91,425.6Zm-20.77-4.13a4.11,4.11,0,0,0,.78,0c-.05-.25,0-.61-.15-.75a3.17,3.17,0,0,0-1.26-.89c-1.61-.4-3.26-.72-4.9-1a3.82,3.82,0,0,0-1.22.19c.34.44.6,1.11,1,1.28a17.78,17.78,0,0,0,2.93.65h0C352.28,421.1,353.21,421.3,354.14,421.47ZM238.55,397.8c.46,0,.94-.51,1.42-.8-.36-.27-.68-.7-1.07-.79-1.8-.36-3.62-.66-5.44-.9a1.78,1.78,0,0,0-1.16.4c-.43.33-.51.75.19.9,1,.23,2.07.43,3.11.64h0A17.8,17.8,0,0,0,238.55,397.8ZM227.91,389a2.14,2.14,0,0,0-1.07.26c-.22.11-.34.41-.5.62a2.8,2.8,0,0,0,.65.36q2.69.58,5.38,1.13a1.59,1.59,0,0,0,1,0,4.63,4.63,0,0,0,.94-.89,6.61,6.61,0,0,0-1-.45c-.7-.19-1.41-.31-2.12-.45l0-.19C230.1,389.26,229,389.08,227.91,389Zm130.53,25.93a4,4,0,0,0,1.12-.17c-.23-.42-.38-1.13-.7-1.2-2.09-.52-4.21-.91-6.34-1.31-.13,0-.49.37-.46.41.24.44.46,1.07.84,1.22a20.39,20.39,0,0,0,2.91.64l0-.11C356.7,414.57,357.57,414.79,358.44,414.91ZM258.19,401.78a2.15,2.15,0,0,0,1.33-.32c.45-.29.52-.71-.2-.85-2-.41-4-.89-6-1.2-.4-.05-.9.56-1.35.87a6.37,6.37,0,0,0,1,.48c.81.21,1.63.35,2.45.52v0C256.33,401.43,257.25,401.68,258.19,401.78Zm51.11,5.31c.25,0,.54-.31.81-.49-.19-.26-.33-.72-.56-.77q-3.09-.66-6.2-1.16c-.24,0-.54.34-.81.53.19.22.35.58.58.64,1.07.27,2.16.47,3.25.69h0C307.35,406.72,308.32,407,309.3,407.09Zm43.56,11.28a3.65,3.65,0,0,0,1.06-.19c-.26-.37-.44-.87-.8-1.08a4.68,4.68,0,0,0-1.44-.34c-1.36-.28-2.71-.58-4.07-.82a2.83,2.83,0,0,0-1.24.1,1.12,1.12,0,0,0,1.11,1.32c.93.13,1.85.36,2.77.55v-.06C351.13,418,352,418.24,352.86,418.37Zm-19.61-4a2.27,2.27,0,0,0,1.17-.15c.09-.72-.34-1-1.06-1.13-1.37-.22-2.72-.55-4.08-.83a12.32,12.32,0,0,0-1.47-.29,4.29,4.29,0,0,0-1,.17c.23.36.4.95.72,1.05a32.38,32.38,0,0,0,3.25.7h0C331.62,414,332.42,414.25,333.25,414.35Zm-64-14.42c-.41,0-.84.41-1.25.64.29.23.55.6.89.68,1.83.45,3.7.79,5.54,1.23.69.16,1.14,0,1.16-.71,0-.22-.47-.59-.79-.68-1-.27-2-.43-2.94-.63v0A17,17,0,0,0,269.28,399.93Zm-20.75-.15c.41,0,.85-.47,1.28-.73-.34-.24-.65-.63-1-.71q-2.59-.55-5.22-1a1.71,1.71,0,0,0-1.16.29c-.57.43-.66.88.25,1.06s2,.39,2.93.59v-.09A20.12,20.12,0,0,0,248.53,399.78Zm41.71,3.41c.25,0,.55-.31.83-.48-.18-.27-.31-.73-.54-.78-1.95-.46-3.91-.89-5.89-1.23-.28-.05-.63.39-.95.6.21.24.39.62.64.69,1,.26,2,.43,2.95.63h0C288.26,402.81,289.24,403.06,290.24,403.19Zm-62.3-7.56a2.58,2.58,0,0,0,1.26-.15c.25-.1.4-.47.59-.71a3.19,3.19,0,0,0-.71-.31q-2.78-.61-5.55-1.16a1.39,1.39,0,0,0-.93.09,3.53,3.53,0,0,0-.75.83,4.87,4.87,0,0,0,.85.37c.87.21,1.75.37,2.62.55v0C226.19,395.29,227.06,395.51,227.94,395.63Zm46.39,1.88c.32,0,.69-.45,1-.7-.25-.22-.48-.56-.76-.62q-2.6-.56-5.22-1a1.92,1.92,0,0,0-1.08.17c-.19.1-.29.45-.34.7,0,.07.32.25.51.29,1,.22,1.95.41,2.92.61h0A24.38,24.38,0,0,0,274.33,397.51Zm27.81,5.75a3.44,3.44,0,0,0,1.19-.33c-.28-.31-.51-.81-.85-.89-1.78-.43-3.58-.79-5.38-1.1-.29,0-.64.31-1,.48.26.26.48.67.79.76.91.26,1.85.4,2.77.59v0C300.5,403,301.31,403.18,302.14,403.26Zm-76.35-12.21c-.47,0-1,.51-1.44.79a4.48,4.48,0,0,0,1,.58c1.62.35,3.25.68,4.89.95a2.27,2.27,0,0,0,1.23-.16c.26-.11.42-.47.63-.72a4.6,4.6,0,0,0-.82-.37c-.86-.2-1.73-.36-2.6-.54v0A18.53,18.53,0,0,0,225.79,391.05Zm35.38,6.11c.32,0,.69-.38,1-.58-.25-.23-.46-.59-.74-.66-1.74-.39-3.5-.74-5.25-1.07a1.58,1.58,0,0,0-.94.12c-.21.1-.31.42-.46.65a2.58,2.58,0,0,0,.62.35c.92.22,1.86.39,2.78.58v0C259.2,396.79,260.18,397.06,261.17,397.16Zm3.8-1.55c.31,0,.66-.41,1-.63-.24-.24-.45-.61-.73-.68-1.79-.4-3.59-.79-5.41-1.05-.4-.05-.88.44-1.32.67a4.55,4.55,0,0,0,1.08.63c.8.23,1.63.36,2.45.52v0C263,395.24,264,395.51,265,395.61Zm18.68,3.82c.32,0,.67-.34,1-.53-.23-.23-.43-.6-.7-.67-1.83-.43-3.67-.83-5.52-1.14-.31,0-.71.41-1.07.63.26.21.48.52.77.6.91.24,1.84.39,2.76.58h0A26.32,26.32,0,0,0,283.65,399.43Zm9.39,1.94c.26,0,.57-.29.85-.45-.18-.27-.32-.72-.55-.78-1.89-.45-3.8-.86-5.72-1.18-.29,0-.66.39-1,.6.29.24.53.6.86.69.91.26,1.85.41,2.77.6v0C291.18,401,292.1,401.25,293,401.37Zm27.87,5.72a3.75,3.75,0,0,0,1.12-.21c-.29-.37-.51-.92-.89-1.09a11.2,11.2,0,0,0-2.1-.45c-1.09-.22-2.16-.49-3.26-.63-.29,0-.63.29-.95.46.24.28.43.72.73.81.95.28,1.94.43,2.91.63C319.29,406.77,320.09,407,320.91,407.09ZM298.42,400c.25,0,.54-.29.81-.45-.17-.27-.29-.75-.51-.8-1.89-.41-3.79-.79-5.7-1.08-.28,0-.64.41-1,.64.22.19.42.48.67.55,1,.24,1.95.42,2.92.62v0C296.57,399.65,297.49,399.88,298.42,400Zm45.45,9.33a5.24,5.24,0,0,0,1.11-.08c-.31-.4-.55-1-1-1.14a9.62,9.62,0,0,0-2.09-.47c-1-.21-2.06-.45-3.1-.61a2.91,2.91,0,0,0-1,.24c.27.35.47.91.83,1a25,25,0,0,0,2.91.63v-.06C342.35,409,343.1,409.22,343.87,409.33Zm-93.21-18c-.44,0-.91.38-1.36.59a3.6,3.6,0,0,0,1,.66c1.56.38,3.14.69,4.72,1a1.73,1.73,0,0,0,1.06-.12c.24-.14.33-.54.48-.83a3.32,3.32,0,0,0-.7-.36c-.8-.19-1.62-.34-2.44-.51l0,.11A19,19,0,0,0,250.66,391.37Zm86.94,21.51a9.15,9.15,0,0,0,1.17,0c-.34-.43-.6-1.09-1-1.24a25.09,25.09,0,0,0-3.25-.73,16.15,16.15,0,0,0-1.79-.35,3.76,3.76,0,0,0-1.08.18c.3.4.52,1,.92,1.15a19.06,19.06,0,0,0,2.76.61v-.07C336.07,412.58,336.83,412.76,337.6,412.88Zm-73.1-12.65c.38,0,.79-.33,1.18-.52-.28-.23-.53-.6-.85-.67-1.79-.41-3.58-.78-5.39-1.08-.32-.06-.7.23-1.05.37.26.24.47.61.77.69.85.25,1.73.38,2.6.56l0,.12A24.14,24.14,0,0,0,264.5,400.23Zm75.15,10.7a3.73,3.73,0,0,0,1.07-.2c-.28-.35-.5-.91-.85-1-1.77-.47-3.57-.84-5.36-1.19-.27,0-.59.19-.89.29.21.34.36.9.66,1a25.7,25.7,0,0,0,2.92.64h0C338,410.61,338.83,410.82,339.65,410.93Zm-23.14-7.11a2.62,2.62,0,0,0,1-.2c-.17-.37-.27-1-.51-1.07q-2.83-.68-5.72-1.13c-.23,0-.55.53-.83.82a2.82,2.82,0,0,0,.71.47c.92.23,1.85.39,2.77.58v0C314.76,403.48,315.63,403.7,316.51,403.82Zm40.69,7a6.36,6.36,0,0,0-1.07,0c.21.42.34,1.15.63,1.22,2,.51,4,.88,6,1.26a1.25,1.25,0,0,0,.26-.6,4.2,4.2,0,0,0-1.29-.92,24.84,24.84,0,0,0-2.59-.56h0C358.51,411,357.86,410.89,357.2,410.79ZM239.72,389.08a3,3,0,0,0-1.36.25c-.2.07-.3.4-.44.62.2.05.41.12.61.16,2.41.47,4.81,1,7.22,1.37.43.07.92-.29,1.38-.45a3.86,3.86,0,0,0-1-.69c-1-.27-2.07-.44-3.11-.66v.05C241.91,389.51,240.82,389.24,239.72,389.08Zm94.7,18.35a5.62,5.62,0,0,0,1.22-.13c-.36-.4-.67-1-1.11-1.14-1.6-.44-3.24-.71-4.87-1a3.77,3.77,0,0,0-1,.09c.24.38.4,1,.73,1.1a24,24,0,0,0,2.91.64v0C333,407.16,333.71,407.34,334.42,407.43Zm-8.74-1.85c.25,0,.55-.27.82-.42-.18-.27-.32-.71-.56-.77q-2.65-.66-5.34-1.15c-.3-.06-.66.27-1,.42.29.32.52.8.88.92a17.66,17.66,0,0,0,2.42.53l0-.07C323.84,405.23,324.75,405.46,325.68,405.58Zm-18.5-3.66a2.32,2.32,0,0,0,.94-.29c-.15-.31-.25-.85-.46-.9q-2.82-.66-5.67-1.14c-.22,0-.52.44-.78.68.26.21.49.52.78.6.85.24,1.72.38,2.59.55h0C305.45,401.59,306.31,401.81,307.18,401.92Zm-36.77-7.69c.42,0,.87-.38,1.3-.59a3.54,3.54,0,0,0-1-.62c-1.52-.34-3-.63-4.57-.9a2.08,2.08,0,0,0-1.11.07c-.25.12-.38.5-.56.77a3.47,3.47,0,0,0,.67.33c.87.2,1.74.36,2.61.54l0-.1A18.19,18.19,0,0,0,270.41,394.23Zm10.1,6.76c.32,0,.68-.36,1-.55a3.43,3.43,0,0,0-.86-.5c-1.62-.38-3.26-.72-4.89-1.07-.27-.06-.59-.22-.81-.13a4.71,4.71,0,0,0-1,.68c.25.2.48.51.77.59.91.24,1.85.4,2.77.59l0-.18C278.55,400.62,279.52,400.88,280.51,401ZM236.7,387.42c.43,0,.88-.44,1.32-.68a3.69,3.69,0,0,0-1-.61c-1.46-.34-2.94-.63-4.43-.88a2.37,2.37,0,0,0-1.24.11c-.27.09-.42.46-.63.71a5,5,0,0,0,.73.28c.87.19,1.74.36,2.62.54v0A16.09,16.09,0,0,0,236.7,387.42Zm57.38,15.22c-.23,0-.51.21-.76.32.16.24.28.65.49.7q3,.75,6,1.37c.22,0,.54-.33.81-.5-.22-.24-.4-.61-.67-.68-1-.27-1.94-.43-2.92-.63h0C296,403,295.06,402.79,294.08,402.64Zm-10-6.81c-.3,0-.64.34-1,.53.26.26.47.68.76.74,1.63.36,3.27.67,4.92.91.3.05.67-.31,1-.49-.27-.25-.5-.64-.81-.74-.8-.25-1.63-.36-2.45-.53v.05A20.74,20.74,0,0,0,284.07,395.83Zm63.51,18.86a3.14,3.14,0,0,0,.74-.05,3,3,0,0,0-.4-.86,1.64,1.64,0,0,0-.76-.27c-1.68-.35-3.35-.72-5-1a3.08,3.08,0,0,0-1.07.23c.26.37.46,1,.8,1.06a22,22,0,0,0,2.94.48l0-.13C345.73,414.32,346.65,414.52,347.58,414.69ZM369,412a4.63,4.63,0,0,0,1.17-.28c-.2-.51-.33-1.38-.64-1.47-1.76-.5-3.56-.82-5.36-1.16-.16,0-.38.29-.58.45.15.37.22,1,.45,1.08,1.13.48,2.3.82,3.46,1.21l0-.11A8.28,8.28,0,0,0,369,412Zm-50-3.05a2.27,2.27,0,0,0,.81-.19c-.17-.3-.27-.73-.53-.88a4,4,0,0,0-1.27-.34c-1.63-.33-3.26-.68-4.89-1-.29,0-.62.16-.93.25.25.35.45.91.77,1a29.18,29.18,0,0,0,3.11.49v0C317,408.51,318,408.74,319,408.9ZM265.5,396.76c-.35,0-.74.44-1.11.68.32.21.6.53.94.6,1.79.38,3.58.72,5.39,1,.32,0,.7-.26,1-.4-.24-.26-.45-.65-.74-.73a25.59,25.59,0,0,0-2.6-.56v0A25,25,0,0,0,265.5,396.76Zm-6.81-9.44c-.2,0-.47.3-.71.46.13.28.21.76.39.81,2.25.59,4.52,1.13,6.79,1.63.17,0,.43-.4.65-.61-.14-.34-.22-.92-.42-1-1.18-.32-2.38-.53-3.58-.77v.07C260.77,387.72,259.74,387.47,258.69,387.32Zm53,17.89c.27,0,.59-.23.89-.36-.22-.3-.4-.82-.68-.88-1.83-.4-3.68-.73-5.53-1-.23,0-.51.24-.77.37.18.27.32.7.56.77,1,.28,1.94.43,2.92.63h0C310,404.88,310.82,405.1,311.7,405.21ZM364,423.37a4.1,4.1,0,0,0,.79,0c-.09-.3-.1-.69-.3-.88a2.64,2.64,0,0,0-1.11-.61c-1.62-.39-3.25-.74-4.88-1.06a4.56,4.56,0,0,0-1.16.07c.32.38.58,1,1,1.1a26.66,26.66,0,0,0,3.31.72C362.26,422.92,363.11,423.17,364,423.37Zm-35.54-12.58a2.42,2.42,0,0,0,.91-.24c-.19-.3-.33-.77-.6-.87a14.65,14.65,0,0,0-2.11-.46c-1.14-.24-2.28-.51-3.44-.67a3.75,3.75,0,0,0-1.24.25c.35.34.65.87,1.07,1a16.94,16.94,0,0,0,2.53.43C326.69,410.45,327.56,410.67,328.44,410.79Zm-48.66-14.67c.36,0,.75-.41,1.12-.63-.28-.19-.54-.49-.85-.55-1.63-.32-3.27-.62-4.92-.82-.36,0-.77.38-1.16.59a5.13,5.13,0,0,0,.93.48c.8.21,1.62.35,2.43.51v0A15.88,15.88,0,0,0,279.78,396.12Zm-18.42-3.76c.42.05.89-.35,1.35-.55a3.85,3.85,0,0,0-1-.64c-1.68-.38-3.37-.69-5.06-1a2.76,2.76,0,0,0-1.14-.06c-.19,0-.33.41-.43.65,0,0,.29.29.48.33,1,.22,2,.41,2.93.61v-.05A21.18,21.18,0,0,0,261.36,392.36Zm91.71,18.94a3.27,3.27,0,0,0,.76,0c-.08-.31-.07-.72-.27-.89a2.19,2.19,0,0,0-1.05-.43c-1.47-.29-2.94-.56-4.42-.78a2.61,2.61,0,0,0-.93.26c.23.27.41.7.7.78.9.27,1.84.41,2.76.6S352.25,411.16,353.07,411.3ZM276.78,391c-.19,0-.46.37-.7.57.14.35.22,1,.41,1,2,.35,4,.61,6.05.85.2,0,.47-.31.7-.48-.14-.25-.25-.67-.44-.72-1-.27-2.06-.45-3.08-.66v0C278.74,391.34,277.77,391.1,276.78,391Zm75.69,17.62c.2,0,.45-.22.68-.34-.11-.38-.16-1-.34-1.09-2.05-.51-4.12-.94-6.18-1.35-.15,0-.35.24-.52.37.15.44.23,1.17.48,1.26a26.84,26.84,0,0,0,3.08.68l0-.08C350.61,408.23,351.53,408.45,352.47,408.59Zm8.12,1.58c.24,0,.53-.24.8-.38-.15-.36-.22-1-.44-1-.84-.31-1.73-.45-2.59-.68s-1.59-.53-2.41-.69c-.31-.06-.69.2-1,.31.2.51.3,1.33.61,1.45a17.06,17.06,0,0,0,2.93.67v-.05C359.17,409.9,359.87,410.09,360.59,410.17Zm-52.24-10.51c.24,0,.55-.42.82-.65-.16-.32-.27-.86-.48-.91q-2.83-.69-5.72-1.2c-.2,0-.5.49-.76.75.15.25.26.66.45.71,1,.27,1.95.44,2.93.64l0,.13C306.49,399.32,307.41,399.56,308.35,399.66Zm-60.7-13.52c.24,0,.55-.35.83-.53-.13-.28-.22-.76-.41-.8-1.89-.48-3.78-.91-5.7-1.26-.19,0-.51.51-.77.79.17.23.29.61.5.67,1,.25,2,.42,2.93.62S246.76,386,247.65,386.14Zm86.69,18.76c.34,0,.74-.29,1.11-.45-.3-.34-.55-.87-.9-1-1.23-.38-2.49-.61-3.74-.88a7.48,7.48,0,0,0-1.49-.25c-.21,0-.46.24-.7.37.12.32.17.87.35.92,1,.29,2.07.47,3.1.68l0,.15A20.26,20.26,0,0,0,334.34,404.9Zm-48.74-12c-.2,0-.47.31-.71.48.11.29.18.81.35.85,1.9.43,3.8.81,5.72,1.12.25,0,.59-.39.88-.6-.22-.25-.4-.65-.66-.73-.86-.25-1.74-.38-2.62-.56v0C287.57,393.24,286.6,393,285.6,392.86ZM317,401.34c.26.05.59-.22.88-.34-.13-.37-.2-1-.4-1.06-1.88-.5-3.78-.92-5.68-1.28-.2,0-.51.49-.77.76.2.25.37.64.62.71.91.26,1.84.41,2.76.6l0-.15C315.33,400.84,316.17,401.15,317,401.34Zm-66.34-16c-.26,0-.58.39-.87.6.17.3.3.8.53.87,1.59.52,3.19,1,4.81,1.37.29.06.68-.38,1-.59-.22-.33-.38-.84-.66-1a24.55,24.55,0,0,0-2.67-.89A15.59,15.59,0,0,0,250.69,385.31Zm80.15,23.55c.21,0,.45-.14.67-.21-.14-.23-.24-.61-.42-.65-2-.46-4.1-.89-6.17-1.27-.16,0-.4.37-.6.57.21.16.4.41.64.47.91.23,1.84.4,2.76.59l0-.12C328.78,408.45,329.8,408.68,330.84,408.86Zm-92.26-24.08c.23,0,.54-.49.82-.75-.2-.25-.36-.67-.59-.73-1.62-.4-3.24-.77-4.89-1.05-.29-.05-.67.37-1,.58.27.25.52.63.83.73a19.68,19.68,0,0,0,2.28.49l-.05.23A23.54,23.54,0,0,0,238.58,384.78Zm29.59,4.48c-.19,0-.44.34-.67.52.15.24.27.65.47.69,1.87.43,3.75.83,5.64,1.16.23,0,.55-.35.82-.54-.18-.21-.34-.55-.56-.61-1-.25-1.95-.42-2.93-.62v-.06C270,389.61,269.11,389.39,268.17,389.26Zm57.65,13.64c.18.05.46-.3.69-.47-.14-.21-.24-.57-.41-.61q-2.76-.66-5.55-1.22c-.16,0-.39.22-.58.34.16.23.28.61.48.66.92.25,1.86.41,2.79.6v-.08C324.11,402.39,325,402.7,325.82,402.9Zm17.56,9.32.12.06v-.09Z"/><rect class="cls-2" x="256.92" y="314.47" width="118.32" height="58.55" rx="2.46" transform="translate(556.7 743.95) rotate(-168.42)"/><path class="cls-2" d="M325.31,356.11l19.91,4.12a.94.94,0,0,0,1.11-.73l3.22-15.56a.94.94,0,0,0-.73-1.11l-19.91-4.12a1,1,0,0,0-1.11.73l-1.2,5.81-2,9.76A.93.93,0,0,0,325.31,356.11Z"/><path class="cls-2" d="M319,338.21l-2.93,14.16a.94.94,0,0,0,1.29,1.05l7.85-3.35a.93.93,0,0,0,.55-.67l1.23-5.93a1,1,0,0,0-.34-.93l-6.15-4.87A.94.94,0,0,0,319,338.21Z"/><rect class="cls-2" x="287.59" y="325.39" width="8.29" height="20.74" rx="4.15" transform="translate(507.13 724.93) rotate(-167.98)"/><path class="cls-2" d="M282.13,340.44a8.42,8.42,0,0,0,6.49,10h0a8.42,8.42,0,0,0,10-6.48"/><line class="cls-2" x1="288.62" y1="350.43" x2="287.08" y2="357.63"/><line class="cls-2" x1="291.07" y1="358.81" x2="282.96" y2="357.08"/><g id="KD8fr7.tif"><path class="cls-6" d="M484.91,318.53c.79-1.21,1.61-2.41,2.37-3.64s1.47-2.73,2.34-4a24.48,24.48,0,0,1,2.83-3.5,21.46,21.46,0,0,1,15.31-6.51c.88,0,1.76-.05,2.64-.07l2.79.48c.28.14.57.28.86.4a39.81,39.81,0,0,1,4.43,1.79c3,1.6,5,4.12,6.95,6.88a21.35,21.35,0,0,1,4.22,13.88,1.79,1.79,0,0,0,.24,1,3.82,3.82,0,0,1-.71,4.32,3.42,3.42,0,0,0-.93,1.3,25.47,25.47,0,0,1-5.53,9.08,5.59,5.59,0,0,0-1.45,2.64c-.34,1.28-.3,2.9-2,3.44-.18.06-.27.45-.35.71-.6,1.8-.65,3.73-1.49,5.52a26.53,26.53,0,0,0-1.19,4.78c-.62,2.56-1.25,5.12-1.92,7.67-.73,2.82-1.55,5.62-2.26,8.44-.84,3.29-1.59,6.59-2.4,9.88s-1.64,6.48-2.42,9.73c-.55,2.29-1,4.6-1.55,6.89-.92,3.89-2,7.76-2.79,11.67-1.06,4.93-2,9.89-2.93,14.84-.09.47-.21.92-.31,1.38-1,4.18-2,8.35-2.9,12.53-.51,2.32-1,2.9-3.4,3.27-.37.06-.75.08-1.12.12A30.49,30.49,0,0,1,482,442.12a14.64,14.64,0,0,1-3.47-1.52,3.17,3.17,0,0,1-1.86-3.48c.13-.74.07-1.51.19-2.26,1.17-7.31,2.4-14.61,3.55-21.93.82-5.21,1.61-10.43,2.3-15.67.64-4.85,1.13-9.72,1.69-14.59.22-1.92.43-3.84.65-5.76.68-6,1.34-12.07,2-18.1.45-3.88.95-7.76,1.41-11.64a1.07,1.07,0,0,0,0-.67c-.77-1-.32-2,0-3.06a6,6,0,0,0,.23-3.72,14.25,14.25,0,0,1-.58-2c-.18-1.24,0-2.64-.44-3.73a31.62,31.62,0,0,1-2.27-11.25,2.59,2.59,0,0,0-.9-2.28Zm-.34,2c2,.35,5,.68,6.93,1,3,.5,6,.92,8.94,1.5,7.07,1.37,14.13,2.81,21.2,4.24,1.8.37,3.59.78,5.38,1.16.55.12,1.92.35,2.71.48m.16-3.63a25.93,25.93,0,0,0-3-.21c-7.53-1.33-15.07-2.58-22.58-4-4.58-.85-9.12-1.94-13.68-2.89-1.46-.3-3.3-.59-4.87-.86m2.77,29.18c11.14,4.91,28.92,5.76,28.92,5.76m-28.5-11.92c11.26,3.52,30.09,5.82,30.09,5.82m-34.57,36.55c9.12,4.47,23.84,4.86,23.84,4.86m-23.52-7.66c10.37,4.88,24.46,4.89,24.46,4.89M488,334.9c11.26,3.52,33.71,6.51,33.71,6.51"/></g><path class="cls-2" d="M126.36,281.76a12.46,12.46,0,0,1-3.08,1.93c-6.07,3.1-12.15,6.17-18.21,9.28-2.33,1.19-4.6,2.52-6.94,3.68-2.73,1.34-4,.92-5.65-1.72a84.68,84.68,0,0,1-6.8-13c-2.25-5.69-5.61-10.86-8.06-16.47S72,254.23,69.25,248.6c-2.66-5.38-6-10.45-8.39-16-.39-.88-1-.87-1.7-.54-1,.47-2.08.93-3.1,1.41a2.9,2.9,0,0,1-3.2-.38,14.33,14.33,0,0,1-3.27-3,2,2,0,0,0-2.87-.84c-2.07.93-4.3.43-6.45.13-3.1-.42-6.29-.29-9.23-1.64a6.83,6.83,0,0,1-3.42-3.09c-2.72-5.14-3.93-10.44-1.84-16.13.9-2.45,1.39-5.06,3.11-7.16a3.82,3.82,0,0,1,2.23-1.72c1.45-.22,1.58-1.14,1.46-2.28-.15-1.56-.35-3.12-.48-4.69a4.37,4.37,0,0,1,2.73-4.79c6.36-3.1,12.64-6.35,18.9-9.66s12.44-6.35,18.72-9.41c1.4-.68,2.87-1.11,4.26-.34a2.45,2.45,0,0,0,3.06-.38,52.33,52.33,0,0,0,11.38-11.49,174,174,0,0,0,13.26-21.92c4.19-8.2,7.13-16.88,10.74-25.3a134.81,134.81,0,0,0,6.75-20.35c.76-3,.27-6.09.76-9.11a11.61,11.61,0,0,1,2.39-6,6.58,6.58,0,0,1,6.74-2.47,22.69,22.69,0,0,1,9.72,4.93,107.66,107.66,0,0,1,18,19A265.54,265.54,0,0,1,177,121.45a333.93,333.93,0,0,1,19.75,38.13,243.37,243.37,0,0,1,12.33,35.9A79.32,79.32,0,0,1,212,214.86a20.61,20.61,0,0,1-1.49,7.92,7,7,0,0,1-7.93,4.58,19.82,19.82,0,0,1-9.39-4.41,29.78,29.78,0,0,0-9.26-4.74c-3.49-1.16-7-2.33-10.44-3.51-6.39-2.16-13-3.26-19.63-4.48a168.1,168.1,0,0,0-20.25-2.48,145.65,145.65,0,0,0-20.68-.19,58.2,58.2,0,0,0-12.34,2.27,3.42,3.42,0,0,0-2.74,2.49c-.33,1.37-1.55,1.79-2.65,2.32-2.91,1.4-5.84,2.77-8.74,4.21-1.69.84-1.85,1.21-.93,2.84,1.57,2.81,2.75,5.83,4.82,8.38a22.94,22.94,0,0,1,2.14,3.9l17,32.52c.16.31.3.63.48.93.87,1.46,1,1.47,2.41.64s2.7-1.61,4.13-2.27c2.39-1.1,3.65-.68,5,1.58.64,1,1.2,2.14,1.75,3.23a62.83,62.83,0,0,0,3.63,7A3.55,3.55,0,0,1,126.36,281.76Zm68.89-57.34-13.46-15.86c-25-31.29-44.55-64.89-55.48-103.3a80.21,80.21,0,0,1-2.12-9.55l-1.81-11.38m-75,144.72a3.53,3.53,0,0,0-1.05-2.58c-7.36-6.63-11.63-17.9-14.24-27.13m42.32-31.19S69.25,192,97.22,213.45"/><path class="cls-2" d="M344.71,89.59c-2.8.73-5.06,1.33-7.33,1.91Q312.6,97.76,287.84,104c-7.53,1.91-15.06,3.86-22.59,5.79-.42.11-.84.21-1.26.33-2.41.68-2.5.84-1.38,3,2.68,5.11,5.4,10.19,8.05,15.31,2.3,4.41,4.53,8.87,6.78,13.31a9.17,9.17,0,0,1,.64,1.43c.28.89,0,1.32-1,1.23-3-.29-6.08-.49-9.11-.84-8.5-1-17-2-25.48-3l-27.29-3.19c-4.51-.52-9-1-13.52-1.53a13.15,13.15,0,0,1-1.55-.23,1,1,0,0,1-.84-.89.91.91,0,0,1,.73-1c.58-.18,1.19-.3,1.78-.42l43.1-8.92c1.73-.35,1.88-.62,1.14-2.29q-5.93-13.42-11.89-26.83c-.28-.64-.64-1.24-1-1.85-1.28-2.39-.6-3.73,2-3.79,4.71-.12,9.43-.13,14.15-.18,11.52-.12,23-.26,34.57-.35Q307,89,330,88.84c3.84,0,7.69-.1,11.53-.17A4,4,0,0,1,344.71,89.59Z"/><path class="cls-2" d="M240.29,190.54c.38-.79,1.14-.64,1.81-.69,8.7-.55,17.41-1.07,26.13-1.34.26,0,.53,0,.79,0,2.58-.15,2.66-.17,2-2.81-.83-3.39-1.77-6.75-2.69-10.12-.73-2.69-1.53-5.37-2.25-8.07-.63-2.32-.36-2.73,2-2.52a63.53,63.53,0,0,1,6.72.95c8.81,1.72,17.65,3.34,26.4,5.32,8.25,1.86,16.56,3.41,24.85,5,3.77.73,7.51,1.56,11.25,2.39.62.14,1.67,0,1.61,1s-1.15.9-1.88.94c-2.87.19-5.75.37-8.62.45-8.81.23-17.62.41-26.43.62-5,.12-9.94.25-14.91.43-2.39.08-2.55.3-1.91,2.68,1.44,5.31,2.93,10.6,4.4,15.9.17.59.33,1.18.47,1.77.74,3.2.64,3.15-2.58,2.41-8.08-1.87-15.91-4.65-23.9-6.76-7.44-2-14.67-4.57-22.06-6.62a4,4,0,0,1-.95-.41C240.4,190.93,240.37,190.71,240.29,190.54Z"/><path class="cls-2" d="M265.54,29.12a5.89,5.89,0,0,1-2.26,2.05c-4.53,2.8-9.07,5.57-13.59,8.39-9,5.63-18.21,11-27.37,16.43-2.07,1.23-2.1,1.55-.4,3.25l11.69,11.63A18.76,18.76,0,0,1,235,72.4c.94,1.17.77,2.07-.59,2.68a12.4,12.4,0,0,1-2.5.73q-16.38,3.51-32.77,7c-4,.85-8,1.62-12.05,2.42-.43.09-.86.18-1.29.24a.86.86,0,0,1-.91-.37c-.28-.5,0-.87.39-1.1,1.27-.78,2.54-1.54,3.84-2.25q10.22-5.59,20.45-11.17l.23-.12c2.45-1.38,2.51-1.64.6-3.85-2.68-3.1-5.4-6.17-8.09-9.26-1.32-1.52-2.64-3-3.91-4.58-1.1-1.35-1-1.82.66-2.45,4.17-1.56,8.37-3,12.57-4.48q21.42-7.37,42.84-14.68c2.72-.94,5.45-1.86,8.18-2.78a4.61,4.61,0,0,1,2-.38A.84.84,0,0,1,265.54,29.12Z"/><path class="cls-2" d="M85.72,172.42c3.93-2.7,18.9-14.61,37.09-49.49a.87.87,0,0,1,1.62.17c.82,3.32,3.27,10.64,10.49,26.11a3.64,3.64,0,0,1-1.34,4.62L90.11,181.37a2.37,2.37,0,0,1-3.13-.5,11,11,0,0,1-2.29-6.33A2.45,2.45,0,0,1,85.72,172.42Z"/><path class="cls-2" d="M83.05,212.1c-6.72,3.87-19.3,9.39-26.46,12.47-.82.36-1.65.68-2.49,1a2.5,2.5,0,0,1-2-.2,9.61,9.61,0,0,1-3.82-4.83c-.36-1,.3-1.65,1.12-2.09l7.18-3.79c6.52-3.44,13.81-8,20.42-11.55a1.52,1.52,0,0,1,1.83.32C82,206.82,86.39,210.25,83.05,212.1Z"/><path class="cls-2" d="M69.23,190.53a1.74,1.74,0,0,1-.91,2.06c-7.47,3.65-17.53,8.1-24.32,11a1.68,1.68,0,0,1-2-.46c-1.67-1.92-3.61-6.68-4.2-8.32-.37-1,.29-1.65,1.12-2.1C41.08,191.62,59.68,182.19,64,180a1.22,1.22,0,0,1,1.65.56A89.07,89.07,0,0,1,69.23,190.53Z"/><path class="cls-2" d="M165.31,137.08a8.89,8.89,0,0,1,3.31,2.29c4.93,5.1,7.2,11.37,7.84,18.31a8.11,8.11,0,0,1-.27,2.23,2.06,2.06,0,0,1-1.14,1.54c-3.38,1.45-5.63,4.38-8.55,6.42-1.25.87-1.48,1.83-.58,3.07a13.38,13.38,0,0,1,.71,1.22,297.38,297.38,0,0,0,17,26,121.76,121.76,0,0,0,14.77,17.06,34.61,34.61,0,0,0,4,3.16c.85.61,1.47.26,1.42-.81-.07-1.5-.18-3-.39-4.5a174.71,174.71,0,0,0-7.65-31.23A314.09,314.09,0,0,0,181.2,146.3c-8.49-18-18.06-35.39-29.91-51.44-4.26-5.77-8.79-11.3-14.55-15.69a14.27,14.27,0,0,0-4-2.6c-1.09-.36-1.94-.14-2,1.16a30.93,30.93,0,0,0-.14,5.36,114.12,114.12,0,0,0,2.72,13.85A266.68,266.68,0,0,0,149,138.67c1,2.22,1.21,2.3,3.69,1.54q4.86-1.5,9.69-3A4,4,0,0,1,165.31,137.08Zm-.21,3.48c-.67-.32-1.07-.12-1.19.46a3.38,3.38,0,0,0,0,.84c.16,6.47,3.28,11.62,7.24,16.41.36.42.83.84,1.45.46a1.19,1.19,0,0,0,.44-1.25,13.37,13.37,0,0,0-.21-1.67A36.39,36.39,0,0,0,166,141.44,8.15,8.15,0,0,0,165.1,140.56Z"/><path class="cls-2" d="M92.43,192.62A58.31,58.31,0,0,0,95,201a2.07,2.07,0,0,0,2.51,1.11c7-2,34.25-9,61.21-4.89a1.33,1.33,0,0,0,1.45-2c-2.47-3.76-7.16-11-10.32-16.43a3.42,3.42,0,0,0-3.8-1.53l-52.16,13A1.94,1.94,0,0,0,92.43,192.62Z"/><line class="cls-2" x1="85.68" y1="281.96" x2="111.14" y2="268.6"/><line class="cls-2" x1="70.08" y1="240.74" x2="90.28" y2="279.51"/><line class="cls-2" x1="94.85" y1="277.11" x2="78.92" y2="246.46"/><line class="cls-2" x1="59.16" y1="232.07" x2="85.51" y2="219.4"/><line class="cls-2" x1="149.45" y1="139.6" x2="166.63" y2="172.16"/><path class="cls-2" d="M849.22,84.41s7.06,22,6.74,36.48.11,18.65.11,18.65-.15,2.27-3.16,12-16.58,19.07-25.6,22.81-11.23,7.35-20.77,10-23.28-2.77-35.13-4.11c-9.57-1.08-15.4-7.79-20.9-14.92-1.31-1.7-2.61-3.42-3.93-5.1a115.28,115.28,0,0,1-14.75-25.79l-4.07-11.21s11.16-3.14,18.55-10.86S759,98,761.36,94.3s11.2-16,21.12-17.19A62.75,62.75,0,0,1,801,77.7a47.19,47.19,0,0,1,10.29,4.08C817.64,85,838.52,88.63,849.22,84.41Z"/><path class="cls-2" d="M729.48,128s11.16-3.14,18.55-10.86S760.77,102.7,763.08,99,774.29,83,784.2,81.8a63.15,63.15,0,0,1,18.53.59A47.81,47.81,0,0,1,813,86.48c6.33,3.23,27.21,6.85,37.91,2.62"/><path class="cls-2" d="M774.45,142.45a21.24,21.24,0,0,0,7.88-4,50.84,50.84,0,0,0,6.42-6.56c1-1.34,4.79-5.78,9-6.25a31.35,31.35,0,0,1,7.83.15,22.46,22.46,0,0,1,4.34,1.44c2.67,1.14,11.49,2.37,16,.82"/><path class="cls-2" d="M813.28,113c4.36,1.82,18.79,3.77,26.21,1.28"/><path class="cls-2" d="M755.25,137.3s7.73-1.86,12.89-6.35a83.75,83.75,0,0,0,10.52-10.48c1.63-2.15,7.85-9.24,14.71-10a52.2,52.2,0,0,1,12.81.23"/><path class="cls-2" d="M772,112.65a50.84,50.84,0,0,0,4-5.32c1.36-2.18,6.57-9.36,12.38-10.08a36.8,36.8,0,0,1,10.87.35,27.81,27.81,0,0,1,6,2.39c3.72,1.89,16,4,22.23,1.54"/><path class="cls-2" d="M756.31,124.3s6.54-1.83,10.88-6.36"/><path class="cls-2" d="M746.58,160.25C733.64,165.2,723,163,716.19,160c-7.07-3-12-9.82-11.93-17.51.07-7.42,4.63-16,23.5-19.28"/><path class="cls-2" d="M744.29,157.18c-10.65,4.08-19.54.77-25.17-1.64-5.82-2.5-10.43-5.58-10.36-11.91.06-6.11,5.19-13,20.72-15.68"/><path class="cls-2" d="M856.32,131.24C871.57,118.78,875.14,117,879,111.12a20.54,20.54,0,0,0,.48-21.28c-3.79-6.57-13.94-11.53-30.23-5.43"/><path class="cls-2" d="M855.86,126.82c11.53-8.45,16.51-11.53,19.73-16.35a16.54,16.54,0,0,0,.54-17.37c-3.11-5.34-11.61-9.08-25.19-4"/><polyline class="cls-2" points="670.95 388.93 664.4 389.04 657.84 388.88 651.28 388.92 651.73 395.13 651.65 401.35 651.99 407.55 652.29 413.76 652.7 419.96 652.75 426.18 653.02 432.39 653.5 438.59 653.61 444.8 653.86 451 654.14 457.21 654.61 463.41 654.91 469.62 654.96 475.84 655.51 482.04 655.48 488.26 656.01 494.46 656.08 500.68 656.3 507.02 662.82 507.02 669.22 506.89 675.62 506.97 682.02 506.74 688.42 506.98 694.83 507.02 701.23 506.8 707.62 506.82 714.02 506.79 720.43 506.77 726.83 506.94 733.23 506.91 739.64 506.74 746.04 506.73 752.44 506.91 758.85 507 765.21 506.83 765.5 500.69 765.96 494.49 766.2 488.28 766.54 482.08 766.74 475.86 767.01 469.65 767.38 463.45 767.72 457.25 767.96 451.03 768.22 444.83 768.58 438.63 769.09 432.43 769.16 426.21 769.55 420 769.96 413.8 770.06 407.58 770.69 401.39 770.98 395.17 771.1 388.98 764 388.78 756.86 389.08 749.73 388.77"/><polyline class="cls-2" points="750.2 388.81 756.76 388.83 763.33 388.57 769.9 388.79 776.6 388.89 776.34 381.91 776.59 375.05 776.42 368.24 770.13 368.32 763.79 368.3 757.45 367.99 751.11 368.33 744.77 368.3 738.43 368.35 732.09 368.13 725.75 368.33 719.41 368.12 713.07 368.16 706.73 368.13 700.39 368.11 694.05 368.34 687.71 368.29 681.36 368.37 675.02 368.38 668.68 368.08 662.34 368.39 655.99 368.35 649.64 368.3 643.31 368.21 643.21 375.05 643.36 381.9 643.21 388.85 650.17 388.84 657.06 388.74 663.95 388.86 670.84 388.88"/><polygon class="cls-2" points="681.37 347.13 687.81 347.18 694.22 347.15 700.64 347.1 707.05 347.07 713.47 347.06 719.88 347.07 726.3 347.12 732.72 347.09 739.1 347.06 739.23 340.38 739.14 333.65 732.73 333.66 726.32 333.68 719.9 333.61 713.49 333.58 707.07 333.71 700.66 333.73 694.24 333.71 687.82 333.6 681.35 333.61 681.47 340.38 681.37 347.13"/><polyline class="cls-2" points="731.4 341.3 725.26 341.23 719.11 341.3 712.96 341.3 706.82 341.28 700.67 341.34 694.51 341.24 688.36 341.3"/><polyline class="cls-2" points="748.5 367.72 748.64 373.92 748.48 380.11 748.55 386.3 748.71 392.5 748.76 398.69 748.8 404.88 748.66 411.08 748.64 417.31 743.07 414.43 737.68 411.28 732.14 408.39 726.73 405.27 721.32 402.17 715.73 399.36 710.27 396.46 704.86 399.24 699.32 401.9 693.9 404.82 688.36 407.48 682.95 410.41 677.47 413.22 671.89 415.93 671.93 409.92 671.93 403.96 671.96 398 671.96 392.04 672.07 386.08 671.94 380.12 672.17 374.15 672.13 368.19"/><polygon class="cls-2" points="783.95 347.43 777.55 347.28 771.12 347.39 764.69 347.24 758.25 347.32 751.82 347.46 745.39 347.58 738.96 347.61 732.53 347.47 726.1 347.47 719.67 347.53 713.24 347.18 706.8 347.3 700.37 347.25 693.94 347.35 687.5 347.39 681.06 347.43 674.62 347.4 668.28 347.33 661.94 347.53 655.6 347.58 649.26 347.4 642.91 347.49 636.65 347.48 636.63 354.25 636.49 361.11 636.45 368.07 642.97 368.12 649.37 367.91 655.78 367.92 662.19 368.19 668.6 367.82 675 368.15 681.41 368 687.82 368.19 694.23 367.84 700.64 368 707.05 368.07 713.46 368 719.87 367.76 726.27 367.95 732.68 367.84 739.09 367.94 745.5 368.17 751.91 367.89 758.32 368.12 764.73 367.77 771.14 367.88 777.56 368.09 784.12 368.1 783.89 361.12 783.79 354.26 783.95 347.43"/><line class="cls-2" x1="668.18" y1="347.74" x2="668.18" y2="368.34"/><line class="cls-2" x1="753.26" y1="347.74" x2="753.26" y2="368.34"/><path class="cls-2" d="M657.58,347.74l13.36-35a5.23,5.23,0,0,1,3.63-3.21L696,304.29"/><circle class="cls-2" cx="699.52" cy="303.22" r="4.17"/></g></g></svg>