<svg xmlns="http://www.w3.org/2000/svg" viewBox="0 0 454.55 253.82"><defs><style>.cls-1{fill:#fff;}</style></defs><g id="Layer_2" data-name="Layer 2"><g id="Layer_1-2" data-name="Layer 1"><path class="cls-1" d="M205.75,144.45c1.55,6.62,1.65,10.34.5,13s-2.52,4.5-4.09,5.45a14.49,14.49,0,0,1-4.67,1.89,11.44,11.44,0,0,1-5.75.13c-1.48-.52-1-2.69-.79-3.68,1.73-8,1.72-7.68,1.47-9.21a22.25,22.25,0,0,0-1-4,4.28,4.28,0,0,0-1.29-2.13c-.46-.49-1.41-.62-2.84-.38a7.41,7.41,0,0,0-3.87,2,30.58,30.58,0,0,0-5.3,6.77l.14-.17c-.27.45-.63,1-1.09,1.71s-.72,1.19-1.07,1.87q-10.86,19-11.72,43.41a24.69,24.69,0,0,0,.82,8.78,14.48,14.48,0,0,0,2.65,5.06,6.24,6.24,0,0,0,3.71,2.15,11.11,11.11,0,0,0,4,0,15.48,15.48,0,0,0,3.64-1.14c6.78-3.53,11-12.44,12.21-12.45a45.44,45.44,0,0,1,9.1,1.86,4.54,4.54,0,0,1,2.63,3.06q.49,2-1.53,5.45a38,38,0,0,1-7,8.85,28.81,28.81,0,0,1-9.49,6.12A71.31,71.31,0,0,1,171.46,232a20,20,0,0,1-6.29-.55,14.34,14.34,0,0,1-5.86-2.67,20.24,20.24,0,0,1-7.21-8.83,29.07,29.07,0,0,1-2.17-8.16,93.38,93.38,0,0,1-.36-10.59q.24-5.82,1.47-14.46a137.48,137.48,0,0,1,3.76-16.6,92.63,92.63,0,0,1,4.86-13.17A105.78,105.78,0,0,1,166,144.76a38.73,38.73,0,0,1,10-10.26,23.83,23.83,0,0,1,9.18-3.51,26.2,26.2,0,0,1,10.81.53,12.21,12.21,0,0,1,6.34,4.4A24.46,24.46,0,0,1,205.75,144.45Zm-27.58,84.16a23.94,23.94,0,0,1-6.1,1.53,15.11,15.11,0,0,1-9.19-1.56,16.56,16.56,0,0,1-7-6.59q-3.85-6.24-3.93-17.18a112.56,112.56,0,0,1,4.86-33.28,21,21,0,0,0-1.24,3.41c-.39,1.38-.63,2.23-.7,2.56a5.48,5.48,0,0,1,.08-.81c.16-.55.18-.87.07-1-.08.33-.43,1.84-1.06,4.52s-1.1,4.69-1.4,6a101.31,101.31,0,0,0-1.24,16.85q.27,9.63,2.35,15.23,3.54,9.49,11.86,11.77a15,15,0,0,0,7.68.42c2.13-.52,4-1,5.47-1.48.3-.13.85-.4,1.65-.79l-1.7.15A.6.6,0,0,0,178.17,228.61Zm-15.25-1.32a13.47,13.47,0,0,0,8.72,1.6,13,13,0,0,1-10.77-3.5,17.76,17.76,0,0,1-4.17-4.61A17,17,0,0,0,162.92,227.29Zm-5.37-17.53a36.61,36.61,0,0,0,.79,5.24.25.25,0,0,1,.14-.25.64.64,0,0,0,.19-.43,1.36,1.36,0,0,0-.06-.63l-.21-.63a2.14,2.14,0,0,1-.12-.47C157.8,210.81,157.56,209.87,157.55,209.76Zm6.28-33.09a106.52,106.52,0,0,1,5.45-15.15,78.68,78.68,0,0,1,5.17-9.82,12.55,12.55,0,0,0,.91-2l-.05-.48-.14.17-.69.87c-.65.92-1.33,1.95-2.06,3.09-1.08,1.82-2.28,3.91-3.62,6.29a55.76,55.76,0,0,0-3.62,8.06q-.39.85-3.88,11.95a108.19,108.19,0,0,0-2.4,12.78,77.82,77.82,0,0,0-.69,11Q158,213.58,161.68,219a5.94,5.94,0,0,0,2.25,2.37l1.34,1c-.09.12-.08.28,0,.48a23,23,0,0,0,4.47-.57l-.17-.15a10.09,10.09,0,0,1-3.69-1.11,9.91,9.91,0,0,1-3.29-3.55c-.73-1.11-.9-1.85-.52-2.21a4.64,4.64,0,0,1-1.34-2.77,52.51,52.51,0,0,1-.8-8.61A72.68,72.68,0,0,1,161.08,189,113.83,113.83,0,0,1,163.83,176.67ZM158.15,191l0-.32a2.8,2.8,0,0,0,.09-.65,27.22,27.22,0,0,0-.38,6,10,10,0,0,0,.61-2.72c.07-.91.15-2,.25-3.16s.18-2,.24-2.43a34.45,34.45,0,0,1,.65-4.73q.45-2,.12-2.1l0,.16A100.26,100.26,0,0,0,158.15,191Zm-1.62-12.41q3.28-10,3.39-10.45A77.14,77.14,0,0,0,156.53,178.63Zm10.06,41.24q-2.81-1.68-4.06-6.87a49.36,49.36,0,0,1-1.73-8.53c0,.32,0,.78,0,1.36s0,1,0,1.21q-.07,7.58,3.87,11.39a6.73,6.73,0,0,0,1.86,1.6Zm5.48,10.27a2.38,2.38,0,0,0,.6-.22c.31,0,.46-.09.45-.2a15.75,15.75,0,0,1-8.33-.68C166,229.68,168.42,230.05,172.07,230.14ZM161.85,173.8q-.58,2.14-1,4.11.43-2,1.91-6.29C162.49,172.29,162.19,173,161.85,173.8ZM167,219.18c-.8-.78-1.49-1.41-2.05-1.9A6.75,6.75,0,0,0,167,219.18ZM165.11,177q1.11-4.77,2.57-9.25a5.29,5.29,0,0,0-.4.68c-.43,1-1.4,3.94-2.93,8.8a84.27,84.27,0,0,0-2,8.4A57.57,57.57,0,0,1,165.11,177Zm2.16-13.72a19.92,19.92,0,0,1-.68,1.92c-.3.73-.62,1.5-1,2.34a15.19,15.19,0,0,1-.92,1.94c.24-.78.71-1.94,1.39-3.51S167.18,163.54,167.27,163.31Zm5.54-2.44q1.69-3.54,1.95-4.21l-2.65,5.08Zm1.59-6.42a40.85,40.85,0,0,0,2.67-3.95,37.88,37.88,0,0,1,2.4-3.61A25.66,25.66,0,0,0,174.4,154.45Z"/><path class="cls-1" d="M253.3,180.73a46,46,0,0,1-12.13,10.41c-.58.37-1.48,1-2.72,1.85l.45,0c0,.11-.06.19-.2.26s-.22.15-.21.26l.15,0,2.48.42c.31.07.75.17,1.32.27a4.82,4.82,0,0,0,1.3.12c1.86.36,3.47.75,4.83,1.15a1,1,0,0,0,.55.19,2.48,2.48,0,0,1,.7.18c.21.08.4.15.55.19s.28-.05.36-.28q.09-.65-.36-.6a14.88,14.88,0,0,1-1.64-.41c-.68-.2-1.17-.35-1.48-.42a4.19,4.19,0,0,1-1.32-.2,3.9,3.9,0,0,0-1.31-.2h.15l.14-.18-.15,0,0-.16a20.66,20.66,0,0,1,3.41.64,18,18,0,0,0,3.71.62l-.22,0-.23,0a.48.48,0,0,0,.48.27,8.23,8.23,0,0,1,1.15.06,7.65,7.65,0,0,0,1.15.05,2.64,2.64,0,0,1,.61.1l.79.25a2.63,2.63,0,0,1,.92.08l1.4.35c.63.15,1.3.3,2,.45a2.37,2.37,0,0,1,1.58,2.25,20.42,20.42,0,0,1-.82,5.84c-.73,3.16-2.32,5.12-4.79,5.88l0,.16-.15,0a12.28,12.28,0,0,1-1.9-.71c-1.16-.48-1.7-.88-1.63-1.21a.46.46,0,0,0-.32-.13,1.31,1.31,0,0,1-.55-.18,1.23,1.23,0,0,0-.55-.19,1.16,1.16,0,0,1-1-.07,2.35,2.35,0,0,0-.7-.26,25.92,25.92,0,0,1-4.36-1,3.17,3.17,0,0,1-.85-.08,4.41,4.41,0,0,1-.86-.24c-.31-.08-.78-.17-1.39-.27a6.58,6.58,0,0,0-1.08-.14,20.12,20.12,0,0,0-3.4-.49,23,23,0,0,0-4-.27,13.67,13.67,0,0,1-1.53,0,14.69,14.69,0,0,0-1.67,0,24.35,24.35,0,0,1-2.92-.21c-.3,0-.73,0-1.29,0a5.45,5.45,0,0,1-1.3-.12,61.14,61.14,0,0,0-1.06,6.66q-.15,0-.09-.15a.76.76,0,0,0,0-.33.67.67,0,0,0-.25.67,5.41,5.41,0,0,1-.18,1.29c-.14.66-.27,1.42-.4,2.28s-.27,1.71-.45,2.52-.37,1.77-.57,2.86a2.12,2.12,0,0,1-.08.72,6.88,6.88,0,0,1-.51,1.17,1.39,1.39,0,0,1-1.14.83l-1.51.14a.45.45,0,0,1-.28.18,8.07,8.07,0,0,0-1.69-.08,4.65,4.65,0,0,1-1.85-.23h.16c-3.9-.39-5.86-1.86-5.9-4.42,0-.1.18-1.13.55-3.09s.85-4.29,1.41-7,4.4-66.28,4.49-66.4c1.75-1.87.75-1,5.36-2.12a57.18,57.18,0,0,1,9.66-1.78,39,39,0,0,1,11.24,1.36,27.66,27.66,0,0,1,4,1.55,40.14,40.14,0,0,1,6,3.61,22.94,22.94,0,0,1,5.89,7.61,24.58,24.58,0,0,1,2.14,11.64,27.85,27.85,0,0,1-2,9.15A25.82,25.82,0,0,1,253.3,180.73Zm-32.18,25.71,0-.15c.16-.55.39-.79.7-.71a1.48,1.48,0,0,1-.21-.62.42.42,0,0,1-.32-.13l-.3,0a9.26,9.26,0,0,0-1.19.27c-.15.65-.26,1.09-.34,1.31-.23.77-.29,1.25-.17,1.46l-.22.82c-.32-.08-.45.09-.41.51l0,.32a2.46,2.46,0,0,0,.16,1.75l0,.47a12.53,12.53,0,0,0-.56,2.13c-.07.33,0,.49.19.47a.28.28,0,0,1,.34.29.93.93,0,0,1-.26.5c-.27.35-.31.56-.09.65l.16.14c0,.22.08.32.18.31.3-.14.37-.41.23-.82l.14-.18,0-.16a3.2,3.2,0,0,0,.14-1.77c-.12-.2-.13-.36,0-.47s.31-.51.62-1.5Q220.14,210.7,221.12,206.44Zm-1.37,9.89a4.79,4.79,0,0,0,.43-1.16,3.52,3.52,0,0,0,0-.4.3.3,0,0,0-.09-.15c-.06-.05-.11-.05-.15,0a.32.32,0,0,0-.06.25,1.66,1.66,0,0,1-.5,1.16c-.09.12,0,.22.18.31Zm0-32.8c-.29,1.2-.48,2-.55,2.29l.31,0C219.62,184.82,219.7,184.07,219.75,183.53Zm1.94,25.74h.15c.15-.55.38-1.37.68-2.47A12.13,12.13,0,0,0,223,205a1.09,1.09,0,0,1-.38,0,1.22,1.22,0,0,0-.39,0,6.89,6.89,0,0,1-.09,1.45,6.89,6.89,0,0,0-.09,1.45,2.43,2.43,0,0,0-.16.74A3.13,3.13,0,0,1,221.69,209.27Zm2.4-3.58.1-.65a1.19,1.19,0,0,1-.39,0,1.4,1.4,0,0,0-.38,0l-.52,2.61a9.34,9.34,0,0,0-.28,1.14c-.1.55-.19,1-.26,1.23s0,.4.18.38c.52.06.75-.12.71-.54a3.37,3.37,0,0,1,.2-1.22c.15-.5.29-1,.39-1.48S224,206.12,224.09,205.69Zm-3.55-21.92a1.61,1.61,0,0,1,0,.41,5.49,5.49,0,0,0-.1.57,1,1,0,0,1-.18.49l.28-.18A11.16,11.16,0,0,0,220.54,183.77Zm.46-3.24a2.42,2.42,0,0,0-.29,1c0,.32,0,.7-.05,1.12a1.63,1.63,0,0,1-.15.82A12,12,0,0,0,221,180.53Zm3.86.6a4.52,4.52,0,0,0-.24-.93c-.12-.21-.23-.25-.32-.14s-.19.13-.27.35c-.37,1.53-.61,2.67-.75,3.43a1.21,1.21,0,0,0,1.24.2A15.49,15.49,0,0,1,224.86,181.13ZM221,152.37c.34.4.66.53.95.39s.66-.48,1.42-1.09v-.16a1.85,1.85,0,0,1-.54-.91,14.21,14.21,0,0,0-2.33,1.18Zm2.72-.25a6.2,6.2,0,0,0-1.17.59l1.51-.14a.71.71,0,0,0-.1-.31A.24.24,0,0,0,223.69,152.12Zm5.23,30.08a42.5,42.5,0,0,0,11-7.43,20.69,20.69,0,0,0,1.53-1.58q5.43-7.06,3.17-13.42c-2-5.46-14.89-10.27-14.89-10.27S229.21,174.36,228.92,182.2Zm-2.89.1a8.13,8.13,0,0,0,.28-3.54A8.08,8.08,0,0,0,226,182.3Zm-.54-32.11a.45.45,0,0,1-.12.33q-.3.19-.12.33c.22.2.56.11,1-.25l.45,0a5.65,5.65,0,0,0,2-1,.49.49,0,0,1,.59-.21c0,.21.68.26,2,.14a34.41,34.41,0,0,1,6.28.37h.15c.72.15,1.06.44,1,.87a1.91,1.91,0,0,1,1.67,0,4.42,4.42,0,0,1,1.26.44c.43.23.86.48,1.29.76a4,4,0,0,0,1.11.54,9.29,9.29,0,0,1,4.22,4.41,11.48,11.48,0,0,1,1.36,4.83,17.93,17.93,0,0,1-1.12,7.63,17.61,17.61,0,0,1-2.27,5,3.45,3.45,0,0,0-.5,1.17q-.12.33.18.3.15,0,.42-.36a23.36,23.36,0,0,0,3-4.27,22.57,22.57,0,0,0,1.68-5,41,41,0,0,0,0-6.09,11.75,11.75,0,0,0-2-5.57,12.64,12.64,0,0,0-3.69-3.65,24,24,0,0,0-7.74-3,4.37,4.37,0,0,0-2-.13l-1.07-.06v-.16c-1,.09-2.11.25-3.31.47h-.15l-.14.17c-.09.12-.24.13-.45,0a20.4,20.4,0,0,0-2.1.35,5.86,5.86,0,0,1-1.33.44v.16c.24.3.21.52-.09.65l-.77-.09C225.7,149.75,225.46,149.87,225.49,150.19Zm2.29.91c-.06-.1-.19-.09-.38,0a3.18,3.18,0,0,1-1.64.32c-.22-.09-.31,0-.29.18l.17.15,1-.18a2.16,2.16,0,0,0,1-.34C227.82,151.25,227.84,151.2,227.78,151.1Zm-1.64-10.25a3.63,3.63,0,0,0-1.33.44,1.53,1.53,0,0,0,1.69.17,14.73,14.73,0,0,1,3.28-.79,26.4,26.4,0,0,1,18.66,4.19,18.67,18.67,0,0,1,7.21,7.89,21.64,21.64,0,0,1,2.46,10.89c.06-.43.12-.89.17-1.37a4.9,4.9,0,0,0-.06-1.52,3.09,3.09,0,0,1,0-1.27l.06.63.36.61a28.41,28.41,0,0,0-1.75-7.36,21.42,21.42,0,0,0-7.18-8.45,29.94,29.94,0,0,0-16.61-5,18.05,18.05,0,0,0-3.94.2A18.51,18.51,0,0,1,226.14,140.85Zm2.7,8.58.46-.05a.3.3,0,0,1-.24,0C229,149.28,228.93,149.31,228.84,149.43Zm22.46,49.09c-.43-.17-1.68-.54-3.76-1.09-.41-.07-.58-.27-.51-.59a2.36,2.36,0,0,1-1.21.11,5.76,5.76,0,0,1-1.09-.22l-1.4-.35a26.68,26.68,0,0,1-4.15-.41c-1.44-.19-2.57-.3-3.38-.33a14.94,14.94,0,0,1-2-.14c-.68.39-1.4.77-2.18,1.17a4.08,4.08,0,0,1,1.07.06l.31,0a42.33,42.33,0,0,1,5.11,1,7,7,0,0,1,1.77.24,6.31,6.31,0,0,0,1.55.26,5.28,5.28,0,0,1,1.31.19q4.65.85,4.8.84a1.44,1.44,0,0,0,1.07.06l.48.27c.13.31.3.46.5.44l.15,0a2.06,2.06,0,0,0,1.5-.3.45.45,0,0,1,.31.14l1.57.49c.2,0,.3-.08.29-.19.07-.32.21-.5.41-.51.45.49.72.62.8.4q.44-.19.42-.36a.42.42,0,0,0-.63-.26l-.17-.14h-.15a2.27,2.27,0,0,0-1.37,0,.19.19,0,0,1-.3,0,.71.71,0,0,0-.2-.47.63.63,0,0,0-.47-.11A.55.55,0,0,1,251.3,198.52Zm-.24,9a.87.87,0,0,0,.62.11c-.05-.53-.22-.78-.52-.76a7.92,7.92,0,0,1-1.54-.17q-10.44-2.55-15.94-2.68a2.68,2.68,0,0,0,.78.16,1.17,1.17,0,0,1,.63.19c-.31,0-.45.15-.43.36a1.11,1.11,0,0,1,.83-.08,8.66,8.66,0,0,0,.94.23,2.77,2.77,0,0,0,.84.08l2,.3a9.44,9.44,0,0,0,2,.13,39,39,0,0,1,6.84,1.45l1.57.49A3.57,3.57,0,0,1,251.06,207.5ZM229.21,141a31.22,31.22,0,0,1,4.38-.4,10.34,10.34,0,0,0-2.06,0,6.07,6.07,0,0,1-1.75,0,1.46,1.46,0,0,0-.37.11C229.27,140.85,229.2,140.94,229.21,141Zm10.18,1.46a20.3,20.3,0,0,0-9.32-.42Q238,142.3,239.39,142.5Zm4.25,52.25a40.71,40.71,0,0,0-7.35-.44.68.68,0,0,0-.3.11,2.36,2.36,0,0,1-.36.19.92.92,0,0,0-.36.28l.76-.07a17.42,17.42,0,0,1,1.86.31c1.13.21,2,.34,2.62.39l1.06-.1a4.64,4.64,0,0,0,1.31.2,5.27,5.27,0,0,1,1.47.26,30.17,30.17,0,0,0,4.32.64,2.65,2.65,0,0,1,1.09.22l.14-.17C246.35,195.51,244.26,194.91,243.64,194.75Zm-3.5-41a5.67,5.67,0,0,1,.55.27l.49.28a.89.89,0,0,0,.54.1l-.3,0c.54.38,1.47,1,2.77,2s2.31,4.1,2.68,9.19a14.68,14.68,0,0,0,.4-2.28.14.14,0,0,0-.14.17l0,.16c-.1,0-.11,0,0-.16v-.16c0-.1,0-.45,0-1s-.06-.93-.17-1a2.94,2.94,0,0,1-.3-.77l-.24-.94a2.94,2.94,0,0,0-.3-.77.44.44,0,0,1,.31.13.19.19,0,0,0,.31,0l0-.16c-.1,0-.31-.29-.62-.9a8.61,8.61,0,0,0-.81-1.36,8.46,8.46,0,0,0-2.33-2.19,20.89,20.89,0,0,0-6.32-2.45,1.58,1.58,0,0,1-.54,0,1.5,1.5,0,0,0-.53,0,1.56,1.56,0,0,1-.54,0,1.5,1.5,0,0,0-.53,0,1.24,1.24,0,0,1-.62-.11l-.14.18A15.65,15.65,0,0,1,240.14,153.79Zm3.06.2q5.49,3.33,5.38,12l.12-.33a13.92,13.92,0,0,0,.23-4q-.21-4-2.07-5.88a6.69,6.69,0,0,0-.57-.43,6.69,6.69,0,0,1-.57-.43,13.43,13.43,0,0,0-3.27-2.41,11.83,11.83,0,0,0-6.23-1.51,6.36,6.36,0,0,0-1.69-.16V151A18.78,18.78,0,0,1,243.2,154Zm8-3.7c.4.55.69.92.86,1.12a4.36,4.36,0,0,0,.9.71,3.83,3.83,0,0,1,1,.87q-3.39-5.28-6.1-6.63l0,.16A17.34,17.34,0,0,1,250,148.4a26.19,26.19,0,0,0-14.84-5.67l0,.32.3,0,.45,0a23.55,23.55,0,0,1,8.29,2.27c.21.09,1.12.59,2.72,1.51A15.88,15.88,0,0,1,250.2,149C250.43,149.31,250.75,149.74,251.16,150.29ZM245,199.43a.63.63,0,0,0,.47.11l.17.15,0-.16-.47-.12Zm3.2,6.58a1.63,1.63,0,0,0,.71.25,1.08,1.08,0,0,1,.73.42c.09-.12.16-.15.22-.1s.07,0,.06-.09Zm2.62-40.73a5.64,5.64,0,0,1-.29,1.87c-.23.82-.38,1.34-.46,1.56a18,18,0,0,1,.37-1.79C250.6,166.16,250.72,165.61,250.8,165.28Zm-1-10.31a1.71,1.71,0,0,1-.36-.61l-.33-.29.33.29A1.71,1.71,0,0,0,249.84,155Zm4.47,43.19a2,2,0,0,0-.39,0s-.07.06-.06.16.07.16.17.15a2,2,0,0,1,.95.39c0,.21.07.21.15,0l0-.16c0-.11-.09-.21-.25-.3A1.88,1.88,0,0,0,254.31,198.16Zm-2.24-32.28a4.36,4.36,0,0,1,.1-.56,5.29,5.29,0,0,0-.08.8Zm4.13,33c-.18.23-.22.39-.11.49a.63.63,0,0,0,.47.11.48.48,0,0,1,.12-.33.14.14,0,0,1,.14-.17.48.48,0,0,1-.18-.31l-.05-.47A5.58,5.58,0,0,1,256.2,198.87Zm1.1-1.23c-.32-.18-.52-.11-.58.22s.07.28.17.22.17-.07.23,0,0,.13-.06.24l.41-.51C257.46,197.68,257.4,197.63,257.3,197.64Zm-1.4-31.55a15.7,15.7,0,0,0,.13-6.73,22.45,22.45,0,0,1,0,3.52A22.24,22.24,0,0,0,255.9,166.09Z"/><path class="cls-1" d="M312.18,144.81c.22.18.33.31.34.41s-.32.28-.73.22a1.11,1.11,0,0,0-.43.19l-.13.16c.11.09.1.21,0,.37s-.15.24-.05.23.22.23,0,.44a2.09,2.09,0,0,1-1.6.45c-.1,0-.14,0-.14.09l0,.22c-.49,0-.79,0-.91-.21l-.44,0H308c-.17.31-.37.33-.59.06l-.59,0h-.15q-10.1.34-18.39.82a1.3,1.3,0,0,0,.11.36.35.35,0,0,1,0,.38.83.83,0,0,0-.8.22,2.61,2.61,0,0,0-.55,1.24,6.55,6.55,0,0,0-.2,1.06.33.33,0,0,1-.11-.36q.06-.22-.09-.21-2.22,8.24-4.26,18.26a9.82,9.82,0,0,0,1.31-.27,11.51,11.51,0,0,0,1.25-.27,39.3,39.3,0,0,1,3.73-.64l4.87-.45a13.14,13.14,0,0,0,1.89-.48,7.87,7.87,0,0,1,1.61-.3,7.1,7.1,0,0,0,1.61-.29c.2,0,.41.11.64.38a2.24,2.24,0,0,0,.62.32,1.09,1.09,0,0,1,.65.61,4.4,4.4,0,0,1,.74,1.57l.17.13a1,1,0,0,1,.09,1,1.84,1.84,0,0,0,.1,1,2.25,2.25,0,0,1,.23.87l.08.88c.26.68.25,1.12,0,1.35a.3.3,0,0,0,0,.37c.06.15.14.21.24.2.3.07.32.22,0,.45-.1,0,0,.15.19.42l-.15,0c-.27.32-.24.57.07.74a.49.49,0,0,1,.34.41.61.61,0,0,1-.57.35l-.28.18-.28.17a.27.27,0,0,1,0,.37c-.08.16-.07.28,0,.37s.22.23,0,.44a2.17,2.17,0,0,1-1.29.57c-.1,0-.14.11-.12.31-.38.14-.64.11-.75-.08s-.26-.13-.43.19-.47.29-.6-.09c-.12-.19-.27-.18-.45,0l-.13.16a1.24,1.24,0,0,0-.21-.65c-.11-.14-.31-.17-.6-.1a4.48,4.48,0,0,1-.59.13.14.14,0,0,1,.14-.16.13.13,0,0,0,.13-.16q-6.47.9-12.33,1.89v-.15a2.45,2.45,0,0,0,1.52-.44,4,4,0,0,1,1.36-.57,2.65,2.65,0,0,0-1.8-.13,1.65,1.65,0,0,1,.72-.22,4.38,4.38,0,0,0,.88-.15,2.7,2.7,0,0,0,.72-.29L284,180a.13.13,0,0,0,.16.13h-.15a.57.57,0,0,1-.51.13.55.55,0,0,0-.51.12,1.16,1.16,0,0,1-.78.37l-.81.07a.26.26,0,0,1,.05-.22.33.33,0,0,0,.05-.23,5.22,5.22,0,0,1-1.77.16l-.74.07-.22.77c-.13-.29-.24-.43-.34-.42v.15a2.33,2.33,0,0,1-.09.6,5.5,5.5,0,0,1,2.63-.54,17.3,17.3,0,0,0-2.76.7,22.34,22.34,0,0,1-.64,2.74c-.06.41-.13.81-.19,1.21s-.14.83-.25,1.29l-.27,1.14c-.87,4.55-1.29,6.87-1.28,7-.08.3-.16.76-.25,1.36s-.18,1.06-.25,1.36,0,.45.19.43a.7.7,0,0,0,.69-.65,5.26,5.26,0,0,1,.09-1.43c.09-.55.22-1.11.36-1.67s.25-1,.32-1.44a3.75,3.75,0,0,1,.11-1.13c.11-.46.22-.91.32-1.37a3.5,3.5,0,0,0,.12-1.13l0,.3a.13.13,0,0,0,.13-.16.14.14,0,0,1,.14-.17c-.12.91-.39,2.5-.83,4.77a28.41,28.41,0,0,0-.62,5.34c-.09,0-.11-.13,0-.44a.59.59,0,0,0-.24.62c.49-.14.78-.22.87-.23l.6-.06.51,0a2.39,2.39,0,0,0,.51-.13,2.38,2.38,0,0,1,.59-.12,14.15,14.15,0,0,0,2.62-.55c.5,0,1.62-.24,3.37-.61a5.75,5.75,0,0,1,1.23-.41,10.41,10.41,0,0,1,1.39-.28,15,15,0,0,1,2.49-.38l5.17-.48a15.52,15.52,0,0,0,2-.48,7.22,7.22,0,0,1,1.68-.31,5.54,5.54,0,0,0,1.54-.29.89.89,0,0,1,.78.37,3.19,3.19,0,0,0,.7.38,1.63,1.63,0,0,1,.72.53,5.28,5.28,0,0,1,.73,1.42l.16.14a1.24,1.24,0,0,1,.25,1,1.27,1.27,0,0,0,.08.88c0,.2.07.5.15.88a7.82,7.82,0,0,1,.16.88c.25.57.24,1,0,1.2l0,.36c0,.15.11.22.31.2s.22.18,0,.29-.18.22,0,.3v.15c-.27.32-.25.52.06.59s.27.32.18.43-.12.31-.41.33a1.3,1.3,0,0,0-.43.19l-.13.16a.28.28,0,0,1,0,.37c-.09.16-.08.23,0,.22s.17.24-.11.46a1.8,1.8,0,0,1-1.27.71.14.14,0,0,1-.13.17c-.39.13-.64.13-.75,0s-.26-.1-.43.11-.47.35-.59.06l-.45,0-.13.16-.16-.13q-7.55.55-10.34,1c-2.13.49-3.25.75-3.35.76q-13.53,3.34-15.94,4.75c-1.42.73-2.74.35-4-1.12a.42.42,0,0,1-.31-.12.42.42,0,0,0-.31-.12c-.1,0-.16-.08-.17-.28a.4.4,0,0,1,.28-.18,1.5,1.5,0,0,1-.34-.41l-.31-.12H265l-.17-.13a1.37,1.37,0,0,0-.27-.5,8.59,8.59,0,0,1-.62-1.06,7.74,7.74,0,0,1-.59-1.58,10.4,10.4,0,0,1-.28-2.21,12,12,0,0,1,.26-2.85c.08-1.2.27-2.7.55-4.52s.58-3.62.9-5.44.64-3.53.94-5.15.55-2.93.75-3.94l.31-1.52-.59.06a15.29,15.29,0,0,1-.45-1.6v-.15l-.32-.26a11.58,11.58,0,0,0-.38-1.61,9.71,9.71,0,0,1-.38-1.75l.16.13-.06-.59c-.2-.07-.27-.27-.2-.57l-.05-.59c-.2,0-.24-.38-.11-1.18,0-.1,0-.15.06-.16s.08.05.08.14a.3.3,0,0,0,.1.22.32.32,0,0,1,.09.21v-.15l-.08-.88,0-.15a.24.24,0,0,1,.13-.23c.09-.06.15,0,.17.2s.07,0,.2-.24a10.65,10.65,0,0,1,.51-.94c.21-.37.45-.73.71-1.11a2.56,2.56,0,0,1,1.12-.85,2.52,2.52,0,0,1,1.32-.19l.14,0a17.62,17.62,0,0,1,.34-2.85c.27-1.32.62-2.84,1.06-4.57q.3-1.51,1.1-4.94c.54-2.29.91-3.83,1.14-4.65q.07-.75.21-2.55h-.15v.15l-.12.31a.6.6,0,0,1-.62-.24l0-.29a1.17,1.17,0,0,0-.46-.11.47.47,0,0,0-.6-.09,1.05,1.05,0,0,0-.43.19,1.3,1.3,0,0,1-.43.18,1.48,1.48,0,0,1-.15-.8c0-.25-.17-.46-.58-.62-.21-.08-.31-.17-.32-.27l-.19-.42a5.09,5.09,0,0,1-1.13-.94c-1.08-.89-1.17-3.47-.27-7.72-.11-.09-.07-.24.11-.45,2.92-.58,4.43-.86,4.53-.87l.59-.06a.86.86,0,0,0,.58-.2.6.6,0,0,1,.43-.19,2.42,2.42,0,0,0,.58-.13,2.51,2.51,0,0,1,.44-.11,22.32,22.32,0,0,1,4.38-.86,6.25,6.25,0,0,0,.66-.13,6.63,6.63,0,0,1,.81-.15q.58-.06,1.47-.21c.58-.11.92-.16,1-.17,1.75-.36,2.83-.56,3.22-.6l3.81-.65a11.21,11.21,0,0,0,1.46-.29,11.44,11.44,0,0,1,1.61-.29l3-.28c.39,0,1.26-.06,2.59-.09s2.5-.08,3.49-.18q.44,0,2.34-.36c.4,0,1-.07,1.93-.11s1.53-.06,1.93-.1a.89.89,0,0,1,.78.37,4.46,4.46,0,0,0,.78.45,2,2,0,0,1,.8.6,16.5,16.5,0,0,1,.89,1.55v.15a1,1,0,0,1,.26,1.17,1,1,0,0,0-.06.9,1.79,1.79,0,0,0,.11.43,2.13,2.13,0,0,1,.12.44l0,.44,0,.44c.16.68.1,1.09-.19,1.21l.21.58c.3.07.36.17.17.28s-.07.36,0,.44l-.13.16C311.85,144.44,311.87,144.64,312.18,144.81Zm-40,56.71.12-.31a1.8,1.8,0,0,0-.73.22l-.14,0,0,.29a4.74,4.74,0,0,0,.76.08Zm-.79-3.65a4.31,4.31,0,0,0,.34,2.06,1.22,1.22,0,0,1-.1.45l0,.3h.15l.44,0,.45,0a1.14,1.14,0,0,1,.08-.75,22.51,22.51,0,0,0,.67-3.19,20.13,20.13,0,0,1,.44-2.42c.14-.61.31-.92.51-.94a3.31,3.31,0,0,1,0-1.64,5.7,5.7,0,0,1,.29-1.66,13,13,0,0,0,.41-2c0-.69.35-2.66.94-5.89-.87.18-1.46.28-1.76.31a1.36,1.36,0,0,1,0,.38,1,1,0,0,0,0,.37c-.08.21-.35,1.62-.8,4.24a12.51,12.51,0,0,0-.36,1.75c-.09.66-.16,1.23-.21,1.73s-.12,1.08-.21,1.73a11.93,11.93,0,0,1-.36,1.75,3.26,3.26,0,0,0-.15,1.65l-.21.91c-.3-.07-.43.14-.39.64C271.54,197.76,271.5,197.87,271.4,197.87Zm.11-6.85c-.05.5-.07.8-.07.89l.58-.2.08-.75-.06-.66a1,1,0,0,1,.08-.68,3.41,3.41,0,0,0,.34-1.22,4.39,4.39,0,0,1,.2-1.06c.07-.31,0-.45-.19-.43a.35.35,0,0,0-.34.33,2,2,0,0,0,0,.59l-.47,3Zm2.33,17a4.61,4.61,0,0,0-.86.38.65.65,0,0,1,.46.1C273.65,208.73,273.78,208.57,273.84,208.07Zm5.5-1.7a16.41,16.41,0,0,1-1.59.52,11.63,11.63,0,0,1-1.9.4l-.3,0-.13.17h-.15a.29.29,0,0,0-.21.09c-.05.06-.17.09-.36.11v.15c-.09.11-.24.12-.44,0s-.19.12-.27.32-.07.36,0,.45a1.11,1.11,0,0,1,.46.1.41.41,0,0,0,.31.12c.09,0,.23-.12.41-.33l.19.43.89-.09a.89.89,0,0,1,.6.1l.15,0a.61.61,0,0,1,.56-.35c.2,0,.49-.07.88-.15a5.23,5.23,0,0,0,1-.32q.58-.19,2.91-.72a10.93,10.93,0,0,0,2.47-.67,10.09,10.09,0,0,0,1.83-.4,11,11,0,0,1,1.38-.35,7.65,7.65,0,0,1,.71-.36,7.3,7.3,0,0,1,.79-.3,3,3,0,0,1,.66-.13,1.72,1.72,0,0,0,.56-.35.19.19,0,0,0,0-.3c0-.1-.11-.14-.31-.12l-1.91.18c-1.18.21-1.86.32-2.06.34a10.93,10.93,0,0,1-2.47.68,3,3,0,0,0-1.32.12,2.34,2.34,0,0,1-1.19.11C281.43,205.88,280.7,206,279.34,206.37Zm4,3.2c.08-.11.08-.16,0-.15v-.15a8,8,0,0,1-1.76.32,4.2,4.2,0,0,0-.94.23,6.66,6.66,0,0,1-.8.23l-3.5.77a2.51,2.51,0,0,0-.44.11,1.86,1.86,0,0,1-.51.12l-.44,0c-.15,0-.17.11-.05.3l0,.14Q278.55,210.76,283.36,209.57ZM273,183l-.1.6c-.07.31,0,.5.21.58a2,2,0,0,1,0-.45,5.06,5.06,0,0,1,.1-.53,1.44,1.44,0,0,0,0-.38C273.08,182.83,273,182.89,273,183Zm3.47,5.33c.13-.7.35-1.89.64-3.56s.49-2.95.61-3.85l-.3,0-.59.05a1.31,1.31,0,0,1-.1.46l0,.3a1.66,1.66,0,0,0,.73-.22v.15h-.15c.1,0,.16,0,.16.13s-.38.09-.87.23a9.09,9.09,0,0,0-.26,2,5.82,5.82,0,0,1-.17,1.36c-.07.4-.12.85-.18,1.35a12,12,0,0,1-.23,1.44c-.11.46-.2.89-.26,1.29s-.45,2.57-.91,6.19a2.73,2.73,0,0,1,0,.52,3.48,3.48,0,0,1-.09.61,1.74,1.74,0,0,0,0,.52h.15q.21-1.07.63-2.82c.29-1.16.54-2.28.74-3.34S276.35,189.13,276.47,188.32ZM274,182.6l-.44,0-.13.16a6.4,6.4,0,0,0-.15,1.65A2.54,2.54,0,0,0,274,182.6Zm-3.71-32c0,.1.22.28.65.54l-.18-.28C270.54,150.71,270.39,150.62,270.29,150.63Zm2.89,31.15c0,.29.14.43.34.41v.15a1.11,1.11,0,0,0,.43-.19l-.07-.74-.59.06C273.2,181.48,273.16,181.58,273.18,181.78Zm-.29-6.38H273l0-.15-.14,0Zm1.07,5.12a.59.59,0,0,1-.43.18v.15l.45,0Zm-1.15-9.13.05.44H273a1.17,1.17,0,0,0,.11-.46Zm.76,8.12.59-.06,0-.14c.16-.41.14-.66-.06-.74s-.24.12-.39.63A.42.42,0,0,1,273.57,179.51Zm-.09-5.8-.29.18,0,.14.29,0v-.3Zm2.34,26.88,0,.3a.13.13,0,0,1-.13.16c4.49-.82,7.51-1.39,9.07-1.74a.86.86,0,0,0-.61-.09l-.59.05c.19-.11.28-.22.27-.32a2,2,0,0,1-1,.17,2.17,2.17,0,0,0-1,.17,10.43,10.43,0,0,0-1,.17l-1.17.26a8.41,8.41,0,0,0-1.16.33C277.77,200.21,276.9,200.39,275.82,200.59Zm-2.33-31.5-.3.78a1.72,1.72,0,0,0-.15.76l.15,0C273.32,169.91,273.42,169.4,273.49,169.09Zm.08,4,.13-.16a.38.38,0,0,0-.28.17Zm1.06,8.24a.89.89,0,0,0-.19.39,1.3,1.3,0,0,0,0,.37,3.56,3.56,0,0,0,1.31-.27l.3,0h.14a1.44,1.44,0,0,1,0-.38,1,1,0,0,0,0-.37ZM274,171.28h-.14l-.12.31v.15h.15A1.11,1.11,0,0,0,274,171.28Zm1.55,9.39.81-.08a1,1,0,0,1,0-.37,1.44,1.44,0,0,0,0-.38l-1.6.44a1.27,1.27,0,0,1-.1.46Zm-1.28-11.35a5.68,5.68,0,0,0-.33,1.22h.14A4.48,4.48,0,0,0,274.26,169.32Zm.67,5.6h-.15l-.12.31.3,0,.12-.31Zm1.13,4.21.59-.06a1.13,1.13,0,0,1,.11-.45,4.75,4.75,0,0,1,.19-1.21l-1,.09a1.11,1.11,0,0,1-.43.19l-.1.46a5.6,5.6,0,0,0-.23.77l-.11.45a.27.27,0,0,1,.33.27A1,1,0,0,1,276.06,179.13ZM275,165.68a3.71,3.71,0,0,0-.36.93,5.75,5.75,0,0,0-.14.83c0,.25,0,.53-.08.83a2.62,2.62,0,0,1-.15.76A17.78,17.78,0,0,0,275,165.68Zm.27,7.72a.42.42,0,0,1-.12.31A.42.42,0,0,0,275.23,173.4Zm1.89,2.65-1.17.26h-.15a1.51,1.51,0,0,1-.24.62l.45,0c0-.1.05-.18.2-.24a1.3,1.3,0,0,1,.36-.11l.59-.05Zm-2.43-35.8c1.35-.33,2.91-.64,4.67-1l5.5-.95c1.9-.33,3.54-.61,4.91-.83a1.78,1.78,0,0,0-.83-.07l-.66.06c.28-.13.42-.24.41-.34a3.12,3.12,0,0,1-1.25.19c-.54,0-1,0-1.26,0a7.75,7.75,0,0,1-1.75.39,16,16,0,0,0-2,.41q-1.61.45-6.58,1.36a3.75,3.75,0,0,0-1.46.28,2.1,2.1,0,0,1-1.15.41,1.44,1.44,0,0,0-.58.2c.23.38.49.45.76.23A3.59,3.59,0,0,1,274.69,140.25Zm2.75,34.43-1.48.14,0,.3C276.57,175,277.05,174.82,277.44,174.68Zm-1-1.54a.43.43,0,0,1-.28.18l0,.29h.14l.15,0Zm1.42,7.31a2,2,0,0,1,0-.37,1.09,1.09,0,0,0,0-.38l-.59.06h-.14a.89.89,0,0,0-.19.39,1.09,1.09,0,0,0,0,.38l.44,0Zm-.1-7.58a3.92,3.92,0,0,1-1.17.26.33.33,0,0,1-.05.23.26.26,0,0,0-.06.22,1.15,1.15,0,0,0,.73-.21l.44,0A1.38,1.38,0,0,0,277.72,172.87Zm1.33,9.55c-.36,1.53-.71,3.59-1.06,6.21A20.64,20.64,0,0,1,279.05,182.42Zm-.94-11.67v-.15l-.3,0-.44,0a1.11,1.11,0,0,0-.43.19l-.29,0a.58.58,0,0,0-.11.45l.74-.07.74-.06,0-.22Q278,170.92,278.11,170.75ZM278,179a2,2,0,0,0,.22-.84,4.71,4.71,0,0,0,.06-1l-.59.05,0,.3c-.08.21-.23.71-.46,1.53l.6-.06ZM277.9,170l.29,0c.21-2,.35-3.21.41-3.61a1.82,1.82,0,0,0-.09-1c0-.19-.13-.23-.31-.12l-.11.46c-.46,1.43-.85,2.66-1.15,3.68a2.39,2.39,0,0,1-.08.75Zm-1.74-29.91a6.54,6.54,0,0,0-.8.15c-.34.08-.57.08-.67,0l-.29.17Zm1.25,32.64.29,0a.14.14,0,0,1,.14-.16l-.45,0Zm.47,3.53v0Zm-1.62-35.14-.44.05-.89.08.59-.06Zm2.88,39a20.77,20.77,0,0,0,5.93-1.89l-.15,0a6.85,6.85,0,0,0-1,.17,1.29,1.29,0,0,0-.71.29l-3.25.3c0,.1-.08.18-.28.25a1.79,1.79,0,0,1-.43.11,1.44,1.44,0,0,1,0,.38A1.06,1.06,0,0,0,279.14,180.18Zm9.57-4.31a16.43,16.43,0,0,0-1.93,0,6.34,6.34,0,0,0-1.9.33,4.65,4.65,0,0,1-2.5.38l-1.18.11-1.33.12-.29,0a2,2,0,0,0-.18,1.35.41.41,0,0,1-.12.31l.74-.07.74-.07c1.37-.22,2.15-.34,2.35-.36a20.32,20.32,0,0,1,3.2-.75,6.25,6.25,0,0,0,.94-.31,4.69,4.69,0,0,1,1.24-.33c.09,0,.23-.12.41-.34a.19.19,0,0,0,0-.3A.14.14,0,0,0,288.71,175.87Zm-8.8-.23-.44.05,0,.29c.1,0,.15-.06.14-.16l.13-.16v.15l-.13.16.74-.07a1.66,1.66,0,0,0-.73.22,1.07,1.07,0,0,1-.1.45c.2.08.64-.06,1.3-.42a3.48,3.48,0,0,1,.86-.37.3.3,0,0,0,.43-.19c0-.2-.18-.29-.47-.26a2.79,2.79,0,0,0-.58.2.44.44,0,0,0-.12.31l-.15,0,0-.3Zm.15-3.14c.1,0,.15-.06.14-.16Zm-.3-4.88a9.72,9.72,0,0,0,.54-3.77A10.52,10.52,0,0,0,279.76,167.62Zm1,2.44h-.15l-.08.76.15,0a1,1,0,0,1,0-.37A1.44,1.44,0,0,0,280.73,170.06Zm.14-.91a2.35,2.35,0,0,0,0-.59l-.2,1.06A.93.93,0,0,0,280.87,169.15Zm.45.86a1.51,1.51,0,0,0-.24.61l.3,0Zm1.33-.13-.44,0a2.17,2.17,0,0,0-.1.61,4.16,4.16,0,0,0,.59-.13,3.53,3.53,0,0,1,.73-.14c-.11-.09-.31-.1-.6,0s-.49.07-.6,0a.63.63,0,0,0,.29-.1A.25.25,0,0,0,282.65,169.88Zm1.68,2.08a6.72,6.72,0,0,0-2.07.19A3.55,3.55,0,0,0,284.33,172Zm.32,3.39a4.83,4.83,0,0,0-1.91.33l1-.09C284.24,175.54,284.56,175.46,284.65,175.35Zm3.94,32.84a1.46,1.46,0,0,0,1-.39l-3.63.93v.15l.15,0a7.44,7.44,0,0,0,1.32-.27A4.7,4.7,0,0,0,288.59,208.19Zm-5.73-34.46a4,4,0,0,0,1.94.05,3,3,0,0,0,1.59-.52,8.31,8.31,0,0,0-1.1.17,12,12,0,0,1-1.32.2Zm3.37,31.55a1,1,0,0,1,.66-.21l.66-.06A3.57,3.57,0,0,1,286.23,205.28Zm-.45-29a3.57,3.57,0,0,1-1.32.27,1.66,1.66,0,0,1,.73-.21Zm.69-3.79a3.51,3.51,0,0,0-1.91.33l1-.09A2.27,2.27,0,0,0,286.47,172.5Zm1.84.58c-.12-.19-.42-.21-.9-.07a6.63,6.63,0,0,1-.88.23A5.09,5.09,0,0,0,288.31,173.08Zm1.6,4.46A3,3,0,0,0,288,178,3.69,3.69,0,0,0,289.91,177.54Zm4.29-30.77a3,3,0,0,0-2.11-.25,5.13,5.13,0,0,0,.81-.15,9,9,0,0,1,1-.17,3.15,3.15,0,0,0,.95-.23c-1.48.13-2.9.32-4.27.54l0,.15h.14l-.13.16-.66.06c-.35,0-.57.1-.65.21l-.3,0a.83.83,0,0,1-.24.61l3.25-.3A20.43,20.43,0,0,1,294.2,146.77Zm-4.61-1.5a1,1,0,0,1-.38.63c1-.29,1.78-.56,2.45-.83l-.16-.13Zm7.67-.86-1.48.13-.58.21A5.24,5.24,0,0,0,297.26,144.41Z"/><path class="cls-1" d="M355.21,175.91c.54,3.88.53,6.11,0,6.71,1.77,11.2,1.87,13.54,2,15.49s-.13,3.3-.89,4a.48.48,0,0,1-.29.2c-.47.48-2.23.9-5.28,1.28s-4.72.32-5-.17a8.54,8.54,0,0,1-.71-2.16c-.17-.86.51,2.36.29,1.19s-.6-3.32-1.14-6.47-1.14-6.66-1.78-10.52c-.3.14-1,.45-2.12.92s-2,.79-2.6,1l-.17-.13a4,4,0,0,0,1.37-.5c-.83.22-2.16.66-4,1.33s-3.06,1.1-3.68,1.29a2.1,2.1,0,0,0-.68.25,3.94,3.94,0,0,1-.76.34,8.85,8.85,0,0,0-.83.35,5.2,5.2,0,0,0,1-.61,7.28,7.28,0,0,1-1.83.72l.16,0a.47.47,0,0,0-.3.2q-3.12,11-3.86,13.8l-.28,1.44a1.54,1.54,0,0,0-.23.66L321,216.6a4.27,4.27,0,0,1-2.72,2.33,34.92,34.92,0,0,1-5.78,1.19,5.06,5.06,0,0,1-4.42-1.27,2.76,2.76,0,0,1-.75-2.75c1.93-7,11.29-38.6,13.12-43.95a1.89,1.89,0,0,1,.21-.81q9-26.85,11-33.21c1.28-3.82,2.56-6.23,3.81-7.24l0-.15.15,0c.11,0,.16-.08.14-.18A13.81,13.81,0,0,1,339,130a18.73,18.73,0,0,1,4.8-.13,17.54,17.54,0,0,1,3.26.33q1.86.67,2.89,3.5a30.29,30.29,0,0,0-.17,4.55c0,.63,0,1.28-.05,2s0,1.38.05,2.1.11,1.57.2,2.55.18,1.92.31,2.84l3.13,22.51a.47.47,0,0,1,.33.11,4.6,4.6,0,0,1,.61,1.47A25.8,25.8,0,0,1,355.21,175.91Zm-29.76-1.65a27.44,27.44,0,0,1,1.71-5.38,24,24,0,0,0,1.16-2.89c.42-1.26.76-2.16,1-2.72a9.17,9.17,0,0,0,.5-1.16c.16-.44.3-.82.41-1.15s.3-.81.48-1.33l.65-1.7c.19-.49.42-1.09.66-1.82.35-1,.68-2,1-2.8s.64-1.62,1-2.4a3.94,3.94,0,0,0,.74-1.81l.37-.84c.23.08.39.05.48-.06a3.52,3.52,0,0,0,.36-1,7.26,7.26,0,0,0,.35-2.23,1.3,1.3,0,0,1,.07-.64l.14-.17-.19-1.38,0,.15-.16,0a10.07,10.07,0,0,1-1.05,1.87q-.66,1.18-2.62,6a3.63,3.63,0,0,1-.37.83l-8.74,24.47a1.06,1.06,0,0,1-.1.48,1.16,1.16,0,0,0-.09.48,8.59,8.59,0,0,0-.54,2,10.75,10.75,0,0,1-.66,2.35,6.78,6.78,0,0,0,1.09-.46c.48-1.21.79-2,.9-2.31s.28-.79.47-1.39.38-1.15.59-1.64A5.49,5.49,0,0,0,325.45,174.26Zm2.34-4.38a6.07,6.07,0,0,1-.64,1.89,8.06,8.06,0,0,0-.73,2.36A26.88,26.88,0,0,0,327.79,169.88Zm1.29,18.71q3.36-1.72,9.57-4.3l-.16,0c-.31.14-.59.26-.85.35a9.19,9.19,0,0,0-.86.35,8.09,8.09,0,0,0-.76.42c-2.7,1-4.16,1.51-4.38,1.54a.44.44,0,0,1-.3.2l-.6.4a4.89,4.89,0,0,0-1.54.68A.44.44,0,0,0,329.08,188.59Zm11-5.59q.3-.19,1.14-.63l1.31-.65-.06-.38-.05-.38a13.89,13.89,0,0,0-2.05.59,21.87,21.87,0,0,0-2.65,1,15.67,15.67,0,0,1-3.25,1.39,9.44,9.44,0,0,0-1.74.48l-1.71.63a3.78,3.78,0,0,0-1.09.46c-.22.76-.4,1.41-.55,1.95a21,21,0,0,1,3.25-1.39,31.12,31.12,0,0,0,3.25-1.39,21.5,21.5,0,0,0,2.1-.84C338.89,183.46,339.59,183.18,340.11,183Zm-9.43-20.7c-.08.22-.16.47-.23.74a4.81,4.81,0,0,1-.3.82c-.12.28-.22.52-.3.74a11,11,0,0,0,.6-2.74,10,10,0,0,0-1.3,3.62,10.52,10.52,0,0,1-.53,2.1c-.25.56-.26.87,0,.94s.24-.24.4-.68l1.42-3.94C330.83,163,330.92,162.48,330.68,162.3Zm8.68-2.38-.1-.76-.1-.69-.06-.46-.14.18-6.84,19.21a6.6,6.6,0,0,0,1.48-.52,6.64,6.64,0,0,1,1.49-.52,11.33,11.33,0,0,1,1.3-.65,12.82,12.82,0,0,0,1.31-.65c.52-.17,1.61-.54,3.29-1.08l.32,0-1.85-13.33Zm-.63-3.42-.06-.38-.05-.38q-4.25,10.74-6.55,17.76a4.5,4.5,0,0,0,.71-1.35,4.53,4.53,0,0,1,.44-1l-.12.33q-.12.33.06.45a11.8,11.8,0,0,1,.82-2.37c.42-.94.71-1.58.88-1.92q.34-1.14,2.35-6.72C337.51,160,338,158.47,338.73,156.5Zm-6.89,2.36c-.07.33,0,.48.06.46a.51.51,0,0,0,.44-.37l.12-.33.12-.33,1.18-3.28.14-.18a4,4,0,0,0,.36-1l-.65.08-.37.84a3,3,0,0,1-.08.63,1.85,1.85,0,0,1-.21.81,9.07,9.07,0,0,0-.55,1.4A4.27,4.27,0,0,1,331.84,158.86Zm13,3.51.06.46a17.23,17.23,0,0,0-.49-3.52Zm1.13,8.12a16,16,0,0,0-.21-3.88,11.61,11.61,0,0,0-.82-3.47ZM348.53,187c.34,1.62.64,3,.92,4.24q-.72-5.21-1.22-7.63l-.16,0Zm2-1.21a8.9,8.9,0,0,0-.29-.9,5.4,5.4,0,0,0-.17-.6,3.61,3.61,0,0,1-.18-.75l-.07-.46-.32,0,.26,1.84,0,.31.11.76A2.63,2.63,0,0,1,350.5,185.77Zm-3.14-19.07a19.9,19.9,0,0,0,.73,4.11,7.19,7.19,0,0,1-.37-2.06A7.21,7.21,0,0,0,347.36,166.7Zm.34-4.58a23.22,23.22,0,0,0,.58,4.14,28.56,28.56,0,0,1,.86,5l0,.15a4.14,4.14,0,0,0,.64-.17,2.62,2.62,0,0,0,.77-.34l-.09-.61-.08-.61L349.14,163a8.76,8.76,0,0,0-.35-1.36q-.29-.9-.48-1.65a5,5,0,0,1-.13-1.54,1.41,1.41,0,0,0-.43-.72c-.13-.19-.25-.23-.34-.11s-.14.17-.1.48C347.43,159.77,347.56,161.1,347.7,162.12Zm5.19,25.5c0-.73.11-1.16.31-1.29-.25-.17-.42-.67-.54-1.49l-.34-2.45-.79.19a8.86,8.86,0,0,1-1,.21q.74,4.11.93,5.49a5,5,0,0,0,.4,1.67l.12.91c-.32,0-.38.42-.17,1.12a6,6,0,0,0,.76,1.92.65.65,0,0,1,.23.44c0,.1,0,.57,0,1.4a18.26,18.26,0,0,0,.53-4.44l-.16-1.15-.19-1.38Zm-4-32.07,0-.15a10.58,10.58,0,0,0,.61,3.19A26.08,26.08,0,0,1,348.92,155.55Zm2,13.15-.2-1.45-.2-1.46,0,.15A11.21,11.21,0,0,0,350.91,168.7Z"/><path class="cls-1" d="M413.54,133.06q.63,2-8.07,2.93-5.45.66-12.34,1.77-2.75,12.11-5.06,25.71l-.29,0a6.67,6.67,0,0,0,.4-2.06c0-.73,0-1.49,0-2.26a8.78,8.78,0,0,1,.18-2.12,8,8,0,0,0-1.13,3.84,10.89,10.89,0,0,1,.29-2.44,10.38,10.38,0,0,0,.27-2.75l-1.35,7.91c.11.1.2,0,.28-.18v.16a7.91,7.91,0,0,0-.26,1.19,6.49,6.49,0,0,0-.1,1.33,6.42,6.42,0,0,1-.19,2,7,7,0,0,0-.23,1.5c-.1,0-2.63,18.11-2.67,17.7s.17-1.34.37-2.45.31-1.92.36-2.45a8.19,8.19,0,0,1,.19-2c.17-.9.28-1.56.34-2l0,.3c0,.11.05,0,.12-.32a43.36,43.36,0,0,1-.56,5.27c-.36,2.48-1,5.62-.93,5.93s-3.72,14.53-3.72,14.53-.14.06-.13.17a.49.49,0,0,1-.41.35c-.2,0-.76.09-1.69.23a4.51,4.51,0,0,1-1.71.08.62.62,0,0,0,.35-.26.66.66,0,0,0,.18-.41l-.73.07-.12.32c-.07.32-.22.33-.45,0l-.59.06a1.12,1.12,0,0,1-1.06-.22,8.69,8.69,0,0,1-2.91-2.53c-.09.11-.21-.08-.36-.59l-.21-.76h-.15l-.17-.14,0-.23s0-.08.14-.09c-.83-2.62,2.72-23.1,6.11-43.26a2.61,2.61,0,0,1,.09-.63,2.61,2.61,0,0,0,.09-.63q.17-1.43.87-5.07a18.29,18.29,0,0,0,.4-2.06c.79-4.34,1.32-7.24,1.58-8.72l-.37,0-.44.05a.49.49,0,0,0-.36.18,2.92,2.92,0,0,1,1.15-.41l.21-1a8.73,8.73,0,0,0-1.31.28c-3.23.51-5,.77-5.21.8a4.76,4.76,0,0,0-1,.24,4.79,4.79,0,0,1-.95.25c-.2,0-.28.13-.26.34.23.39.44.53.63.4a11.91,11.91,0,0,1,1.68-.39,9,9,0,0,0,1.67-.38q.45,0,1.32-.21a5.64,5.64,0,0,0,1.31-.35l-.28.18c0,.1.11.15.31.13-.68.17-1.85.4-3.51.71A12.25,12.25,0,0,0,369.4,142c0-.1.08-.21.27-.34-.11-.09-.31-.07-.59.06a5.67,5.67,0,0,0-.94.32,3.88,3.88,0,0,0-1.2.66l-.45,0a1.24,1.24,0,0,0-.57.21l-.45,0a5.21,5.21,0,0,1-1,.33,7.44,7.44,0,0,1-.88.16,3.65,3.65,0,0,0-.73.14c-.29.08-.53.15-.72.22a2,2,0,0,1-.58.14l-.45,0a1.08,1.08,0,0,1-.37,0,1.64,1.64,0,0,1-.39-.12l-.31-.12a1.31,1.31,0,0,1-.31-.21c-.77-1.8-1.34-3.15-1.72-4a5,5,0,0,0-.56-1.19,2.57,2.57,0,0,0-.22-.76l0-.31,0-.15a1.44,1.44,0,0,1-.19-.45,1.53,1.53,0,0,1-.09-.93c-.51-2.34,0-4,1.48-5q-.17-.13.42-.27t1.38-.36a8.92,8.92,0,0,1,1.68-.31q.12-.33,20.07-3.58c.18-.22,13.07-2.17,14-2.31l2.65-.4,2.34-.38,1.4-.21a7.11,7.11,0,0,1,2.25-.59,16.52,16.52,0,0,0,2.27-.45.42.42,0,0,1,.43-.12,3.49,3.49,0,0,1,1,.53,5.48,5.48,0,0,1,1.41,1.51,24.66,24.66,0,0,1,1.73,3.42A60.15,60.15,0,0,1,413.54,133.06Zm-53.24.74c.29-.13.32-.29.11-.48l-.83.7Zm.68-.69V133a1,1,0,0,0-.43.19l.16.14.33.28C361.11,133.46,361.1,133.31,361,133.11Zm7.35,5.39,4.11-.69c.39,0,.65.05.77.24l.29,0a1.2,1.2,0,0,1,.86-.39,1.35,1.35,0,0,1,.65-.21l.66-.06.67-.07a1.43,1.43,0,0,0,.65-.21c.58-.16,1.26-.33,2-.5v-.16l0-.15a4.79,4.79,0,0,0,.32-1.43,12.12,12.12,0,0,0-1.25.19c-.54.1-.9.16-1.1.18-.48.15-1,.31-1.67.47s-1.24.29-1.82.4-1.13.18-1.62.23c-.69.06-1.07.2-1.15.42l-.59.05c0-.31-.33-.33-.9-.07a1.84,1.84,0,0,0-1.27.74.45.45,0,0,1-.28.18,11.82,11.82,0,0,0-1.76.32c-.29,0-.38.14-.27.34a.3.3,0,0,1-.1.47c-.61-.15-.91-.12-.89.09l-.25.49c.22.19.46.17.74-.07h.15a2.88,2.88,0,0,0,1.43-.6.44.44,0,0,1,.28-.19C367,138.58,367.45,138.59,368.33,138.5Zm-3.7,1.75,1.3-.43h-.15a.94.94,0,0,1-1,.1c0-.1-.05-.05-.13.17Zm.89-9.59a.79.79,0,0,1-.35.27,1.32,1.32,0,0,1-.43.12.5.5,0,0,0-.36.19.41.41,0,0,0,.62.25,10.51,10.51,0,0,1,1.58-.61l0,.15c1.65-.36,4-.81,7.17-1.37s5.41-1,6.87-1.34l.13-.16c.1,0,.18-.18.26-.49l-.3,0c-.48.15-1.24.33-2.26.53a21.2,21.2,0,0,0-2.26.52q-2.47.54-8.06,1.37a10.62,10.62,0,0,0-1.82.4A2,2,0,0,1,365.52,130.66Zm6.92,58.42q.62-4.58,2-13.59t1.87-13.57a8.7,8.7,0,0,0-.39,1.43,8,8,0,0,1-.27,1.12l0-.31c.07-.32,0-.47-.19-.45a4.41,4.41,0,0,1-.1,1.33q-.15.72-.3,1.59c-.09.58-.18,1-.25,1.35a29.56,29.56,0,0,1-.43,3.39,32.05,32.05,0,0,0-.43,3.39q-.31,3-1.58,11.83a.45.45,0,0,1-.12.32l0,.16a16.43,16.43,0,0,1-.38,2.37,8.08,8.08,0,0,1-.09,2.19,4.33,4.33,0,0,1-.06.94.85.85,0,0,0,.65-1C372.35,191.37,372.37,190.54,372.44,189.08Zm-3.92-58.23c-.2,0-.52.08-1,.17a1.71,1.71,0,0,1-1,0l-.13.17Zm4.56,55.52a3.41,3.41,0,0,0-.17.56,5.53,5.53,0,0,0-.1.55,2.12,2.12,0,0,0,0,.55,1.62,1.62,0,0,1-.1.56,2.44,2.44,0,0,1-.25.49c.09,0,.16.14.19.44Zm4.2-47.76c.19,0,.73-.12,1.61-.31l0-.31c-1.85.39-4.59.9-8.2,1.55l2.8-.34C375.13,139,376.4,138.8,377.28,138.61ZM379,198.75a4,4,0,0,0,0-1.56l-.15,0a1.35,1.35,0,0,1-.89.08c.16.61.32,1.32.5,2.13C378.84,199.29,379,199.06,379,198.75Zm.31.13a8.17,8.17,0,0,0,.76-1.47l0-.16-.16-.14c-.22-.19-.36-.12-.43.2-.09.11-.09.34,0,.7A1,1,0,0,1,379.3,198.88Zm-5.61-63.68c0,.11.15.09.44,0h.15ZM380,195.54a3.54,3.54,0,0,0,.35-1c.15-.58.16-.92.06-1a.14.14,0,0,0-.16-.14q-.15,0-.12.33a4.38,4.38,0,0,1-.3,1.58c-.19.12-.18.23,0,.31ZM383.67,177c.12-.84.3-2.13.53-3.87s.43-3.13.58-4.18.28-2.31.4-3.78.15-2.82.14-4.06a.45.45,0,0,0-.12.32,10.06,10.06,0,0,0-.4,2.14,15.53,15.53,0,0,0-.13,1.81q-1.32,6.51-1.28,7l-.16,1.57c-.05.53-.13,1.26-.24,2.21a14.93,14.93,0,0,1-.39,2.21c-.15.54-.39,2.79-.71,6.77a3.16,3.16,0,0,1-.07.86,3.77,3.77,0,0,0-.07.87l.17.14c.12-.74.4-2.27.83-4.6S383.49,178.23,383.67,177ZM381,170.21c-.13.84-.25,1.63-.38,2.37A7.26,7.26,0,0,0,381,170.21Zm-1.57-36.16-.43.2c.1.09.18.14.23.13l.22,0v-.31Zm4.22,24.69a14.18,14.18,0,0,1-.31,3,5.23,5.23,0,0,1,.15-1.57A5,5,0,0,0,383.61,158.74Zm2.44,11.78c-.25,1.58-.59,3.89-1,6.94A37.85,37.85,0,0,1,386.05,170.52Zm.6-16a10.78,10.78,0,0,0,.51-4.1A14,14,0,0,0,386.65,154.57Z"/><path class="cls-1" d="M434.15,167.05a11.07,11.07,0,0,1-1.73,0c-4.31.6-2.17.19-6.08.85v-.15a2.43,2.43,0,0,0,1.52-.44,4.07,4.07,0,0,1,1.36-.57,2.65,2.65,0,0,0-1.8-.13,1.66,1.66,0,0,1,.73-.22,5.28,5.28,0,0,0,.87-.15,3.07,3.07,0,0,0,.72-.29l-3.66.63c0,.1.06.15.16.14h-.15a.57.57,0,0,1-.51.13.55.55,0,0,0-.51.12,1.16,1.16,0,0,1-.78.37l-.81.07a.26.26,0,0,1,0-.22.33.33,0,0,0,.05-.23,5.22,5.22,0,0,1-1.77.16l-.74.07-.22.76c-.13-.28-.24-.42-.34-.41v.15a2.33,2.33,0,0,1-.09.6,5.5,5.5,0,0,1,2.63-.54,17.3,17.3,0,0,0-2.76.7,22.34,22.34,0,0,1-.64,2.74c-.06.4-.13.81-.19,1.21s-.14.83-.25,1.29l-.27,1.14q-1.29,6.82-1.28,7c-.08.3-.16.76-.25,1.36s-.18,1.06-.25,1.36,0,.45.19.43a.7.7,0,0,0,.69-.65,5.26,5.26,0,0,1,.09-1.43c.1-.55.22-1.11.36-1.67s.25-1,.32-1.44a3.5,3.5,0,0,1,.12-1.13c.1-.46.21-.91.31-1.37a3.5,3.5,0,0,0,.12-1.13l0,.3a.13.13,0,0,0,.13-.16c0-.1,0-.16.14-.17-.12.91-.39,2.5-.82,4.77a27.75,27.75,0,0,0-.63,5.34c-.09,0-.11-.14,0-.44a.63.63,0,0,0-.24.62,9,9,0,0,1,.88-.23l.59-.06.51,0a2.39,2.39,0,0,0,.51-.13,2.38,2.38,0,0,1,.59-.12,14.41,14.41,0,0,0,2.63-.55c.49,0,1.61-.24,3.36-.61a5.75,5.75,0,0,1,1.23-.41,10.41,10.41,0,0,1,1.39-.28,15,15,0,0,1,2.5-.38l5.16-.48a15.16,15.16,0,0,0,2-.48,7.22,7.22,0,0,1,1.68-.31,5.54,5.54,0,0,0,1.54-.29.88.88,0,0,1,.78.37,3.35,3.35,0,0,0,.71.38,1.65,1.65,0,0,1,.71.53,5.28,5.28,0,0,1,.73,1.42l.16.14a1.24,1.24,0,0,1,.25,1,1.27,1.27,0,0,0,.08.88,7.44,7.44,0,0,0,.16.88c.08.39.13.69.15.88.25.57.24,1,0,1.2l0,.36c0,.15.12.22.31.2s.22.18,0,.29-.18.22,0,.3v.15c-.27.32-.25.52.06.59s.27.32.19.43-.12.31-.42.33a1.3,1.3,0,0,0-.43.19l-.13.16a.28.28,0,0,1,0,.37c-.08.16-.08.23,0,.22s.17.24-.1.46a1.84,1.84,0,0,1-1.28.71c0,.1,0,.16-.13.16q-.58.21-.75,0c-.11-.14-.25-.1-.43.11s-.47.35-.59.06l-.45,0-.13.16-.16-.13c-5,.37-8.48.69-10.33,1-2.14.49-3.26.75-3.36.76q-13.53,3.35-15.93,4.75c-1.43.73-2.75.35-4-1.12a.42.42,0,0,1-.31-.12.42.42,0,0,0-.31-.12c-.1,0-.15-.08-.17-.28a.43.43,0,0,1,.28-.18,1.5,1.5,0,0,1-.34-.41l-.31-.12h-.14l-.17-.13a1.16,1.16,0,0,0-.26-.5,7.47,7.47,0,0,1-.62-1.06,7.2,7.2,0,0,1-.6-1.58,10.4,10.4,0,0,1-.28-2.21,12.54,12.54,0,0,1,.26-2.85c.09-1.2.27-2.7.55-4.52s.58-3.62.91-5.44.64-3.53.93-5.15.55-2.93.75-3.94l.31-1.52s1.59-12.3,2-12.24c0,0,.33-2.27.48-2.88.27-1.31.63-2.83,1.06-4.56q.3-1.52,1.1-4.94c.54-2.29.92-3.83,1.14-4.65q.07-.75.21-2.55h-.15v.15s1.13-2.31,1.12-2.41l-.19-.43c-.42-.26-.45-4.6-.79-5-1.07-.9-1.51.56-.61-3.7-.11-.08-.07-.23.11-.45,2.92-.57-.42-.18-.32-.19l.59-.06a.86.86,0,0,0,.58-.2.6.6,0,0,1,.43-.19,2.42,2.42,0,0,0,.58-.13,1.84,1.84,0,0,1,.44-.11,22.32,22.32,0,0,1,4.38-.86,6.25,6.25,0,0,0,.66-.13,6.63,6.63,0,0,1,.81-.15q.59-.06,1.47-.21c.58-.11.92-.16,1-.17,1.76-.36,2.83-.56,3.22-.6l3.81-.65a11.27,11.27,0,0,0,1.47-.29,11,11,0,0,1,1.61-.29L438,122c.39,0,1.26-.06,2.6-.09s2.49-.08,3.48-.18c.29,0,1.07-.14,2.35-.36.39,0,1-.07,1.92-.11s1.53-.06,1.93-.1a.89.89,0,0,1,.78.37,4.92,4.92,0,0,0,.78.45,2,2,0,0,1,.8.6,16.5,16.5,0,0,1,.89,1.55l0,.15a1,1,0,0,1,.25,1.17,1,1,0,0,0-.06.9,1.79,1.79,0,0,0,.11.43,2.13,2.13,0,0,1,.12.44l0,.44,0,.44c.16.68.1,1.09-.19,1.21l.21.58c.3.07.36.17.17.28s-.07.36,0,.44l-.13.16c-.28.23-.26.43,0,.59s.33.32.34.42-.32.28-.73.22a1.09,1.09,0,0,0-.42.19l-.14.16c.11.09.1.21,0,.37s-.15.24-.05.23.22.23,0,.44a2.09,2.09,0,0,1-1.6.45c-.1,0-.14,0-.14.09l0,.22c-.49,0-.79,0-.91-.21l-.44,0H450c-.17.31-.37.33-.59.06l-.59.05h-.15q-10.1.35-18.38.82a1,1,0,0,0,.1.36.33.33,0,0,1,0,.38.8.8,0,0,0-.79.22,2.51,2.51,0,0,0-.56,1.24,6.55,6.55,0,0,0-.2,1.06.33.33,0,0,1-.11-.36q.06-.22-.09-.21-2.22,8.24-4.26,18.26a9.89,9.89,0,0,0,1.32-.27,12.08,12.08,0,0,0,1.24-.27,39.3,39.3,0,0,1,3.73-.64c1.48-.14-1.28.57.49.4a13.24,13.24,0,0,0,1.89-.47,6.51,6.51,0,0,1,1.61-.3,6.71,6.71,0,0,0,1.61-.3q.28,0,.63.39a2.66,2.66,0,0,0,.62.31,1.17,1.17,0,0,1,.66.61,4.9,4.9,0,0,1,.74,1.57l.16.14a1,1,0,0,1,.09,1,1.81,1.81,0,0,0,.1,1,2.08,2.08,0,0,1,.23.87c0,.4-.32,1.7-.26,1.84s.84,1.19.56,1.41c-.1,0-.17.57-.17.57-.27.32.6.83.62,1a.61.61,0,0,1-.56.35l-.29.17-.28.18c.11.09.12.21,0,.37s.38.3,0,.37Zm-19.93,21,.12-.31a1.7,1.7,0,0,0-.72.22h-.15l0,.3a4.74,4.74,0,0,0,.76.08Zm-.68-10.5a7.23,7.23,0,0,0-.06.89l.57-.2.08-.75-.06-.66a1,1,0,0,1,.09-.68,3.42,3.42,0,0,0,.33-1.22,4.39,4.39,0,0,1,.2-1.06c.07-.31,0-.45-.19-.43a.34.34,0,0,0-.34.33,2.35,2.35,0,0,0,0,.59l-.46,3Zm2.33,17.05a4.61,4.61,0,0,0-.86.38.65.65,0,0,1,.46.1C415.68,195.31,415.82,195.15,415.87,194.65Zm15.36-8.78c-.29.11-.82.25-1.59.44a14.52,14.52,0,0,1-1.91.35l-.29,0-.14.12-.15,0a.34.34,0,0,0-.21.07.68.68,0,0,1-.37.1v.11c-.09.09-.24.1-.44,0s-.19.1-.27.26-.08.27,0,.34a1.58,1.58,0,0,1,.45.07.48.48,0,0,0,.31.09,1,1,0,0,0,.42-.27l.18.33.88-.08a1,1,0,0,1,.61.06l.14,0a.68.68,0,0,1,.57-.28c.2,0,.49-.07.88-.14a6.78,6.78,0,0,0,1-.27c.38-.11,1.36-.32,2.92-.61a47.87,47.87,0,0,1,4.31-.92,11.36,11.36,0,0,1,1.38-.3,5.24,5.24,0,0,1,.72-.3l.8-.25a4.65,4.65,0,0,1,.66-.12,1.58,1.58,0,0,0,.56-.28c.09-.08.09-.16,0-.23s-.11-.1-.3-.08l-1.92.17c-1.18.19-1.86.29-2.06.31a13.4,13.4,0,0,1-2.48.58,3.73,3.73,0,0,0-1.32.12,2.89,2.89,0,0,1-1.18.11C433.33,185.45,432.6,185.59,431.23,185.87Zm12.42.24c.09-.1.09-.15,0-.14v-.15a8.1,8.1,0,0,1-1.76.31,5.35,5.35,0,0,0-.95.24,5.87,5.87,0,0,1-.79.22c-2.24.51-3.41.76-3.51.77a1.92,1.92,0,0,0-.43.12,1.94,1.94,0,0,1-.51.12l-.45,0c-.14,0-.16.12,0,.3v.15Q438.85,187.31,443.65,186.11ZM415,169.57l-.09.6c-.08.3,0,.5.2.58a2,2,0,0,1,0-.45,5.06,5.06,0,0,1,.1-.53,1.44,1.44,0,0,0,0-.38C415.11,169.41,415,169.47,415,169.57Zm3.47,5.33c.13-.7.35-1.89.64-3.56s.49-3,.61-3.85l-.3,0-.59,0a1.11,1.11,0,0,1-.1.46l0,.29a1.54,1.54,0,0,0,.73-.21v.15h-.15a.14.14,0,0,1,.17.13,9,9,0,0,0-.88.23,9.09,9.09,0,0,0-.26,2,5.82,5.82,0,0,1-.17,1.36c-.06.4-.12.85-.17,1.35a14.4,14.4,0,0,1-.24,1.44c-.11.46-.19.89-.26,1.29s-.45,2.57-.91,6.19a2.76,2.76,0,0,1,0,.52,3.64,3.64,0,0,1-.09.61,1.76,1.76,0,0,0,0,.52h.14c.14-.71.35-1.65.64-2.82s.53-2.28.73-3.34S418.38,175.71,418.5,174.9ZM416,169.18l-.44,0-.13.16a6.4,6.4,0,0,0-.15,1.65A2.54,2.54,0,0,0,416,169.18Zm1.14-32.65c0,.1.23.28.65.54l-.18-.28A.88.88,0,0,0,417.17,136.53Zm-2,31.83c0,.29.14.43.34.41v.15a1.11,1.11,0,0,0,.43-.19l-.07-.74-.59.06C415.24,168.06,415.2,168.16,415.21,168.36Zm-.29-6.38h.15l0-.15-.14,0Zm1.07,5.11a.56.56,0,0,1-.43.19v.15l.45,0Zm-.39-1,.59-.06v-.14c.16-.41.13-.66-.07-.74s-.24.12-.39.63A.42.42,0,0,1,415.6,166.09Zm-.09-5.8-.28.18v.14l.29,0v-.3Zm2.34,26.88,0,.3a.13.13,0,0,1-.13.16c4.49-.82,7.51-1.39,9.07-1.74a.86.86,0,0,0-.61-.09l-.59,0c.19-.11.28-.22.27-.32a2,2,0,0,1-1,.17,2.2,2.2,0,0,0-1,.17,8.12,8.12,0,0,0-1,.17l-1.17.26a8.41,8.41,0,0,0-1.16.33C419.8,186.79,418.93,187,417.85,187.17Zm-2.32-31.5c-.09.21-.18.47-.31.78a1.68,1.68,0,0,0-.15.75h.15C415.35,156.49,415.45,156,415.53,155.67Zm.07,4,.13-.17a.45.45,0,0,0-.28.18Zm1.06,8.24a.79.79,0,0,0-.18.39,1,1,0,0,0,0,.37,3.56,3.56,0,0,0,1.31-.27l.3,0h.14a2,2,0,0,1,0-.38,1,1,0,0,0,0-.37ZM416,157.86h-.15l-.12.31v.15h.15A1.17,1.17,0,0,0,416,157.86Zm1.54,9.39.81-.08a1.11,1.11,0,0,1,0-.38,1.33,1.33,0,0,0,0-.37l-1.6.44a1.27,1.27,0,0,1-.1.46Zm-1.28-11.35a5.68,5.68,0,0,0-.33,1.22h.15A4.76,4.76,0,0,0,416.29,155.9Zm.67,5.6h-.15l-.12.31.3,0,.12-.31Zm1.13,4.21.6-.06a1.07,1.07,0,0,1,.1-.45A4.75,4.75,0,0,1,419,164l-1,.09a1.11,1.11,0,0,1-.43.19l-.1.46a5.87,5.87,0,0,0-.23.76l-.1.46a.26.26,0,0,1,.32.27A1,1,0,0,1,418.09,165.71Zm-.83-5.73a.42.42,0,0,1-.12.31A.42.42,0,0,0,417.26,160Zm1.89,2.65-1.17.26h-.15a1.51,1.51,0,0,1-.24.62l.45,0c0-.1,0-.18.2-.24a1.3,1.3,0,0,1,.36-.11l.59,0Zm-2.43-35.8c1.36-.33,2.91-.65,4.67-1l5.5-1c1.9-.33,3.54-.61,4.91-.83A1.88,1.88,0,0,0,431,124l-.66.07c.28-.13.42-.24.41-.34a3.09,3.09,0,0,1-1.24.19c-.55,0-1,0-1.27,0a7.75,7.75,0,0,1-1.75.39,16,16,0,0,0-2,.41q-1.6.45-6.58,1.36a3.75,3.75,0,0,0-1.46.28,2.1,2.1,0,0,1-1.15.41,1.44,1.44,0,0,0-.58.2c.23.38.49.45.77.23A3.42,3.42,0,0,1,416.72,126.83Zm2.75,34.43-1.48.14,0,.3C418.6,161.54,419.08,161.4,419.47,161.26Zm-1-1.54a.43.43,0,0,1-.28.18l0,.29h.15l.14,0Zm1.43,7.31a1.06,1.06,0,0,1,0-.37,1.34,1.34,0,0,0,0-.38l-.59.06h-.14a.89.89,0,0,0-.19.39,1.09,1.09,0,0,0,0,.38l.44-.05Zm-.11-7.58a3.92,3.92,0,0,1-1.17.26.33.33,0,0,1-.05.23.26.26,0,0,0-.06.22c.4,0,.64-.1.73-.21l.44,0A1.17,1.17,0,0,0,419.75,159.45Zm1.33,9.55c-.36,1.53-.71,3.59-1.06,6.21A20.6,20.6,0,0,1,421.08,169Zm-.93-11.67,0-.15-.29,0-.45,0a1.11,1.11,0,0,0-.43.19l-.29,0a.58.58,0,0,0-.11.45l.74-.07.74-.07,0-.22S420.06,157.44,420.15,157.33Zm-.14,8.2a1.89,1.89,0,0,0,.22-.84,4.71,4.71,0,0,0,.06-1l-.59.05,0,.3c-.08.21-.23.71-.45,1.53l.59-.06Zm-1.82-38.84a6.54,6.54,0,0,0-.8.15c-.34.08-.57.08-.67,0l-.28.17Zm1.25,32.64.29,0a.14.14,0,0,1,.14-.16l-.45,0Zm.47,3.53v0Zm-1.62-35.14-.44,0-.89.08.59-.06Zm2.88,39a20.77,20.77,0,0,0,5.93-1.89l-.15,0a6.85,6.85,0,0,0-1,.17,1.48,1.48,0,0,0-.71.28l-3.25.31c0,.1-.08.18-.27.25a2,2,0,0,1-.44.11,1.11,1.11,0,0,1,0,.38A1.06,1.06,0,0,0,421.17,166.76Zm.77-4.54-.44,0,0,.3c.1,0,.15-.06.14-.16l.13-.16,0,.15-.14.16.74-.07a1.61,1.61,0,0,0-.72.22,1.34,1.34,0,0,1-.11.45c.2.08.64-.06,1.3-.42a3.48,3.48,0,0,1,.86-.37.3.3,0,0,0,.43-.19c0-.2-.18-.29-.47-.26a2.79,2.79,0,0,0-.58.2.44.44,0,0,0-.12.31l-.15,0,0-.3Zm.15-3.14c.1,0,.15-.06.14-.16Zm-.3-4.88a9.72,9.72,0,0,0,.54-3.77A10.52,10.52,0,0,0,421.79,154.2Zm1,2.44h-.15l-.08.75h.15a1.33,1.33,0,0,1,0-.37A1.11,1.11,0,0,0,422.76,156.64Zm.14-.91a2.35,2.35,0,0,0,0-.59l-.2,1.06A.93.93,0,0,0,422.9,155.73Zm.45.86a1.51,1.51,0,0,0-.24.61l.3,0Zm1.33-.13-.44,0a3.38,3.38,0,0,0-.1.61,4.16,4.16,0,0,0,.59-.13,3.53,3.53,0,0,1,.73-.14c-.11-.09-.31-.1-.6,0s-.49.07-.6,0a.63.63,0,0,0,.29-.1A.24.24,0,0,0,424.68,156.46Zm1.68,2.08a6.65,6.65,0,0,0-2.06.19A3.51,3.51,0,0,0,426.36,158.54Zm.32,3.39a4.83,4.83,0,0,0-1.91.33l1-.09C426.27,162.12,426.59,162,426.68,161.93Zm-1.79-1.62a4,4,0,0,0,1.94.05,3,3,0,0,0,1.59-.52,8.56,8.56,0,0,0-1.1.17,12,12,0,0,1-1.32.2Zm3.38,31.55c.08-.11.3-.18.65-.21l.66-.06A3.56,3.56,0,0,1,428.27,191.86Zm-.46-29a3.57,3.57,0,0,1-1.32.27,1.66,1.66,0,0,1,.73-.21Zm.69-3.79a3.51,3.51,0,0,0-1.91.33l1-.09A2.27,2.27,0,0,0,428.5,159.08Zm1.84.58c-.12-.19-.42-.21-.9-.07a7.15,7.15,0,0,1-.87.23A5,5,0,0,0,430.34,159.66Zm1.6,4.46a3,3,0,0,0-1.89.48A3.69,3.69,0,0,0,431.94,164.12Zm4.29-30.77a3,3,0,0,0-2.11-.25,5.13,5.13,0,0,0,.81-.15,8.85,8.85,0,0,1,1-.17,3.09,3.09,0,0,0,.94-.23c-1.47.13-2.9.32-4.27.54l0,.15h.15l-.14.16-.66.06c-.35,0-.57.1-.65.21l-.3,0a.83.83,0,0,1-.24.61l3.25-.3A20.43,20.43,0,0,1,436.23,133.35Zm-4.6-1.5a1,1,0,0,1-.39.63c1-.29,1.78-.56,2.45-.83l-.16-.13Zm7.66-.86-1.48.13-.58.21A5.24,5.24,0,0,0,439.29,131Z"/><path class="cls-1" d="M80.19,30.58q2.31,9.7,1.89,23.74a27.16,27.16,0,0,1-2,9.94,11.28,11.28,0,0,1-4.15,5.35,15.06,15.06,0,0,1-4.7,1.85,21.56,21.56,0,0,1-5.81.15c-.2.12-.31.1-.32,0a9.49,9.49,0,0,1,.31-1.69A144.74,144.74,0,0,0,67.17,43a39.54,39.54,0,0,0-.45-4.91,20.86,20.86,0,0,0-1-3.92A4.28,4.28,0,0,0,64.43,32c-.47-.48-1.42-.6-2.87-.36a7.59,7.59,0,0,0-3.91,1.94,30.13,30.13,0,0,0-5.36,6.63l.14-.17c-.27.45-.64,1-1.1,1.68s-.74,1.17-1.09,1.83q-11,18.64-12,42.49a23.49,23.49,0,0,0,.8,8.59,14,14,0,0,0,2.66,4.94,6.29,6.29,0,0,0,3.74,2.09,11.75,11.75,0,0,0,4,0,16.13,16.13,0,0,0,3.67-1.12,18,18,0,0,0,6.19-4.51,41.46,41.46,0,0,0,4.53-7.19c0-.1.61-.16,1.87-.17a39.35,39.35,0,0,1,4.35.22,14.17,14.17,0,0,1,4.6,1.23,4.39,4.39,0,0,1,2.63,3q.51,2-1.55,5.33a37.78,37.78,0,0,1-7.06,8.69,29.38,29.38,0,0,1-9.59,6,73,73,0,0,1-13.8,3.09,21.15,21.15,0,0,1-6.34-.51,14.52,14.52,0,0,1-5.9-2.6,19.91,19.91,0,0,1-7.26-8.61,27.94,27.94,0,0,1-2.15-8,87.2,87.2,0,0,1-.34-10.36q.27-5.68,1.52-14.14a134.78,134.78,0,0,1,3.84-16.25,90.24,90.24,0,0,1,4.94-12.89A102.83,102.83,0,0,1,40.1,31,38.73,38.73,0,0,1,50.18,20.94a24.35,24.35,0,0,1,9.28-3.46,26.94,26.94,0,0,1,10.9.48,12.24,12.24,0,0,1,6.38,4.29A23.32,23.32,0,0,1,80.19,30.58ZM52.12,113A24.85,24.85,0,0,1,46,114.48,15.45,15.45,0,0,1,36.7,113a16.29,16.29,0,0,1-7.05-6.42q-3.87-6.09-3.92-16.79a107.32,107.32,0,0,1,5-32.57,21.29,21.29,0,0,0-1.26,3.35c-.4,1.35-.64,2.18-.71,2.5a4,4,0,0,1,.08-.79c.16-.54.18-.86.07-.95l-1.08,4.43c-.65,2.63-1.13,4.58-1.43,5.87A95.83,95.83,0,0,0,25.1,88.1q.25,9.42,2.33,14.89,3.54,9.27,11.92,11.48a15.68,15.68,0,0,0,7.75.38c2.15-.52,4-1,5.53-1.46.3-.13.85-.39,1.66-.78l-1.72.16A.6.6,0,0,0,52.12,113Zm-15.38-1.25a13.88,13.88,0,0,0,8.8,1.54,13.36,13.36,0,0,1-10.86-3.39,17.71,17.71,0,0,1-4.2-4.49A16.72,16.72,0,0,0,36.74,111.72ZM31.37,94.6a34.9,34.9,0,0,0,.79,5.11.24.24,0,0,1,.14-.24.59.59,0,0,0,.19-.42,1.19,1.19,0,0,0-.05-.62c-.08-.2-.15-.4-.22-.61a2.23,2.23,0,0,1-.12-.46C31.62,95.62,31.38,94.7,31.37,94.6ZM37.8,62.21a102.91,102.91,0,0,1,5.55-14.83,77.52,77.52,0,0,1,5.24-9.62,12.12,12.12,0,0,0,.92-2l0-.47-.14.17c-.38.46-.62.74-.71.86-.65.9-1.34,1.9-2.08,3Q44.91,42,42.86,45.53a55.36,55.36,0,0,0-3.67,7.9q-.39.82-3.95,11.69a103.38,103.38,0,0,0-2.45,12.51,75.32,75.32,0,0,0-.74,10.76q-.18,9.93,3.47,15.26A5.83,5.83,0,0,0,37.78,106l1.35,1c-.1.12-.09.28,0,.47a23.52,23.52,0,0,0,4.51-.57l-.17-.14a10.35,10.35,0,0,1-3.72-1.08,9.75,9.75,0,0,1-3.31-3.46c-.73-1.09-.9-1.81-.52-2.16a4.47,4.47,0,0,1-1.35-2.71,50,50,0,0,1-.78-8.42A70,70,0,0,1,35,74.27,112.94,112.94,0,0,1,37.8,62.21ZM32,76.28,32,76a2.37,2.37,0,0,0,.1-.64,25.75,25.75,0,0,0-.4,5.86,9.28,9.28,0,0,0,.62-2.65c.07-.9.16-1.93.26-3.1s.19-2,.25-2.38a32.71,32.71,0,0,1,.67-4.63c.3-1.28.35-2,.13-2.05v.15Q32.65,71,32,76.28Zm-1.6-12.13q3.34-9.75,3.46-10.23A74.25,74.25,0,0,0,30.43,64.15Zm10,40.3c-1.89-1.08-3.25-3.32-4.09-6.7a47.25,47.25,0,0,1-1.71-8.34c0,.31,0,.76,0,1.33s0,1,0,1.18q-.1,7.41,3.87,11.13a6.62,6.62,0,0,0,1.87,1.56Zm5.49,10a2.52,2.52,0,0,0,.61-.21c.32,0,.47-.1.46-.2a16.32,16.32,0,0,1-8.4-.64Q40.45,114.38,46,114.48ZM35.81,59.41c-.39,1.4-.74,2.74-1,4q.45-1.94,1.95-6.16C36.46,57.93,36.16,58.64,35.81,59.41Zm5.07,44.37c-.81-.76-1.49-1.38-2.06-1.85A6.68,6.68,0,0,0,40.88,103.78ZM39.1,62.56c.75-3.11,1.63-6.13,2.62-9.05a3.25,3.25,0,0,0-.41.67q-.66,1.47-3,8.61Q37,67.17,36.26,71A56,56,0,0,1,39.1,62.56Zm2.21-13.42A17.35,17.35,0,0,1,40.62,51c-.3.72-.63,1.48-1,2.3a14,14,0,0,1-.92,1.89,34.42,34.42,0,0,1,1.41-3.43C40.84,50.23,41.23,49.36,41.31,49.14Zm5.6-2.41q1.73-3.46,2-4.12l-2.69,5Zm1.62-6.28a37.71,37.71,0,0,0,2.71-3.88A39.27,39.27,0,0,1,53.66,33,25.39,25.39,0,0,0,48.53,40.45Z"/><path class="cls-1" d="M130.91,52.7q1.41,7.17-.3,17.6c-.56,3.62-.91,5.64-1.07,6q-2.14,7.5-2.74,9A41,41,0,0,1,120.58,97a20.28,20.28,0,0,1-13.73,7.68c.2,0,.49-.07.88-.15a7.44,7.44,0,0,1,.88-.16,6.27,6.27,0,0,1-3.37.61,2.27,2.27,0,0,1,.58-.2,15.25,15.25,0,0,1-7.59-1.61,17.54,17.54,0,0,1-6.27-5,25.64,25.64,0,0,1-5.13-13.52,83.13,83.13,0,0,1-.08-12,79.35,79.35,0,0,1,1.47-11.45q1.65-7.89,2-9.41A105.79,105.79,0,0,1,95.3,38c.17-.31.78-1.21,1.84-2.7a16.77,16.77,0,0,1,10.77-6.66,16,16,0,0,1,12.2,3.11,22.73,22.73,0,0,1,8.34,12.11Q130.43,50.66,130.91,52.7ZM92.68,85.13a15.56,15.56,0,0,0,2.62,7.35A29.48,29.48,0,0,1,92.68,85.13Zm9.81,9.37a12.28,12.28,0,0,0,7.52-.7q3.15-1.33,6.29-6.1a35.17,35.17,0,0,0,3.42-8,90.33,90.33,0,0,0,2.86-14.12,11.82,11.82,0,0,0,.12-3.43l.13-1.8c.4,0,.48-.74.26-2.11A6.43,6.43,0,0,0,122,54.72a1.66,1.66,0,0,1-.22-.73,8.11,8.11,0,0,0-1.37-3.59c-.24-.38-.4-.46-.47-.26s-.37.39-.58.21a2.1,2.1,0,0,1-.38-.86,2.27,2.27,0,0,1-.2-.58,3.34,3.34,0,0,0-1,.54.91.91,0,0,0,.63.39.29.29,0,0,0,.09.21.3.3,0,0,1,.1.22,5.16,5.16,0,0,1,.41.41,2,2,0,0,1,.34.48,1.82,1.82,0,0,0,.34.49,1.42,1.42,0,0,0,.56.4.48.48,0,0,1,.2.58c-.09.1,0,.52.12,1.25a13.47,13.47,0,0,1,.29,1.54A51.39,51.39,0,0,1,120.68,66c-.16,1.4-.45,2.12-.84,2.16a6.3,6.3,0,0,1,0,3.13c-.22.91-.57,2.21-1.06,3.89l-1,3.29a25.53,25.53,0,0,1-4.57,10.1,12.27,12.27,0,0,1-5.72,4.11q-4.17,1.57-7.66-2.27a11.09,11.09,0,0,1-3-6.87A5.47,5.47,0,0,0,96.26,82a3.1,3.1,0,0,0-.25-.35q-.09-.06-.15.09a3.7,3.7,0,0,0,0,1A15.56,15.56,0,0,0,97.6,90,8.81,8.81,0,0,0,102.49,94.5ZM97.66,77.82a16.61,16.61,0,0,0,1,7.21C98.55,84.14,98.22,81.74,97.66,77.82Zm4.09,8.7a2.59,2.59,0,0,0,.78,2,9.87,9.87,0,0,1-2.21-2.93,9.34,9.34,0,0,0,1.44,2.63,5.64,5.64,0,0,0,1.85,1.54,3.64,3.64,0,0,0,1.9.42c0-.2-.08-.3-.17-.29l-.15,0c0-.1,0-.1.15,0,.08-.1.4-.16,1-.16a1.12,1.12,0,0,0,1.07-.47,4.76,4.76,0,0,1,1.26-.86A3.6,3.6,0,0,0,110,87.25a.34.34,0,0,1,.11.36,1.09,1.09,0,0,0,0,.38c.1,0,.14-.07.13-.17A25,25,0,0,0,113.12,84a45.54,45.54,0,0,0,2.55-6.19,71.69,71.69,0,0,0,2.92-13.52c.07-.31.16-2,.27-5.09a1.3,1.3,0,0,0-.11-.36c-.06-.15-.14-.21-.24-.2s-.19.11-.27.32c-.11,1-.21,2-.33,2.86a33.07,33.07,0,0,1-.35,3.45c-.21,1.51-.38,2.57-.52,3.18a15.23,15.23,0,0,1-.31,2.26c-.18.81-.37,1.65-.59,2.51s-.4,1.6-.54,2.21l.08-.75-.12.31-.12.31a84.73,84.73,0,0,0,1.65-9.54,69.92,69.92,0,0,0,.31-8.66,45.78,45.78,0,0,0-.59-6.35,12.83,12.83,0,0,0-1.34-4,5.94,5.94,0,0,0-1.84-2.14,3.37,3.37,0,0,0-2.13-.47A5.1,5.1,0,0,0,108.4,46a17.44,17.44,0,0,0-2.85,4.51,33.56,33.56,0,0,0-2,5.77,103.6,103.6,0,0,0-2.38,19.28Q101,83,102.28,85.88a4.54,4.54,0,0,0,1.51,1.8,2.65,2.65,0,0,0,1.54.6l0,.29a2.12,2.12,0,0,0-.91-.21A3.89,3.89,0,0,1,103,87.9,3.2,3.2,0,0,1,101.75,86.52ZM119.56,60.3a73.49,73.49,0,0,1-3.43,17.59q-2.25,7.81-5.4,10.78-3.83,3.78-7.62,2.94l.32.27c.84.42,2.17.39,4-.08a10.76,10.76,0,0,0,6.87-6.15l.3-.77a6.51,6.51,0,0,0,.29-.92,1.88,1.88,0,0,1,.37-.78q.25-.47,2.58-7.53a47,47,0,0,0,1.85-12.08,10.82,10.82,0,0,1,0-1.12c0-.35,0-.72,0-1.12s0-.74,0-1Zm11.07-2.66a12.75,12.75,0,0,0-.06-2.23,24.48,24.48,0,0,0-1.45-4.33c.16.68.25,1.07.26,1.17q1.29,5.84.35,15a87.5,87.5,0,0,1-3.14,14.29q-2.91,8.76-6.35,13.39-5.42,7.35-13.38,8.24a2.59,2.59,0,0,0,1.64,0c.78-.17,1.29-.29,1.53-.37s.7-.23,1.37-.5a11.45,11.45,0,0,0,1.29-.56,3.45,3.45,0,0,1-.7.51c-.47.24-.7.46-.68.66A24.08,24.08,0,0,0,120,96.74a40,40,0,0,0,6.77-13.58A83.76,83.76,0,0,0,130.63,57.64ZM110.51,86.31q2-2.43,4-9.31Q113.36,83.36,110.51,86.31Zm6.59-36.5,0,.3a2.93,2.93,0,0,0,.52.77,6.84,6.84,0,0,0,.67.76l.14,0a.18.18,0,0,0,0-.29,2.63,2.63,0,0,1-.88-1.41A.29.29,0,0,0,117.1,49.81Zm12.28,2.44-.19-.43-.19-.43a33.33,33.33,0,0,1,.81,7.07,8.05,8.05,0,0,0-.07-3.12Q129.43,52.69,129.38,52.25Z"/><path class="cls-1" d="M188.81,22.32a2.49,2.49,0,0,0,.24.2.44.44,0,0,1,.1.29,2.52,2.52,0,0,1,0,.53c0,.2-.06.42-.08.67s-.08.56-.14.91a11.63,11.63,0,0,0-.17,1.36c0,.55-.12,1.1-.22,1.65s-.18,1.29-.25,2.19S188.11,32,188,33q-5.08,36.64-8.23,46-5.88,16.94-17.63,20.25a4,4,0,0,1-.72.22l-.3,0a1.81,1.81,0,0,0-.57.2,2.68,2.68,0,0,1-.73.21,1,1,0,0,1-.37,0,2,2,0,0,0-.38,0,5.89,5.89,0,0,1-1.92.18l-.88.08a1.34,1.34,0,0,1-.38,0,1.09,1.09,0,0,0-.38,0c-1.77.16-2.72.1-2.84-.19s-.28-.32-.78-.37a2.78,2.78,0,0,1-1.38-.47.14.14,0,0,1-.14.16V99a5.62,5.62,0,0,1-1.09-.5,14.08,14.08,0,0,1-3.45-1.91,2.07,2.07,0,0,1-.74-.68,5,5,0,0,0-.58-.69l-1.61-1.34c.32.27.69.59,1.12.94a28,28,0,0,1-2.42-2.9,17.55,17.55,0,0,1-1.87-3.25,26,26,0,0,0-1.33-3.15c-.8-3.21-1.21-5-1.24-5.25-.3-2.25-.56-4.46-.76-6.63q-.12-3-.12-7.73l0-.29c0-.5-.08-1.16-.11-2s-.06-1.46-.1-1.86c0-.09.08-.25.26-.47l-.07-.66-.07-.81c.09-1.2.26-3,.54-5.41.46-3.62.89-7.43,1.32-11.44,0-.8.08-2.29.18-4.48,0-.7.15-1.85.35-3.46s.31-2.81.33-3.6a1.71,1.71,0,0,1,.62-1.4,6.07,6.07,0,0,0,.68-1.41,3.5,3.5,0,0,1,.84-1.41q2.49-2,8.76-1.86a4.47,4.47,0,0,1,1.65.15,2.61,2.61,0,0,1,.79-.3,1.57,1.57,0,0,1,1.23.41,2.59,2.59,0,0,1,.73,2.16q-.09.75-1.33,10.55t-2.08,21a131.21,131.21,0,0,0-.41,17.23q.54,5.76,3.16,7.53a6.33,6.33,0,0,0,4.95,1.25,7.76,7.76,0,0,0,5.41-4.37l.29-.85c.11-.36.21-.69.28-1a5.6,5.6,0,0,1,.23-.77l1.54-4.16c.37-1.43.89-3.31,1.56-5.66q1-3.81,1.6-6.84c.2-1.11.47-2.93.84-5.44q.72-5,.84-5.29a14.44,14.44,0,0,0,.24-1.44c.09-.65.17-1.13.24-1.43l1.54-15.48a15.64,15.64,0,0,0,.26-3.6c0-.9.67-2.39,2-4.5.58-1.15,2.92-2,7-2.44S188.54,21.65,188.81,22.32Zm-42.11,74a20.46,20.46,0,0,0,3.09,1.2l0-.15c-.09,0-.2-.07-.32-.26a.44.44,0,0,1-.31-.13A8.48,8.48,0,0,1,147,95.89q-5.92-4.52-8.14-14l-.05-.44-.17-.28,0-.29q-.83-2.46-1.05-3.33a26.71,26.71,0,0,1-.44-3.09l-.07-.81-.09-1,0,.3,0,.44a68.89,68.89,0,0,0,1,7.8q2.26,8.42,6.43,13.1A9,9,0,0,0,146.7,96.36ZM145,91.91a18.22,18.22,0,0,1-2.39-3.21A16.94,16.94,0,0,0,146.77,94v-.15A19.65,19.65,0,0,1,145.11,92Zm2.28,3.8a17.46,17.46,0,0,1-2.59-2.29,6.35,6.35,0,0,0,1.16,1.31A11.93,11.93,0,0,1,147,95.89a1.17,1.17,0,0,1,.46.11A.44.44,0,0,1,147.23,95.71ZM159.12,97l.56-.35A6.25,6.25,0,0,1,158,96.5c0,.1.11.19.32.27a.65.65,0,0,1-.59,0,.13.13,0,0,0-.16-.13l-.3,0a.47.47,0,0,1,.31.12A4.07,4.07,0,0,0,159.12,97Zm-.89-1.55a.88.88,0,0,1-.58.2c-.2,0-.29.08-.28.17l.22,0s.08,0,.09.15a2.66,2.66,0,0,0,1.73-.61l0-.15C158.69,95.15,158.3,95.23,158.23,95.44Zm1.82.42a.47.47,0,0,0-.47-.25,2.23,2.23,0,0,0-.86.38l.59-.06c0-.09.14-.11.45,0Zm1,.73a.22.22,0,0,0,.13-.23l-.29,0a.47.47,0,0,1-.29.18l-.41.34A5.24,5.24,0,0,0,161,96.59Zm18.77-43.21a1.73,1.73,0,0,0-.1-1c-.12-.28-.23-.37-.32-.27s-.18.17-.25.47c-.14.71-.38,1.78-.75,3.2-.15,1.6-.27,2.91-.38,3.91v-.15l0-.15a5.66,5.66,0,0,1-.38,2.27,79.66,79.66,0,0,1-2.26,10.93,74,74,0,0,1-4.84,12.88q-2.82,5.7-5.36,7.13a5.72,5.72,0,0,1-.55.49l-2.31.81a1.47,1.47,0,0,1,.66.69v.14l.28-.17c.5,0,1.46-.38,2.86-1.31q3.24-1.93,5.6-7.07c.32-.82.63-1.2.93-1.13a7.52,7.52,0,0,1,.27-2c.17-.31.44-.91.8-1.79s.77-1.9,1.2-3.09.84-2.43,1.22-3.76q.33-1.22,2.78-13.36a13.49,13.49,0,0,0,.37-2.41c.06-.4.12-.86.17-1.36s.09-.92.1-1.27.05-.78.11-1.28S179.72,53.79,179.78,53.38Zm-13.3,21.94a1.51,1.51,0,0,0-.24.61l0,.3A5.68,5.68,0,0,1,166.6,75q.43-1.68.87-3.51l.12-.31.12-.31Q166.81,74.09,166.48,75.32Z"/><path class="cls-1" d="M239.61,75.33a2.23,2.23,0,0,1,1.54,2.1c.1,1.08-5.68,9.53-6.34,12.07h0a4.84,4.84,0,0,1-6.35.93l-18.3-11.94c-.29,0-.71,0-1.26,0a5.26,5.26,0,0,1-1.27-.11,51.31,51.31,0,0,0-1.06,6.21c-.1,0-.13,0-.09-.14a.68.68,0,0,0,0-.31.62.62,0,0,0-.24.62A4.76,4.76,0,0,1,206.1,86c-.15.61-.28,1.32-.4,2.12s-.28,1.59-.45,2.35-.37,1.65-.57,2.66a2.2,2.2,0,0,1-.09.68,7.14,7.14,0,0,1-.49,1.09,1.38,1.38,0,0,1-1.12.77l-1.48.14a.47.47,0,0,1-.28.17,7.88,7.88,0,0,0-1.65-.07,4.88,4.88,0,0,1-1.8-.2l.15,0q-5.71-.51-5.74-4.08c0-.1.17-1.06.55-2.88s.84-4,1.4-6.53.94-4.35,1.13-5.47a1.18,1.18,0,0,0-.19-.43l-.33-.41A45.78,45.78,0,0,1,194.6,68a4.23,4.23,0,0,1,.34-1.15,2.72,2.72,0,0,1,.59-.87,7.23,7.23,0,0,1,.69-.59,3.43,3.43,0,0,1,.92-.45l3.9-27a1.44,1.44,0,0,1,.51-.94,6,6,0,0,0,.64-1.1,2.32,2.32,0,0,1,.65-.95,4.65,4.65,0,0,1,2-.93.43.43,0,0,1,.28-.18c.19-.11.12-.31-.2-.58q-3.24,2-5.22,1.53a4.67,4.67,0,0,1-3.12-2.31,11.35,11.35,0,0,1-1.49-4.11,33.94,33.94,0,0,1-.44-3.9,5.51,5.51,0,0,1,0-1.87q2.58-2.62,9.36-4.22a58.21,58.21,0,0,1,9.45-1.69,39.65,39.65,0,0,1,11,1.21,26.87,26.87,0,0,1,3.85,1.43,40.38,40.38,0,0,1,5.82,3.33,21.16,21.16,0,0,1,5.72,7.06,21.91,21.91,0,0,1,2.05,10.83,25.06,25.06,0,0,1-2,8.53,24.23,24.23,0,0,1-4,6.62A44.86,44.86,0,0,1,224,65.44q-.84.53-2.67,1.74m-17,12.59,0-.14q.23-.76.69-.66a1.32,1.32,0,0,1-.21-.58.39.39,0,0,1-.3-.12l-.3,0a9.38,9.38,0,0,0-1.17.25,11.18,11.18,0,0,1-.33,1.23c-.23.71-.29,1.16-.17,1.35l-.23.77c-.3-.07-.44.09-.4.48l0,.3a2.15,2.15,0,0,0,.15,1.62l0,.44a11,11,0,0,0-.56,2c-.07.31,0,.45.19.43a.26.26,0,0,1,.32.27c0,.1-.08.25-.25.47s-.3.52-.1.6l.16.14c0,.19.08.29.18.28.29-.13.36-.38.23-.77l.13-.16v-.15a2.88,2.88,0,0,0,.14-1.65c-.12-.18-.13-.33,0-.44s.3-.48.61-1.4C203.27,83.94,203.68,82.42,204.33,79.77ZM203,89a4.74,4.74,0,0,0,.42-1.08,3.05,3.05,0,0,0,0-.37.2.2,0,0,0-.09-.15.1.1,0,0,0-.15,0,.32.32,0,0,0,0,.23,1.53,1.53,0,0,1-.49,1.08c-.09.11,0,.21.17.29Zm.14-30.53c-.29,1.12-.48,1.83-.55,2.13l.3,0C203,59.65,203,59,203.09,58.45Zm1.78,24H205c.15-.51.37-1.28.68-2.3a12.44,12.44,0,0,0,.44-1.68,1.09,1.09,0,0,1-.38,0,2,2,0,0,0-.38,0,6,6,0,0,1-.09,1.35,5.59,5.59,0,0,0-.1,1.35,2.49,2.49,0,0,0-.16.69A2.71,2.71,0,0,1,204.87,82.4Zm2.37-3.34.09-.61a1,1,0,0,1-.37,0,1.44,1.44,0,0,0-.38,0l-.52,2.43a7.59,7.59,0,0,0-.27,1.07,11,11,0,0,1-.27,1.14q-.12.39.18.36c.5,0,.74-.12.7-.51a2.93,2.93,0,0,1,.19-1.14,14.34,14.34,0,0,0,.4-1.38C207.09,79.89,207.18,79.46,207.24,79.06Zm-3.38-20.39a1.4,1.4,0,0,1,0,.38,5.06,5.06,0,0,0-.1.53,1,1,0,0,1-.18.46l.28-.17C203.86,59.27,203.87,58.87,203.86,58.67Zm.46-3a2.28,2.28,0,0,0-.29.92c0,.3,0,.65-.05,1a1.41,1.41,0,0,1-.15.76A10.43,10.43,0,0,0,204.32,55.65Zm3.77.55a3.76,3.76,0,0,0-.23-.87c-.11-.19-.22-.23-.31-.13s-.18.12-.26.33c-.37,1.42-.62,2.49-.75,3.19a1.24,1.24,0,0,0,1.21.19A14.18,14.18,0,0,1,208.09,56.2Zm-3.67-26.76c.33.37.64.49.92.36s.66-.46,1.4-1l0-.15a1.89,1.89,0,0,1-.52-.84,14.4,14.4,0,0,0-2.28,1.1Zm2.65-.25a7.25,7.25,0,0,0-1.14.56l1.48-.14a.67.67,0,0,0-.1-.29A.25.25,0,0,0,207.07,29.19Zm5,28a42,42,0,0,0,10.82-7,18.46,18.46,0,0,0,1.5-1.48q5.34-6.6,3.16-12.5-2.94-7.62-15.08-5.3c-.39.13-.94.33-1.66.6a13.77,13.77,0,0,0-1.86.84c-.52.3-1,.59-1.41.88a3.73,3.73,0,0,1-.7.43l-.37,0a3.24,3.24,0,0,0,1.05.05h.15l6.12.17-.14.16-.14,0-.43.19-.42.33a3.67,3.67,0,0,0-.84.53l-.41.48,4.34.19a1,1,0,0,1,.26.35,1.18,1.18,0,0,1,0,.67c0,.2.08.29.18.29a.13.13,0,0,1,.16.13,1.33,1.33,0,0,1-.33,1.22.47.47,0,0,0-.08.75c.24.48.17.83-.2,1.06s-.32.33-.09.61a1.3,1.3,0,0,1,.19.43q-.62-.09-.81.15a1.08,1.08,0,0,0-.25.47c0,.15-.09.4-.16.76a3.59,3.59,0,0,0-.08.67.13.13,0,0,1-.16-.13l0-.3Q213.55,47.66,212.05,57.17Zm-2.81.11a7.52,7.52,0,0,0,.28-3.3A7.05,7.05,0,0,0,209.24,57.28Zm-.4-29.89a.42.42,0,0,1-.12.31c-.19.12-.23.22-.12.31s.56.1,1-.24l.44,0a6,6,0,0,0,2-.94.49.49,0,0,1,.58-.2q0,.3,2,.12a35.53,35.53,0,0,1,6.13.32h.15c.7.13,1,.4,1,.8a2,2,0,0,1,1.63,0,4.14,4.14,0,0,1,1.23.41c.42.21.84.44,1.26.7a3.69,3.69,0,0,0,1.09.49,8.74,8.74,0,0,1,4.1,4.09A10.24,10.24,0,0,1,232.46,38a16.25,16.25,0,0,1-1.13,7.11,16.15,16.15,0,0,1-2.24,4.67,3.18,3.18,0,0,0-.5,1.09c-.08.21,0,.3.18.28s.23-.12.41-.34a22.72,22.72,0,0,0,2.91-4,20.68,20.68,0,0,0,1.65-4.62,34.85,34.85,0,0,0,.07-5.66,10.5,10.5,0,0,0-2-5.18A12.07,12.07,0,0,0,228.25,28a23.77,23.77,0,0,0-7.55-2.72,4.39,4.39,0,0,0-1.94-.12l-1-.05v-.15q-1.48.13-3.24.45l-.15,0-.13.16c-.09.1-.24.12-.44,0-.4,0-1.08.15-2.05.34a7.07,7.07,0,0,1-1.31.42l0,.14c.22.28.19.48-.1.61l-.75-.08C209.05,27,208.82,27.1,208.84,27.39Zm2.24.84c-.06-.1-.18-.09-.37,0a3.35,3.35,0,0,1-1.61.3c-.21-.08-.3,0-.28.17l.16.14,1-.17a2.29,2.29,0,0,0,1-.32Q211.17,28.37,211.08,28.23Zm-1.56-9.54a3.83,3.83,0,0,0-1.3.42,1.54,1.54,0,0,0,1.65.15,15.35,15.35,0,0,1,3.21-.75,26.69,26.69,0,0,1,18.22,3.82,17.51,17.51,0,0,1,7,7.31,19.22,19.22,0,0,1,2.35,10.13c.06-.4.12-.83.18-1.28a4.22,4.22,0,0,0-.06-1.41,3,3,0,0,1,0-1.19l.05.59.35.57a25,25,0,0,0-1.67-6.85,20,20,0,0,0-7-7.83,30,30,0,0,0-16.2-4.6,19.25,19.25,0,0,0-3.86.21A18,18,0,0,1,209.52,18.69Zm1,16.89.44,0a.28.28,0,0,1-.23-.05C210.65,35.44,210.58,35.47,210.5,35.58ZM222,69.94c-1.4-.17-2.5-.26-3.3-.29a13.5,13.5,0,0,1-1.94-.12c-.67.36-1.38.73-2.14,1.1a4.32,4.32,0,0,1,1.05.05l.3,0a40.94,40.94,0,0,1,5,.88,6.46,6.46,0,0,1,1.73.21C223.07,71.85,224.23,70.23,222,69.94Zm-9.5-51.08a33,33,0,0,1,4.28-.4,10.78,10.78,0,0,0-2,0,6.3,6.3,0,0,1-1.71,0,1.3,1.3,0,0,0-.36.11C212.57,18.68,212.51,18.76,212.52,18.86Zm9.95,1.31a20.65,20.65,0,0,0-9.12-.34C218.52,19.94,221.56,20.06,222.47,20.17ZM219.2,68.42a.56.56,0,0,0-.29.1,2.25,2.25,0,0,1-.35.18,1,1,0,0,0-.35.25l.74-.06C219.05,68.88,220.58,68.29,219.2,68.42Zm3.94-37.74a4.08,4.08,0,0,1,.55.25l.47.25a.85.85,0,0,0,.53.1l-.3,0,2.7,1.83c1.38,1,2.24,3.81,2.58,8.55a11.67,11.67,0,0,0,.4-2.13c-.1,0-.14.07-.13.17v.14c-.1,0-.1,0,0-.14v-.15c0-.1,0-.42,0-1s-.06-.86-.16-1a2.4,2.4,0,0,1-.29-.72c-.08-.29-.16-.58-.23-.87a3.07,3.07,0,0,0-.29-.72.44.44,0,0,1,.31.12.18.18,0,0,0,.29,0V35.3q-.15,0-.6-.84a8.58,8.58,0,0,0-.79-1.27,8.17,8.17,0,0,0-2.27-2,21.2,21.2,0,0,0-6.17-2.26,1.48,1.48,0,0,1-.52,0,1.46,1.46,0,0,0-.52,0,1.83,1.83,0,0,1-.53,0,1.45,1.45,0,0,0-.52,0,1.26,1.26,0,0,1-.6-.09l-.14.16A15.53,15.53,0,0,1,223.14,30.68Zm3,.17q5.34,3.07,5.2,11.13l.12-.31a12.6,12.6,0,0,0,.25-3.75c-.14-2.46-.8-4.29-2-5.47-.11-.09-.3-.22-.56-.39s-.45-.31-.56-.4a12.85,12.85,0,0,0-3.18-2.23,11.9,11.9,0,0,0-6.08-1.37,6,6,0,0,0-1.66-.15l0,.15A19,19,0,0,1,226.14,30.85Zm7.79-3.48c.39.51.67.86.84,1a4.27,4.27,0,0,0,.88.66,4.09,4.09,0,0,1,1,.8q-3.28-4.9-5.93-6.14v.14a19.39,19.39,0,0,1,2.1,1.74,26.12,26.12,0,0,0-14.48-5.2l0,.29.3,0,.44,0a23.93,23.93,0,0,1,8.09,2.08c.2.08,1.09.55,2.66,1.39A16.14,16.14,0,0,1,233,26.19Zm-.42,14a5.15,5.15,0,0,1-.28,1.74c-.23.76-.38,1.25-.46,1.46.06-.41.18-1,.36-1.68S233.44,41.63,233.51,41.33Zm-.89-9.6a1.49,1.49,0,0,1-.35-.56L232,30.9l.32.27A1.49,1.49,0,0,0,232.62,31.73ZM234.1,77l-.37,0s-.07.06-.06.16a.13.13,0,0,0,.16.13,1.89,1.89,0,0,1,.93.36c0,.2.06.2.14,0v-.15c0-.1-.09-.19-.25-.27A1.63,1.63,0,0,0,234.1,77Zm.65-35.08a4.06,4.06,0,0,1,.1-.53,4.26,4.26,0,0,0-.07.76ZM236,77.61c-.18.22-.21.37-.1.46a.57.57,0,0,0,.45.1.44.44,0,0,1,.12-.31.14.14,0,0,1,.14-.16.43.43,0,0,1-.18-.28l0-.44A4.69,4.69,0,0,1,236,77.61ZM237,76.47c-.32-.17-.51-.11-.58.2s.07.27.17.21.16-.07.22,0,0,.12,0,.22l.4-.48A.13.13,0,0,0,237,76.47Zm1.45-34.41a13.76,13.76,0,0,0,.16-6.27,19.7,19.7,0,0,1-.06,3.28A20,20,0,0,0,238.49,42.06ZM221.75,83.15l-.13-.07c-.4-.3-.53-.47-.4-.52a3.25,3.25,0,0,1-.54-.23s-.08,0-.18,0l-.05.09a1.14,1.14,0,0,0-.07.44c.48.35.81.58,1,.71a6,6,0,0,0,1.13.73l.6.44c-.14,0,0,.17.32.35l.26.14a6.06,6.06,0,0,0,1.43.78l.39.21c.47.38,1,.76,1.57,1.15.24.17.38.23.42.17s.13,0,.31,0a1.67,1.67,0,0,1,.34.31c.21.23.38.34.5.33l.15,0c.18.1.27.13.29.1s-.24-.29-.61-.45l-.1-.12-.13-.07a7.82,7.82,0,0,0-1.39-.87.87.87,0,0,1-.39-.21,6.39,6.39,0,0,0-1-.86Q224.91,85.41,221.75,83.15Zm2.09.64-.1-.05q-.44-.34-.27-.42a1.86,1.86,0,0,1-.41-.17s-.07,0-.15,0l0,.09a1.15,1.15,0,0,0-.08.38c.35.27.59.45.7.55a3.29,3.29,0,0,0,.83.55l.44.35c-.11.05,0,.14.23.28l.19.11a3.75,3.75,0,0,0,1.07.57l.29.16c.34.29.73.59,1.15.89.18.13.28.17.31.12s.11,0,.24,0a.87.87,0,0,1,.25.24c.14.19.27.27.36.25H229c.13.07.2.09.22.06s-.17-.23-.44-.34l-.08-.1-.09-.05a5.26,5.26,0,0,0-1-.66.53.53,0,0,1-.29-.16,4.8,4.8,0,0,0-.76-.68C226.27,85.63,225.39,85,223.84,83.79Zm2.91,1.33.1,0c.29.23.39.37.28.42a2.09,2.09,0,0,1,.41.17s.06,0,.14,0l0-.09a1.36,1.36,0,0,0,.09-.38c-.36-.27-.6-.45-.71-.55a3.62,3.62,0,0,0-.83-.55l-.44-.35c.11,0,0-.14-.22-.28l-.2-.1a3.59,3.59,0,0,0-1.06-.58l-.29-.16c-.35-.29-.73-.59-1.15-.89-.18-.13-.29-.17-.32-.11s-.11,0-.24,0a.87.87,0,0,1-.24-.24c-.15-.18-.27-.27-.37-.25h-.12q-.19-.1-.21-.06c0,.11.16.23.44.34l.07.1.1,0a5,5,0,0,0,1,.66.53.53,0,0,1,.29.16,5.51,5.51,0,0,0,.76.68C224.32,83.28,225.21,84,226.75,85.12Z"/><path class="cls-1" d="M354.21,33.75c.21.18.33.93.36,2.27a13,13,0,0,1-.66,4.16A19.63,19.63,0,0,1,352,45a4.27,4.27,0,0,1-3,1.47c-.19,0-.57,1.07-1.12,3.16s-1.14,4.32-1.76,6.71-1,3.74-1,4-.16.44-.24.69a3,3,0,0,1-.24.62,4.5,4.5,0,0,0-.24.62c-.08.26-.15.49-.23.69q-2.88,9.19-6,13.51A22.8,22.8,0,0,1,333.89,81a21.1,21.1,0,0,1-9.18,3.83,15.5,15.5,0,0,1-7.19-.45,13,13,0,0,1-6.16-3.82Q306.9,76,305.63,67a92.91,92.91,0,0,1-1-10.48,57.88,57.88,0,0,1,.6-9.58q2.46-18.39,10.64-29.73,5.78-8.26,13.87-9.32,7.53-.7,10.22,1a16.83,16.83,0,0,1,7.17,8.27q1.81,3.56.92,5.94c-.6,1.6-2.5,2.79-5.7,3.59a6.08,6.08,0,0,1-4.49-.26,4.14,4.14,0,0,1-2.16-2.48,8.18,8.18,0,0,0-1.29-2.63,2.18,2.18,0,0,0-2.31-.83,7.15,7.15,0,0,0-3.66,2.28,17.08,17.08,0,0,0-2.38,3.2q-.76,1.41-2.14,4.21a13.58,13.58,0,0,1-1.06,2.26c-.63,1.2-1.09,2.14-1.37,2.81a21.55,21.55,0,0,0-.83,2.38,6.62,6.62,0,0,0-.31,2.27c0,.29.29.47.8.52a3,3,0,0,0,1.32-.13,3.9,3.9,0,0,0,.72-.29,1.21,1.21,0,0,1,.44-.11.62.62,0,0,0,.43-.19,2.82,2.82,0,0,1,.71-.29,4.48,4.48,0,0,1,.59-.13,15.51,15.51,0,0,1,3.34-.9,2.29,2.29,0,0,0,.57-.21,2.79,2.79,0,0,1,.58-.2,8.83,8.83,0,0,0,1.1-.18c.44-.08.76-.14.95-.16a16.73,16.73,0,0,1,2.47-.68l3.05-.87a6.81,6.81,0,0,0,1.16-.33c.58-.21,1-.34,1.3-.42s1-.22,2.19-.43l.74-.07.59,0a4,4,0,0,1,1.76-.32,1.52,1.52,0,0,0,.44-.11,1.86,1.86,0,0,1,.51-.12l.44,0,.52,0,2.17-.65,4-.22A1.18,1.18,0,0,1,354.21,33.75ZM345,57.83c.15-.51.29-1.12.43-1.83a2,2,0,0,0-1,1.74c-.15.61-.51,2-1.1,4.27a68.82,68.82,0,0,1-4.87,11.62,19,19,0,0,1-10.47,9.16,14.63,14.63,0,0,1-14.79-2.2q-4.72-4.34-6.13-13.13a27.09,27.09,0,0,0,.92,5.13,1,1,0,0,1-.27-.5c-.07-.24-.14-.46-.21-.65s-.15-.28-.25-.28q1.94,6.38,4.25,8.84a13.4,13.4,0,0,0,7.23,4.17,14,14,0,0,0,8.15-.39A19.44,19.44,0,0,0,337,76.43a38,38,0,0,0,5.3-10.31q1.43-3.86,1.65-4.62A23.76,23.76,0,0,1,345,57.83Zm-31.49,5.6,0-.29q.57,7.69,2.87,11.64a6.69,6.69,0,0,0,2.58,2.14c1.58,1,3.62,1.06,6.14.33q4.77-1.48,8.1-7.3a5.59,5.59,0,0,0,1.1-2.64l.61-1.39c.4.06.68-.22.82-.82a1,1,0,0,1,.11-.46l.09-.61a9.85,9.85,0,0,0,.7-3.63,1.52,1.52,0,0,1,.23-.77c.55-1.54,1.06-3,1.52-4.46.06-.4.09-.63.09-.68s-.06-.07-.16-.06c-.29,0-.46-.15-.5-.55a8.84,8.84,0,0,0,.65-1.1c.33-.62.45-1,.33-1.22a.6.6,0,0,1-.19-.43,1.11,1.11,0,0,1-.19-.43,2.87,2.87,0,0,0-.44,1.68.42.42,0,0,1-.12.31.42.42,0,0,0-.12.31,34.48,34.48,0,0,0-.85,3.65c0,.4,0,.65-.23.77a3.55,3.55,0,0,0-.51.86,6.82,6.82,0,0,0-.41,1.23,2.39,2.39,0,0,1-.43,1c-.23.72-.52,1.56-.88,2.54s-.67,1.8-1,2.47-.61,1.4-1,2.17a16.31,16.31,0,0,1-1.08,2c-.51.94-.92,1.33-1.23,1.15a3.19,3.19,0,0,1-1,1.88,12.91,12.91,0,0,1-4.22,2.63c-2.58,1.13-4.74.89-6.47-.74q-1.93-1.61-3-6.27a65.27,65.27,0,0,1-1.23-11.65,59.83,59.83,0,0,1,0-8V47.14l0-.44a.3.3,0,0,0-.1-.22c-.05,0-.12,0-.22,0s-.17.34-.22.84a.6.6,0,0,0-.1.46c0,.2,0,.3-.12.31q-.42,6.74-.21,12.22l.14,1.48Zm7.18,14.82c-.42-.26-1-.55-1.64-.89a5.32,5.32,0,0,0-1.16-.49,6.6,6.6,0,0,0,2.2,1.29A2.33,2.33,0,0,0,320.67,78.25ZM318.1,58.54l.44,4.72q1.23,8.52,5,7.72,4.81-1,9.45-15.32c.07-.3.17-.76.32-1.36l.48-1.24c.37-1.32.6-2.09.68-2.3a10.58,10.58,0,0,1,.4-2.12,15.38,15.38,0,0,1-1.59.6,3.68,3.68,0,0,1,1.72-.76,2.62,2.62,0,0,0,.23-.77l-.59.06a2.7,2.7,0,0,1-.87.3c-.39.09-.63.14-.73.15-1.94.47-3,.72-3.06.73a3.32,3.32,0,0,0-.51.12,4.3,4.3,0,0,1-.58.13c-.15,0-.22.12-.2.31l.49.4a2.35,2.35,0,0,1,.94-.23,2.22,2.22,0,0,0,1-.24,2.89,2.89,0,0,1,.86-.3c.39-.09.64-.14.74-.15l-.15,0a.13.13,0,0,0,.16.13,5.62,5.62,0,0,1-1.95.7,6.46,6.46,0,0,0-2.22.88c.09-.1-.28,0-1.1.25a28.38,28.38,0,0,1-2.75.78,5.8,5.8,0,0,1-2,.26,2.08,2.08,0,0,1-.23-.87l0-.3a1,1,0,0,0-.49-.4.38.38,0,0,1-.17-.28.14.14,0,0,0-.17-.14q-1.32-1.52-1.8-8.17a64.69,64.69,0,0,0-1.6,16.38A.42.42,0,0,1,318.1,58.54Zm6.2-18.15a.64.64,0,0,0-.43.19.4.4,0,0,0,.18.28l.44,0a5.31,5.31,0,0,0,1-.39c1.15-.4,3.06-.93,5.73-1.57s4.68-1.18,6-1.6c-.11-.09-.45-.06-1,.09l.13-.16.14-.16a3.44,3.44,0,0,1-1.1.25l-1,.09a2.55,2.55,0,0,1-.86.3l-1.09.25a5.45,5.45,0,0,0-.94.31,23.85,23.85,0,0,1-5.23,1.38,2.92,2.92,0,0,0-1.16.41A1.56,1.56,0,0,1,324.3,40.39Zm11.06,5.23a14.36,14.36,0,0,0,1.74-.46c.16-.41.14-.61-.05-.59l-.5-.55a.6.6,0,0,1-.43.19,1.84,1.84,0,0,0-.25.47l0-.44c-1.76.36-3.37.66-4.83.89a4.81,4.81,0,0,1-1.53.44c-.44,0-.71.12-.79.23l-.29.17a.4.4,0,0,0-.61-.24,1.31,1.31,0,0,0-.67.81c0,.1,0,.15-.14.16a4.72,4.72,0,0,0-1.16.25c.06.69,0,1.1-.19,1.21.48-.14.76-.31.85-.52s.12-.26.13-.16l.9.06c.1,0,.92-.18,2.48-.53.29-.12.44,0,.47.26a1,1,0,0,1,.7-.51l.73-.15a2.63,2.63,0,0,0,.86-.3A9.08,9.08,0,0,1,335.36,45.62Zm-9.09,3.08c-.11-.09-.16-.08-.15,0-.2,0-.29.08-.28.18V49a.54.54,0,0,0,.36-.1A.33.33,0,0,0,326.27,48.7Zm-.89-8,1.3-.42a4.13,4.13,0,0,0-.58.13c-.29.08-.5.07-.6,0A.42.42,0,0,0,325.38,40.74ZM336.29,46a3.82,3.82,0,0,0-1.6.45.45.45,0,0,0-.28.17.45.45,0,0,1-.28.18,3.76,3.76,0,0,0-.87.23,1.92,1.92,0,0,1-1,.09,14.74,14.74,0,0,0-2.59,1,.47.47,0,0,1-.35.18.52.52,0,0,0-.36.18l0,.15a6.5,6.5,0,0,1,1.82-.39,16.85,16.85,0,0,0,2.27-.44,10.3,10.3,0,0,1,1.37-.42,11.52,11.52,0,0,1,1.24-.27c.08-.2.19-.44.31-.7S336.19,46,336.29,46Zm1.38,5.23a.74.74,0,0,0,.07-.75,7.22,7.22,0,0,0-.45,1.53A3.43,3.43,0,0,1,337.67,51.21Zm-.59-4.71a.83.83,0,0,0,.58-.2c-.05-.49,0-.65.25-.47,0,.1.11.12.3.05s.3-.05.3,0a1.62,1.62,0,0,1,.57-.35l0-.14v-.15a3.27,3.27,0,0,0-.8.22,3.53,3.53,0,0,1-.65.21l-.43.19A1.29,1.29,0,0,0,337.08,46.5Zm1.19-1.6a.46.46,0,0,1-.47-.25c-.12-.19-.25,0-.4.48h.15a.45.45,0,0,1,.35-.18Zm5,16.37c-.41,1-1,2.77-1.9,5.24a22.11,22.11,0,0,0,.9-2.32,11.84,11.84,0,0,1,.92-2.17,1.11,1.11,0,0,1,.1-.46C343.32,61.36,343.31,61.26,343.22,61.27Zm-2.94-17.15a1.87,1.87,0,0,0-.56.35,4.65,4.65,0,0,0,.71-.36,6.63,6.63,0,0,0,1-.39,1.05,1.05,0,0,0-.43.19A2.36,2.36,0,0,0,340.28,44.12Z"/><path class="cls-1" d="M374.48,47.83a20.86,20.86,0,0,0-1.06,6.2Q374,50.12,374.48,47.83Z"/><path class="cls-1" d="M407.62,10.21c-.32-.17-.34-.36-.06-.59l.14-.16c-.11-.09-.13-.24-.05-.44s.13-.21-.17-.29l-.2-.57c.28-.13.34-.53.18-1.21l0-.44,0-.45a2.69,2.69,0,0,0-.11-.43,2,2,0,0,1-.12-.44.94.94,0,0,1,.07-.9A1,1,0,0,0,407,3.12l0-.14a15.46,15.46,0,0,0-.88-1.56,2.18,2.18,0,0,0-.8-.59,5.2,5.2,0,0,1-.79-.45.89.89,0,0,0-.78-.38c-.39,0-1,.08-1.92.11s-1.54.07-1.93.1c-1.27.22-2,.34-2.35.37-1,.09-2.14.15-3.48.17s-2.21.06-2.6.1l-3,.27a13.17,13.17,0,0,0-1.61.3,11,11,0,0,1-1.46.28l-3.81.66c-.4,0-1.47.23-3.22.59l-1,.17a14.29,14.29,0,0,1-1.47.21,6.21,6.21,0,0,0-.8.15,5.27,5.27,0,0,1-.66.14,23,23,0,0,0-4.39.85,2.13,2.13,0,0,0-.44.12,2.32,2.32,0,0,1-.58.13.59.59,0,0,0-.43.18.85.85,0,0,1-.57.21l-.59,0L362.86,6c-.18.22-.21.37-.11.46q-1.33,6.38.27,7.71a5.33,5.33,0,0,0,1.13.94l.19.43c0,.1.12.19.32.27.41.16.61.36.58.61a1.51,1.51,0,0,0,.15.81,1.11,1.11,0,0,0,.43-.19,1.11,1.11,0,0,1,.43-.19.5.5,0,0,1,.6.09,1.38,1.38,0,0,1,.46.11l0,.3a.62.62,0,0,0,.62.24l.12-.31,0-.15.15,0c-.09,1.2-.16,2.06-.21,2.56-.22.81-.6,2.36-1.13,4.64s-.9,3.93-1.11,4.94c-.43,1.73-.79,3.26-1.06,4.57a19.33,19.33,0,0,0-.33,2.86h-.15a2.56,2.56,0,0,0-1.32.2,2.4,2.4,0,0,0-1.11.85c-.26.37-.51.74-.72,1.11s-.38.68-.51.94-.19.34-.2.24-.07-.27-.17-.21a.24.24,0,0,0-.12.24v.14l.08.89,0,.15a.3.3,0,0,0-.1-.22.29.29,0,0,1-.09-.21c0-.1,0-.15-.09-.14s-.07,0-.06.15c-.12.81-.09,1.2.11,1.18l.05.59c-.07.31,0,.5.21.58l.05.59-.16-.13a11.45,11.45,0,0,0,.39,1.75,11.06,11.06,0,0,1,.37,1.6l.32.27,0,.15c.16.68.31,1.21.44,1.59l.59-.05-.3,1.51c-.21,1-.46,2.33-.75,3.94s-.61,3.34-.94,5.15-.63,3.64-.91,5.45-.46,3.32-.55,4.52a12,12,0,0,0-.25,2.85,9.87,9.87,0,0,0,.28,2.21,7.74,7.74,0,0,0,.59,1.58,8.1,8.1,0,0,0,.62,1.06,1.35,1.35,0,0,1,.27.49l.16.14.15,0,.31.12a1.53,1.53,0,0,0,.33.42.45.45,0,0,0-.28.17c0,.2.08.3.18.29a.4.4,0,0,1,.3.12.42.42,0,0,0,.31.12q1.85,2.2,4,1.12,2.4-1.42,15.93-4.76c.1,0,1.22-.26,3.36-.76q2.79-.41,10.33-1l.16.14.14-.16.44,0c.12.29.32.27.59,0s.32-.25.44-.12.36.15.74,0a.14.14,0,0,0,.14-.16,1.83,1.83,0,0,0,1.27-.72c.28-.22.31-.37.11-.45s-.11-.07,0-.22.08-.28,0-.37l.13-.16a1.11,1.11,0,0,1,.43-.19c.3,0,.44-.14.42-.34s0-.25-.19-.43-.32-.27-.06-.59v-.15c-.21-.07-.21-.17,0-.29s.18-.22,0-.3-.31,0-.32-.19l0-.37c.27-.22.29-.62,0-1.19a7,7,0,0,0-.15-.88,7.44,7.44,0,0,1-.16-.88,1.43,1.43,0,0,1-.08-.89,1.27,1.27,0,0,0-.24-1l-.16-.13a5.47,5.47,0,0,0-.73-1.42,1.67,1.67,0,0,0-.72-.53,3.35,3.35,0,0,1-.71-.38.88.88,0,0,0-.78-.38,5.28,5.28,0,0,1-1.53.3,7.41,7.41,0,0,0-1.69.3,15.86,15.86,0,0,1-2,.49l-5.16.48a15.18,15.18,0,0,0-2.5.38,10.73,10.73,0,0,0-1.39.28,4.52,4.52,0,0,0-1.22.41c-1.76.36-2.88.56-3.37.61a13.38,13.38,0,0,1-2.63.54,2.32,2.32,0,0,0-.58.13,2,2,0,0,1-.51.12l-.52,0-.59.05a8.4,8.4,0,0,0-.87.23.58.58,0,0,1,.24-.61c-.07.3-.06.45,0,.44a27.5,27.5,0,0,1,.62-5.34c.43-2.28.71-3.87.82-4.77a.13.13,0,0,0-.13.16c0,.1,0,.15-.14.16l0-.29a4.1,4.1,0,0,1-.12,1.12c-.11.46-.21.92-.32,1.37a3.52,3.52,0,0,0-.12,1.13c-.06.41-.17.89-.31,1.44s-.27,1.12-.37,1.68a5.19,5.19,0,0,0-.09,1.42.7.7,0,0,1-.68.66c-.2,0-.26-.13-.19-.43s.15-.76.24-1.36.18-1.06.25-1.37c0-.09.42-2.42,1.29-7,.07-.31.16-.69.26-1.15s.19-.88.26-1.29l.18-1.2a21,21,0,0,0,.64-2.74,16.59,16.59,0,0,1,2.76-.71,5.57,5.57,0,0,0-2.62.55,3.06,3.06,0,0,0,.09-.61l0-.15c.1,0,.21.13.34.42l.23-.77.74-.06a5.24,5.24,0,0,0,1.77-.17.28.28,0,0,1-.06.23.33.33,0,0,0-.05.23c.2,0,5.18-.54,4.75-.32h.21L392,45a2.22,2.22,0,0,0,2-2.42l-.7-7.59a2.23,2.23,0,0,0-2.42-2S378,34.7,377.73,34.72q2.06-10,4.26-18.26c.1,0,.13.06.1.22a.32.32,0,0,0,.11.36,5.36,5.36,0,0,1,.2-1.06,2.61,2.61,0,0,1,.55-1.25.84.84,0,0,1,.8-.22.33.33,0,0,0,0-.37,1.14,1.14,0,0,1-.11-.37q8.29-.46,18.39-.81h.14l.59-.06c.23.28.42.26.59-.05l.15,0,.44,0c.12.19.42.26.92.21l0-.22s0-.08.14-.08a2.15,2.15,0,0,0,1.59-.45c.18-.21.17-.36,0-.44s-.08-.07.06-.23.14-.29,0-.38l.13-.16a1.3,1.3,0,0,1,.43-.19q.6.09.72-.21T407.62,10.21ZM365.73,16c.09,0,.25.07.46.25l.18.28C366,16.31,365.73,16.14,365.73,16Zm21.2-5.7.17.14c-.68.26-1.5.53-2.46.82a.94.94,0,0,0,.39-.63ZM369.82,33.67c0-.3,0-.57.07-.82A8.4,8.4,0,0,1,370,32a3.65,3.65,0,0,1,.36-.92,18.49,18.49,0,0,1-.73,3.34A2.92,2.92,0,0,0,369.82,33.67Zm2.11,5.09a.32.32,0,0,0,.05-.23,4,4,0,0,0,1.17-.25,1.13,1.13,0,0,1-.11.45l-.44,0a1.17,1.17,0,0,1-.72.22h-.15l-.15,0,0-.3a.47.47,0,0,0,.29-.17l0,.44A.29.29,0,0,1,371.93,38.76Zm.94,1.33c-.38.13-.86.28-1.45.43l0-.3Zm-.32,1.37,0,.44L372,42a1,1,0,0,0-.36.1c-.14.07-.21.15-.2.25l-.44,0a1.64,1.64,0,0,0,.24-.62l.15,0ZM371,46.07l-.81.08a1.38,1.38,0,0,0,.11-.46l1.59-.45a1.09,1.09,0,0,1,0,.38,1.4,1.4,0,0,0,0,.38Zm.71.38a1.4,1.4,0,0,1,0,.38,1.06,1.06,0,0,0,0,.37l-.15,0-.3,0a4,4,0,0,1-1.31.27,1.09,1.09,0,0,1,0-.38.89.89,0,0,1,.19-.39Zm-.18-1.92a1.09,1.09,0,0,0-.7.51.26.26,0,0,0-.32-.26l.11-.46a4.84,4.84,0,0,1,.22-.77l.11-.45a1.18,1.18,0,0,0,.43-.19l1-.1a5.27,5.27,0,0,0-.19,1.21,1.11,1.11,0,0,0-.1.46Zm-1.41-3.89.12-.31h.3l-.12.31Zm-.4-5.91a4.7,4.7,0,0,1-.18,1.2l-.15,0A5.68,5.68,0,0,1,369.69,34.73Zm-.26,2a1.09,1.09,0,0,1-.11.45l-.15,0V37l.12-.31Zm-.8-1.42.3-.77c-.07.3-.17.81-.31,1.52h-.14A1.72,1.72,0,0,1,368.63,35.27Zm.51,3.08-.14.16-.14,0A.4.4,0,0,1,369.14,38.35Zm-.23.77v.14l0,.15-.3,0v-.15Zm-.66-2.32.29,0a1,1,0,0,1-.1.45l-.15,0Zm.87,7.81c.15-.51.28-.72.39-.64s.23.33.07.74v.15l-.59,0A.4.4,0,0,0,369.12,44.61Zm.27,1.31,0,.3-.44,0,0-.15A.6.6,0,0,0,369.39,45.92Zm-1.08-5.26h.15v.14l-.15,0Zm.43,6.21.59,0,.07.74a1.39,1.39,0,0,1-.43.19l0-.15q-.29,0-.33-.42C368.6,47,368.64,46.88,368.74,46.87Zm.7,1.13a2.59,2.59,0,0,1-.72,1.85,6.3,6.3,0,0,1,.14-1.65L369,48Zm-1.1,1,.09-.61c0-.1.09-.16.28-.17a1,1,0,0,1,0,.37c0,.15-.07.33-.1.53a2,2,0,0,0,0,.45C368.33,49.49,368.27,49.3,368.34,49Zm-1.4,7.42.14-.16.46-3a2.41,2.41,0,0,1,0-.6.35.35,0,0,1,.34-.33c.2,0,.26.13.19.43a4.5,4.5,0,0,0-.2,1.06,3.22,3.22,0,0,1-.33,1.22,1,1,0,0,0-.09.68l.07.67-.08.75-.58.2A7.25,7.25,0,0,1,366.94,56.42Zm-.1,6.86c.09,0,.14-.11.12-.31q-.07-.73.39-.63l.21-.91a3.12,3.12,0,0,1,.14-1.66,12.06,12.06,0,0,0,.36-1.74c.09-.65.16-1.23.21-1.73s.13-1.08.21-1.73a11.93,11.93,0,0,1,.36-1.75c.45-2.62.72-4,.8-4.24a1.09,1.09,0,0,1,0-.38,1.06,1.06,0,0,0,0-.37c.29,0,.88-.14,1.76-.32-.6,3.24-.91,5.2-.94,5.9a13.12,13.12,0,0,1-.42,2,5.75,5.75,0,0,0-.29,1.67,3.53,3.53,0,0,0,0,1.63c-.19,0-.36.33-.5.94a21.83,21.83,0,0,0-.45,2.43,22.83,22.83,0,0,1-.67,3.19,1.13,1.13,0,0,0-.08.75l-.44,0-.45,0h-.14l0-.29a1.17,1.17,0,0,0,.11-.46A4,4,0,0,1,366.84,63.28Zm.81,3.94a3.61,3.61,0,0,1-.75-.08l0-.29H367a1.65,1.65,0,0,1,.72-.22l-.12.31ZM368.87,74a.6.6,0,0,0-.46-.11,5.05,5.05,0,0,1,.86-.37C369.22,74,369.09,74.14,368.87,74Zm9.92,1q-4.8,1.2-8.45,2V76.8c-.12-.18-.11-.29,0-.3l.45,0a2,2,0,0,0,.51-.12,1.92,1.92,0,0,1,.43-.12c.1,0,1.26-.27,3.5-.77a5.46,5.46,0,0,0,.8-.22A5.15,5.15,0,0,1,377,75a8,8,0,0,0,1.75-.31l0,.15C378.87,74.82,378.88,74.87,378.79,75ZM384,73.59a4.6,4.6,0,0,1-1.15.41,9.59,9.59,0,0,1-1.32.27h-.14l0-.14L385,73.2A1.42,1.42,0,0,1,384,73.59Zm-12.73-7.3,0-.29c1.07-.2,1.95-.38,2.63-.55a11.77,11.77,0,0,1,1.16-.33l1.17-.26a10.28,10.28,0,0,1,1-.17,2.12,2.12,0,0,1,1-.16,2.17,2.17,0,0,0,1-.17c0,.1-.08.2-.26.32l.59-.06a.89.89,0,0,1,.6.1q-2.34.51-9.07,1.73A.14.14,0,0,0,371.29,66.29Zm1.89,6a12.68,12.68,0,0,0,1.59-.52c1.36-.32,2.09-.49,2.19-.5a2.19,2.19,0,0,0,1.18-.11,3,3,0,0,1,1.33-.12,10.54,10.54,0,0,0,2.47-.68c.19,0,.88-.13,2.05-.34l1.92-.17c.19,0,.3,0,.31.12a.19.19,0,0,1,0,.29,1.47,1.47,0,0,1-.57.35,3.73,3.73,0,0,0-.66.14,7.93,7.93,0,0,0-.79.29,6.49,6.49,0,0,0-.71.37,9.71,9.71,0,0,0-1.38.35,9.7,9.7,0,0,1-1.82.39,10.8,10.8,0,0,1-2.47.68c-1.56.34-2.53.58-2.91.71a4.91,4.91,0,0,1-1,.32,7.74,7.74,0,0,1-.87.16.6.6,0,0,0-.57.35h-.15a.82.82,0,0,0-.6-.09l-.88.08-.19-.43c-.18.22-.32.33-.42.34a.42.42,0,0,1-.31-.12,1.17,1.17,0,0,0-.45-.11c-.11-.09-.13-.23-.05-.44s.17-.31.27-.32.36.06.44,0V73.1a.59.59,0,0,0,.36-.11.35.35,0,0,1,.22-.1h.15l.13-.16.29,0A10.31,10.31,0,0,0,373.18,72.29Zm-.64-22.12c-.29,1.66-.5,2.85-.63,3.56s-.29,1.73-.49,2.8-.44,2.17-.73,3.34-.5,2.11-.63,2.81l-.15,0a1.5,1.5,0,0,1,0-.53q0-.22.09-.6a3.68,3.68,0,0,0,0-.53q.69-5.41.92-6.18c.06-.41.14-.84.25-1.29a10.81,10.81,0,0,0,.24-1.44c.05-.5.11-1,.17-1.36a5.13,5.13,0,0,0,.17-1.35,9.22,9.22,0,0,1,.27-2,8.4,8.4,0,0,1,.87-.23.14.14,0,0,0-.16-.14h.15l0-.15a1.65,1.65,0,0,1-.72.22l0-.3a1.09,1.09,0,0,0,.11-.45l.59-.06.29,0C373,47.22,372.83,48.5,372.54,50.17Zm.76-4.69a1.11,1.11,0,0,0,0,.38l-.44,0-.45,0a1.44,1.44,0,0,1,0-.38.91.91,0,0,1,.19-.38l.15,0,.59,0A1.33,1.33,0,0,1,373.3,45.48Zm.34-2a2,2,0,0,1-.22.84h-.15l-.59.05q.33-1.22.45-1.53l0-.29.6-.06A7,7,0,0,1,373.64,43.52Zm-.5-5.39-.3,0V38l.44,0A.13.13,0,0,0,373.14,38.13Zm.41-2a.47.47,0,0,0-.13.24l0,.22-.74.07-.73.07a.6.6,0,0,1,.1-.46l.3,0a1.3,1.3,0,0,1,.43-.19l.44,0,.3,0ZM371,5.63a4.29,4.29,0,0,1,.64-.11Zm2.57,25.46.1-.45c.19-.12.29-.08.31.12a1.81,1.81,0,0,1,.1,1c-.07.4-.2,1.61-.41,3.61l-.3,0-1,.1a2.48,2.48,0,0,0,.08-.76C372.68,33.76,373.06,32.53,373.53,31.09Zm2.7,9.88,0,.29h.14a.47.47,0,0,1,.12-.31,2.79,2.79,0,0,1,.58-.2c.3,0,.45.06.47.25a.29.29,0,0,1-.43.19,4.56,4.56,0,0,0-.86.38c-.66.36-1.09.5-1.3.42a1.17,1.17,0,0,0,.11-.46,1.65,1.65,0,0,1,.72-.22l-.73.07.13-.16v-.15l-.14.16c0,.1,0,.16-.13.17l0-.3.3,0h.14Zm-.73-3.06.13-.16A.13.13,0,0,1,375.5,37.91Zm.8-3.35a.89.89,0,0,1-.18.46l.2-1.06A2.41,2.41,0,0,1,376.3,34.56Zm.46.85.05.59-.3,0A1.55,1.55,0,0,1,376.76,35.41ZM375.19,33a10.34,10.34,0,0,1,.55-3.77A9.84,9.84,0,0,1,375.19,33Zm1,2.44a2,2,0,0,1,0,.38,1.09,1.09,0,0,0,0,.38h-.15l.08-.75Zm2.95,5.38V41l-.95.08C378.54,41,378.85,40.9,379.12,40.84Zm-.83-1.7.67-.06v.18A2.13,2.13,0,0,1,378.29,39.14Zm.53-1.55a6.32,6.32,0,0,1-1.12,0c.43-.08.79-.13,1.1-.16Zm.4,4.36.12,1.24a4.86,4.86,0,0,0-.8.24c-.2,0-1,.14-2.35.37l-.73.07-.74.07a.42.42,0,0,0,.12-.31,1.91,1.91,0,0,1,.17-1.36l.3,0,1.32-.12,1.19-.11A3.24,3.24,0,0,0,379.22,42Zm-4.65,3.64a1.4,1.4,0,0,1,0-.38,1,1,0,0,0,0-.37,2,2,0,0,0,.44-.12c.19-.07.28-.15.27-.25l3.25-.3a1.46,1.46,0,0,1,.72-.29h.07V44a2.38,2.38,0,0,0,0,.26A27.38,27.38,0,0,1,374.57,45.59Zm8.88-2.17a3,3,0,0,1,1.9-.47A3.62,3.62,0,0,1,383.45,43.42Zm.7-2.15a.14.14,0,0,1,.16.14.18.18,0,0,1,0,.29c-.18.22-.32.33-.42.34a5.18,5.18,0,0,0-1.23.34h0l.75-1.11Zm-6.07-6a.23.23,0,0,1-.12.23.67.67,0,0,1-.29.1c.1.09.3.1.6,0a.85.85,0,0,1,.5,0,.09.09,0,0,0,0,0,5.2,5.2,0,0,0-.63.12,4.46,4.46,0,0,1-.58.13,2.33,2.33,0,0,1,.09-.6Zm2.21-31.55c-1.91.33-3.74.64-5.49,1s-3.32.63-4.68,1c.09.08.27.08.51,0l-.79.14.28-.18a3.72,3.72,0,0,0-1.3.42c-.28.23-.53.15-.77-.23a1.44,1.44,0,0,1,.58-.2,2.07,2.07,0,0,0,1.15-.4A3.49,3.49,0,0,1,371.25,5c3.31-.6,5.51-1.05,6.57-1.35a17.84,17.84,0,0,1,2.05-.42,8.07,8.07,0,0,0,1.75-.38c.29,0,.71,0,1.26,0a3.38,3.38,0,0,0,1.25-.19c0,.09-.13.21-.42.33l.67-.06a1.87,1.87,0,0,1,.82.07Zm9.35,8.44a17.9,17.9,0,0,0-2.18.65l-3.25.3a.85.85,0,0,0,.24-.62l.3,0a1.09,1.09,0,0,1,.65-.21l.66-.06.14-.16h-.15v-.14c1.37-.23,2.79-.41,4.26-.55a2.83,2.83,0,0,1-.94.24,7.14,7.14,0,0,0-1,.17,6.9,6.9,0,0,1-.8.15A3,3,0,0,1,389.64,12.18Zm1-2,.57-.2,1.48-.14A5.2,5.2,0,0,1,390.64,10.15Zm.48,24.52c-3.2.8-6,1.45-8.45,2V36.5c-.12-.19-.1-.29,0-.3l.45,0a3.6,3.6,0,0,0,.51-.12,1.92,1.92,0,0,1,.43-.12c.1,0,1.27-.27,3.5-.77a5.46,5.46,0,0,0,.8-.22,5.35,5.35,0,0,1,.95-.24,8.22,8.22,0,0,0,1.76-.31v.14C391.21,34.52,391.21,34.57,391.12,34.67Zm-1.32-.47a5.19,5.19,0,0,1-1.15.4,7.37,7.37,0,0,1-1.31.27l-.15,0,0-.15,3.64-.93A1.49,1.49,0,0,1,389.8,34.2Z"/><path class="cls-1" d="M382.32,70.48a1,1,0,0,0-.65.21,3.65,3.65,0,0,0,1.31-.28Z"/><path class="cls-1" d="M268.47,70.85a.76.76,0,0,1-.16.06A.4.4,0,0,0,268.47,70.85Z"/><path class="cls-1" d="M292.76,54.35a4.55,4.55,0,0,0-.51-1.44.42.42,0,0,0-.31-.12l-2-21.7c-.09-.89-.15-1.8-.18-2.74s-.07-1.76-.08-2.45,0-1.36,0-2,.08-1.28.13-1.88a28.05,28.05,0,0,1,.34-4.34q-.85-2.76-2.56-3.49a15.12,15.12,0,0,0-3-.46,16.68,16.68,0,0,0-4.48-.11A12.73,12.73,0,0,0,277,14a.13.13,0,0,1-.13.16l-.15,0v.15c-1.2.9-2.48,3.16-3.84,6.75q-2.12,6-11.53,31.3a1.77,1.77,0,0,0-.23.76q-3.22,8.49-3.94,10.49a3.64,3.64,0,0,1-.49.27.94.94,0,0,0-.35.26,4.69,4.69,0,0,0-.33.48,3.26,3.26,0,0,0-.31.62c-.08.21-.21.49-.37.86A6.08,6.08,0,0,0,255,67c-.08.26-.22.64-.42,1.16a11.31,11.31,0,0,1-.55,1.24c-.24.62-.44,1.18-.59,1.69-1.09,3.18-1.25,4.73-.46,4.66q-4.56,13.38-4.39,13.66a4.78,4.78,0,0,0,5,2.81,31.49,31.49,0,0,0,5.43-.88,4,4,0,0,0,2.63-2.1l1.05-3.08a1.64,1.64,0,0,1,.24-.62l.32-1.37q.79-2.59,4.15-13a.45.45,0,0,1,.28-.17h-.15a15.2,15.2,0,0,0,1.57-.5c-.31.18-.53.31-.67.37.22-.09.44-.18.63-.24a3.62,3.62,0,0,0,.72-.29,1.85,1.85,0,0,1,.65-.2c.58-.16,1.74-.51,3.48-1.07s3-.92,3.77-1.1a3.42,3.42,0,0,1-1.31.42l.17.14c.58-.16,1.39-.43,2.45-.83s1.73-.65,2-.78q.68,5.59,1.24,10.16c.38,3,1.52,13.24,1.67,14.36s.3,2.11.42,2.94a8.78,8.78,0,0,0,.57,2.11c.24.47,1.79.6,4.65.38s4.52-.54,5-1a.47.47,0,0,0,.28-.17c.73-.67,1.06-1.94,1-3.82s-1.58-16.33-2.78-27.14c.55-.54.64-2.68.3-6.43A27.11,27.11,0,0,0,292.76,54.35ZM278.29,40.5l0,.45.07.66.07.74.06.66,1.19,12.85-.3,0-3,.88a8.88,8.88,0,0,1-1.21.56,11.88,11.88,0,0,0-1.22.56,5.49,5.49,0,0,0-1.37.43,5.4,5.4,0,0,1-1.38.42l7-18.06Zm-8.38,5.18a5.06,5.06,0,0,0,.31-.78c.07-.25.15-.48.23-.69.21.18.11.69-.31,1.52l-1.44,3.71q-.24.62-.39.63c-.2-.08-.18-.38.07-.9a11,11,0,0,0,.56-2,9.45,9.45,0,0,1,1.32-3.4,10.9,10.9,0,0,1-.65,2.59Q269.73,46.07,269.91,45.68Zm8.06-7,0,.37c-.72,1.86-1.24,3.24-1.55,4.17q-2,5.25-2.39,6.32c-.17.32-.46.92-.88,1.8a11.77,11.77,0,0,0-.83,2.23c-.11-.08-.12-.23,0-.44l.12-.31a4.5,4.5,0,0,0-.44.93,4.38,4.38,0,0,1-.7,1.26q2.37-6.61,6.64-16.7ZM271.64,41a4.28,4.28,0,0,0,.56-1.16,8.23,8.23,0,0,1,.55-1.32,2,2,0,0,0,.22-.77,3.19,3.19,0,0,0,.1-.6l.37-.78.59-.05a3.65,3.65,0,0,1-.36.92l-.13.16-1.21,3.09-.12.31-.12.31a.48.48,0,0,1-.41.34C271.58,41.43,271.57,41.28,271.64,41Zm-6.4,14.45a6,6,0,0,1-.4,1.3c-.21.46-.41,1-.6,1.54s-.36,1-.48,1.31-.42,1-.91,2.17a6.63,6.63,0,0,1-1,.39,10.52,10.52,0,0,0,.69-2.22,8.65,8.65,0,0,1,.56-1.91,1.17,1.17,0,0,1,.11-.46,1.17,1.17,0,0,0,.11-.46l8.88-23a3.56,3.56,0,0,0,.37-.78q2-4.5,2.61-5.61a9.49,9.49,0,0,0,1-1.73h.15l.1,1.18-.13.16a1.29,1.29,0,0,0-.09.6,6.69,6.69,0,0,1-.4,2.12,3.29,3.29,0,0,1-.36.93c-.09.11-.24.12-.44,0l-.38.78a3.66,3.66,0,0,1-.73,1.71c-.33.72-.66,1.47-1,2.25s-.67,1.65-1,2.62-.65,1.73-.9,2.25-.33.82-.49,1.23l-.42,1.08L269.68,44a8.76,8.76,0,0,1-.49,1.09c-.25.52-.6,1.38-1,2.56A22.84,22.84,0,0,1,267,50.34,25.84,25.84,0,0,0,265.24,55.42Zm1.64-2.32c.15-.32.27-.58.36-.82a18.38,18.38,0,0,1-1.12,3A8.13,8.13,0,0,1,266.88,53.1ZM268,69.3a.47.47,0,0,1,.12-.31,4.58,4.58,0,0,1,1.44-.58l.56-.35a.41.41,0,0,0,.28-.17c.19,0,1.37-.39,3.52-1.1Q270.28,68.23,268,69.3Zm6.65-2.79.52-.26A6.45,6.45,0,0,1,276,66a6.19,6.19,0,0,0,.79-.3h.15C276.12,65.94,275.38,66.23,274.66,66.51ZM280.53,63l0,.37c-.29.13-.7.31-1.22.56a11,11,0,0,0-1.06.55c-.49.14-1.14.38-2,.7s-1.46.56-1.94.7a29.11,29.11,0,0,1-3,1.17,18.44,18.44,0,0,0-3,1.18c.15-.51.34-1.13.58-1.84a3.15,3.15,0,0,1,1-.39c.38-.14.91-.31,1.59-.52a8.79,8.79,0,0,1,1.6-.38,13.91,13.91,0,0,0,3-1.17,20.33,20.33,0,0,1,2.46-.82,10.34,10.34,0,0,1,1.89-.48Zm6,9.8c-.21-1.18-.43-2.54-.68-4.11l-.3-3.25h.15Q286,67.77,286.5,72.8ZM283.32,45l-.27-3a17.68,17.68,0,0,1,.31,3.39Zm.07.74a11.7,11.7,0,0,1,.61,3.37,15.46,15.46,0,0,1,.05,3.72Zm3.92,50.2a1.93,1.93,0,0,1-1.36,0l-.07-.29-.27-1.31c-.13-.58-.21-1-.25-1.16a3.25,3.25,0,0,0-.23-1.39l1.23-.26a3.35,3.35,0,0,0,.33.76c0,.2.25,1,.64,2.29l.15.73.15.72A.44.44,0,0,0,287.31,95.89Zm1.6,0a1.13,1.13,0,0,0-.37,0,1.92,1.92,0,0,0-.17-.42c-.09-.18-.18-.26-.28-.24l-.68-3.19a1.57,1.57,0,0,1-.37-.68.25.25,0,0,1,0-.07l.08,0,.25-.08a26.89,26.89,0,0,1,1.94,4.69A1.49,1.49,0,0,1,288.91,95.93ZM285.5,49.22a6.56,6.56,0,0,1,.26,2c0,.34,0,.63.06.89A16,16,0,0,1,285.5,49.22Zm1.58,18.61-.06-.74,0-.29L286.82,65l.3,0,0,.44a4.35,4.35,0,0,0,.14.73,4.46,4.46,0,0,1,.13.58,9,9,0,0,1,.23.88A1.92,1.92,0,0,0,287.08,67.83Zm-1.09-23c-.09-1-.16-2.26-.21-3.85,0-.29,0-.45.11-.46s.19-.06.31.12a1.5,1.5,0,0,1,.36.72,4.9,4.9,0,0,0,.07,1.48c.09.49.21,1,.37,1.6a9.59,9.59,0,0,1,.27,1.32c.59,4.21.89,6.37.9,6.46l.05.59.06.59a2.4,2.4,0,0,1-.72.29,4.46,4.46,0,0,1-.58.13l0-.14a28.64,28.64,0,0,0-.6-4.86A23.73,23.73,0,0,1,286,44.85Zm3.78,24.66.1,1.11L290,72l.1,1.11a17.8,17.8,0,0,1-.65,4.23c0-.8,0-1.25,0-1.35a.69.69,0,0,0-.19-.43,5.65,5.65,0,0,1-.62-1.87c-.17-.68-.1-1,.2-1.06l-.09-.89a5.49,5.49,0,0,1-.3-1.61c-.08-.89-.29-2.65-.64-5.3a7.44,7.44,0,0,0,.88-.16l.73-.14.22,2.36a2.35,2.35,0,0,0,.44,1.45C289.92,68.41,289.81,68.82,289.77,69.51ZM288.55,49.9l.13,1.4a11.46,11.46,0,0,1-.25-2.65Zm-1.21-11.43v.15a27,27,0,0,0,.42,2.94A10.43,10.43,0,0,1,287.34,38.47Z"/><path class="cls-1" d="M84.89,219q-2.19,8.12-4.39,11Q83.62,226.5,84.89,219Z"/><path class="cls-1" d="M91.76,211.11c-.86,5.22-2.59,12.76-3.71,14.65C89.68,223.45,91.41,215.9,91.76,211.11Z"/><path class="cls-1" d="M102.74,190.41q-.55-2.41-2.78-10.48-2.83-9.41-9.29-14.35T77.2,161.81q-7,1.19-11.82,7.79c-1.15,1.75-1.82,2.81-2,3.17A133.37,133.37,0,0,0,57.82,189c-.21,1.19-.91,4.9-2.08,11.1a97.65,97.65,0,0,0-1.54,13.52,105,105,0,0,0,.18,14.24q1.07,9.75,5.75,16a20.23,20.23,0,0,0,6.95,6,16,16,0,0,0,8.38,1.94,2.38,2.38,0,0,0-.63.24,6.47,6.47,0,0,0,3.58-.64q-.61.12-1.26.21c-.22,0-.41.08-.55.09.19,0,.37-.07.55-.09l.42-.09a7.82,7.82,0,0,1,1-.18l-.13.06q7.75-1.55,13.27-8.67,3.66-4.74,6.77-13.65.64-1.81,3-10.65.25-.74,1.14-7.15Q104.35,198.89,102.74,190.41Zm-31.9,39.74a3.82,3.82,0,0,0,1.38,1.63,4.06,4.06,0,0,0,1.61.55,2.46,2.46,0,0,1,1,.26l0-.35a2.69,2.69,0,0,1-1.7-.72,5.29,5.29,0,0,1-1.68-2.13Q70,226,70.12,217.19a130.09,130.09,0,0,1,2.48-22.75,42.2,42.2,0,0,1,2.16-6.8,20.66,20.66,0,0,1,3.12-5.3,5.44,5.44,0,0,1,3.4-2.25,3.51,3.51,0,0,1,2.35.57,7,7,0,0,1,2,2.54A16.21,16.21,0,0,1,87.18,188a57.42,57.42,0,0,1,.69,7.5,87.13,87.13,0,0,1-.27,10.24A106.39,106.39,0,0,1,85.85,217l.13-.36.13-.36-.08.88c.15-.71.34-1.58.58-2.6s.44-2,.62-3a17,17,0,0,0,.33-2.67c.15-.72.34-2,.56-3.75s.33-3.14.35-4.08.24-2.19.35-3.38c.08-.24.18-.36.29-.37s.2.07.27.23a1.58,1.58,0,0,1,.12.43q-.15,5.47-.26,6a89.85,89.85,0,0,1-3.11,16,57.65,57.65,0,0,1-2.77,7.3,29.72,29.72,0,0,1-3.19,4.52.15.15,0,0,1-.15.19,1.52,1.52,0,0,1,0-.45.42.42,0,0,0-.12-.43,3.86,3.86,0,0,1-1.51,1.37,5.11,5.11,0,0,0-1.38,1,1.18,1.18,0,0,1-1.18.55c-.61,0-1,.06-1.05.19.11,0,.17.1.19.33a3.69,3.69,0,0,1-2.09-.51,6.38,6.38,0,0,1-2.06-1.83,11.17,11.17,0,0,1-1.6-3.11,11.89,11.89,0,0,0,2.45,3.47A3.19,3.19,0,0,1,70.84,230.15Zm16.79-10.77q-1.26,7.51-4.39,11Q85.43,227.5,87.63,219.38Zm-18.57-5.31q.47,7,.5,8.58C68.87,220.67,68.7,217.82,69.06,214.07Zm-5.25,20.31a34.6,34.6,0,0,0,5.73,7A18.42,18.42,0,0,1,63.81,234.38Zm7.9,5.19q-3.22-1.11-5.41-5.31a19.42,19.42,0,0,1-2-8.61,4.19,4.19,0,0,1,0-1.23c0-.12.09-.16.15-.1a2.37,2.37,0,0,1,.29.41,7.19,7.19,0,0,1,.66,1.87,13.69,13.69,0,0,0,3.38,8.14c2.58,3,5.4,4,8.46,2.73a13.41,13.41,0,0,0,6.28-4.81,31.09,31.09,0,0,0,5-11.89c.16-.6.51-1.9,1-3.88s.91-3.52,1.14-4.6c.27-1.78,1.4-14.91,1-18.75,0-.34-.24-5.45.72-2.41,0,.35.68,12.21.45,14.46-.72,7.14-1.12,12.59-2.28,16.56q-2.14,7.07-3.71,9.5-3.42,5.59-6.88,7.15Q75.26,240.65,71.71,239.57Zm30.75-43.33a104.73,104.73,0,0,1-4.09,30.12,47.83,47.83,0,0,1-7.37,16,26.21,26.21,0,0,1-9.5,7.22c0-.23.22-.49.75-.77a3.93,3.93,0,0,0,.76-.6,11.33,11.33,0,0,1-1.41.66c-.74.3-1.25.49-1.51.58s-.83.22-1.68.42a2.67,2.67,0,0,1-1.81,0q8.78-1,14.69-9.64,3.76-5.44,6.9-15.77a110.44,110.44,0,0,0,3.36-16.85q1-10.83-.5-17.73,0,.52.42,3.66a10.41,10.41,0,0,1,.1,3.68,43.3,43.3,0,0,0-.94-8.35l.21.5.21.51c0-.11-.11-.57-.29-1.38a31.06,31.06,0,0,1,1.62,5.13A14.75,14.75,0,0,1,102.46,196.24Z"/><path class="cls-1" d="M74.66,234.19h.16C74.7,234.07,74.65,234.08,74.66,234.19Z"/><path class="cls-1" d="M32.59,216.91a39,39,0,0,0-1.14,7.42C31.92,221.08,32.3,218.6,32.59,216.91Z"/><path class="cls-1" d="M90.51,171.77a58.6,58.6,0,0,0-2.33-6.27,24.83,24.83,0,0,0-1.92-3.65,5.82,5.82,0,0,0-1.56-1.6,3.83,3.83,0,0,0-1.13-.56.51.51,0,0,0-.49.13,18.87,18.87,0,0,1-2.53.48A8.77,8.77,0,0,0,78,161c-.22,0-.74.1-1.56.23l-2.62.41L70.9,162c-1,.15-29.22,5.31-30.43,5.42-.28-.63-1.4-.7-3.34-.18-.22,0-1,.14-2.3.38s-2.59.48-3.83.77a11,11,0,0,0-2.19.62,2.38,2.38,0,0,0-.61.55Q5.91,173.16,5.78,173.5a12.06,12.06,0,0,0-1.88.34c-.6.17-1.11.3-1.55.4s-.59.19-.47.29c-1.67,1.05-2.23,2.81-1.67,5.31a1.63,1.63,0,0,0,.09,1,1.54,1.54,0,0,0,.22.48v.16l0,.33a2.73,2.73,0,0,1,.24.81c0-.11.2.32.62,1.27s1.05,2.4,1.9,4.32a1.35,1.35,0,0,0,.35.22l.35.13a2.35,2.35,0,0,0,.42.13,1.34,1.34,0,0,0,.42,0l.5-.05a2.52,2.52,0,0,0,.65-.14l.81-.24a5.71,5.71,0,0,1,.81-.16c.22,0,.55-.08,1-.17a6.55,6.55,0,0,0,1.13-.36l.49,0a1.46,1.46,0,0,1,.65-.23l.49-.05a4.92,4.92,0,0,1,1.35-.7,7.54,7.54,0,0,1,1-.35c.32-.14,2.7-.67,4.56-1l2.43-.72c-.62.11-4.3.82-5.11,1l-.12,0,.12,0a42.16,42.16,0,0,1,7.5-2.17,9.9,9.9,0,0,1,1.46-.3l-.22,1.19c-.3,1.58-.89,4.68-1.79,9.31a21.4,21.4,0,0,1-.46,2.2q-.81,3.9-1,5.42a2.59,2.59,0,0,1-.1.67,2.25,2.25,0,0,0-.1.68q-5.82,32.29-6.57,40.35c-.2.24-.35.37-.46.38q-1.38,1.29,0,5.48c-.11,0-.16,0-.16.1l0,.25.17.15.17,0,.24.81q.24.81.39.63A9.32,9.32,0,0,0,18,253.35a1.24,1.24,0,0,0,1.18.22l.66-.06c.25.31.41.3.49,0l.14-.35.82-.07a.67.67,0,0,1-.21.43c-.15.18-.28.28-.39.29a5.32,5.32,0,0,0,1.91-.1l1.89-.26A.52.52,0,0,0,25,253a.15.15,0,0,1,.15-.18l1.48-.14,1.3-3.94.17,0c.22.09.42-.15.59-.72a2.63,2.63,0,0,0-.22-.65l0-2a3.34,3.34,0,0,0,.49-1.87A13,13,0,0,1,29.1,242a5,5,0,0,0,.09-.84,12.21,12.21,0,0,1,.06-2,11.23,11.23,0,0,0,.08-1.84.68.68,0,0,1,.27-.69l0,.5c.08-1.45.34-3.5.76-6.14a43.71,43.71,0,0,0,.64-5.63c-.08.34-.13.45-.14.34l0-.33c-.07.45-.2,1.16-.38,2.12a8.23,8.23,0,0,0-.22,2.1c-.06.56-.2,1.43-.43,2.61s-.36,2.06-.42,2.62-.21.69-.76.74q-.33,0-.21-.48c.08-.34.17-.85.27-1.52s.2-1.19.28-1.53c.24-1,.51-2.56.81-4.65s.51-3.23.6-3.46a16.46,16.46,0,0,1,.25-1.77,20,20,0,0,1,.52-2.46l.78-4.06.15-.18c.14.32.27.47.38.46a7.13,7.13,0,0,1,.27-1.6,7.11,7.11,0,0,0,.22-2.1,6.25,6.25,0,0,1,.11-1.43,7.71,7.71,0,0,1,.3-1.27v-.17c-.09.24-.2.3-.32.2l1.54-8.46A10.49,10.49,0,0,1,34.3,204a10.85,10.85,0,0,0-.33,2.61,8.21,8.21,0,0,1,1.28-4.11,8.91,8.91,0,0,0-.21,2.26c0,.83,0,1.64,0,2.42a7.25,7.25,0,0,1-.46,2.2l.32,0q2.65-14.55,5.77-27.47c5.13-.81,36.78-6.49,40.84-7Q91.21,173.87,90.51,171.77ZM9,174.87a1.69,1.69,0,0,0,.49-.13,1,1,0,0,0,.39-.29,2.48,2.48,0,0,0,.9-.16,11,11,0,0,1,2-.44q6.24-.91,9-1.5c.54-.16,1.38-.35,2.53-.57a23.14,23.14,0,0,0,2.52-.57l.33,0c-.08.34-.18.52-.28.53l-.15.18q-2.45.56-7.68,1.46t-8,1.49a1.86,1.86,0,0,0,.92,0l.39-.06c.36-.07.65-.12.83-.14l-.83.14-.23,0a.88.88,0,0,1-.16,0l-1.07.18.15-.18,0-.16a11.14,11.14,0,0,0-1.77.66.46.46,0,0,1-.69-.27A.56.56,0,0,1,9,174.87ZM7.91,186.53a2.69,2.69,0,0,1-.68.22l-1.77.56,0-.37c.2-.52.32-.65.34-.4a2.24,2.24,0,0,0,1.46.21l.68-.22a4.19,4.19,0,0,0,.47-.24l.38,0Zm.66-5.34.49,0C8.74,181.29,8.58,181.3,8.57,181.19Zm1-.78c-1,.36-.35-.4-.3-.48a10.67,10.67,0,0,1,2-.49c4.15-.66,7.15-1.2,9-1.65a24.44,24.44,0,0,1,2.52-.64,22.06,22.06,0,0,0,2.52-.64l.33,0c-.08.42-.17.63-.28.64l-.14.21c-1.63.43-4.18,1-7.67,1.63S9.58,180.41,9.58,180.41ZM25.32,178v.16l0,.17-.25,0c-.05,0-.14,0-.26-.14Zm-5.87,1.21c-.32.14-.49.15-.5,0Zm3.49,3.66c-1,.21-2.4.42-4.26.65l-.89.11h0c4-.7,4.88-1,7-1.42l0,.33Q23.27,182.85,22.94,182.88Zm4,33.73a7.37,7.37,0,0,1-.43,2.53C26.63,218.35,26.77,217.51,26.91,216.61Zm-7.29,5.66Q18,231.9,17.31,236.79a2,2,0,0,0,.28-.53,1.26,1.26,0,0,0,.11-.59,3,3,0,0,1,0-.58c0-.23.07-.43.11-.6a5.23,5.23,0,0,1,.2-.6l-.52,3.38q0-.5-.21-.48-.12,2.34-.09,2.67a.91.91,0,0,1-.73,1.06,3.89,3.89,0,0,0,.07-1,8.41,8.41,0,0,0,.12-2.34,17,17,0,0,0,.43-2.54l0-.16a.48.48,0,0,0,.14-.35q1.44-9.44,1.82-12.64a30.52,30.52,0,0,1,.49-3.62,32.82,32.82,0,0,0,.5-3.62c.08-.34.17-.82.28-1.44s.22-1.18.34-1.69a4.49,4.49,0,0,0,.12-1.43q.33,0,.21.48l0,.33a7.56,7.56,0,0,0,.3-1.19,9.73,9.73,0,0,1,.44-1.54Q21.22,212.65,19.62,222.27Zm5,24.82c0,.33-.17.57-.59.72-.2-.87-.38-1.63-.55-2.28a1.49,1.49,0,0,0,1-.09l.17,0A4,4,0,0,1,24.58,247.09Zm1.2-1.44a8.22,8.22,0,0,1-.85,1.57,1,1,0,0,0,.16-.93c-.09-.38-.08-.63,0-.75q.11-.51.48-.21l.18.15Zm.38-3.12a4,4,0,0,1-.4,1.12l-.16,0q-.34-.13,0-.33a4.25,4.25,0,0,0,.34-1.7c0-.22,0-.33.13-.34a.15.15,0,0,1,.18.15Q26.4,241.6,26.16,242.53Zm5.48-31.35c-.13,1.56-.28,2.91-.45,4s-.4,2.62-.67,4.47-.48,3.23-.61,4.13q-.32,2-1.05,5.75c-.49,2.49-.81,4.13-1,4.91l-.18-.15a3.76,3.76,0,0,1,.08-.92,3.29,3.29,0,0,0,.08-.92,71.66,71.66,0,0,1,.83-7.23,15.93,15.93,0,0,0,.44-2.37c.13-1,.23-1.79.28-2.35l.18-1.68q0-.49,1.47-7.45a15.09,15.09,0,0,1,.15-1.93,10.54,10.54,0,0,1,.46-2.29.46.46,0,0,1,.13-.34C31.83,208.17,31.77,209.61,31.64,211.18Zm.41-12.68a18.93,18.93,0,0,0-.4,2.87,12.48,12.48,0,0,1-.3,2.19q-.09.84-1.14,7.42a23.41,23.41,0,0,1-.52,3.37,23.7,23.7,0,0,0-.44,2.37,57.31,57.31,0,0,0-1,6.91c-.06.57-.19,1.33-.37,2.28s-.33,1.61-.4,2a4.83,4.83,0,0,0,.16,1.82c-.33,0-.57.44-.71,1.23q-1.11,6.09-1.24,6.43a3.25,3.25,0,0,1,0,.67,2.84,2.84,0,0,1-.17.85,1.89,1.89,0,0,1-.28.52.68.68,0,0,0-.12.51,6.21,6.21,0,0,1,.05,2.33.46.46,0,0,0-.13.34c.15.54.13.88-.08,1s-.21.08-.34-.13l-.2-.31c-.23-.09-.22-.34,0-.75a2.09,2.09,0,0,0,.35-.78c0-.22-.2-.32-.53-.29q-.16,0-.21-.48a24.29,24.29,0,0,1,.58-2.71q.12-.51-.06-.66a4,4,0,0,1-.21-2.31l0-.33c-.06-.55.14-.84.58-.88l.09-.84a4,4,0,0,1,.14-2c.15-.79.29-1.64.43-2.54s.27-1.85.4-2.86.27-1.86.43-2.54c.47-3.25.71-4.94.7-5a5.81,5.81,0,0,0,.36-1.45c.06-.5.13-1,.2-1.43s.16-1,.28-1.52a4.78,4.78,0,0,1,.45-1.37,28.14,28.14,0,0,0,1-5.75,25,25,0,0,1,.76-4.39,32.87,32.87,0,0,1,1.25-4.44l.12-.51c.21-.13.32-.08.34.13A1.57,1.57,0,0,1,32.05,198.5Zm1.29,1.38a14.15,14.15,0,0,1,.59-4.38A11.46,11.46,0,0,1,33.34,199.88Zm9.91-29.19,2.13-.37.18.15c-.75.3-1.67.6-2.74.92A1.05,1.05,0,0,0,43.25,170.69Zm5.15,1.68a19.13,19.13,0,0,0-2.43.73l-3.63.33a1,1,0,0,0,.27-.69l.33,0a1.1,1.1,0,0,1,.73-.23l.74-.07.15-.18h-.17v-.16c1.52-.25,3.11-.46,4.76-.61a3.52,3.52,0,0,1-1,.27,8.87,8.87,0,0,0-1.15.18,5.61,5.61,0,0,1-.9.17A3.38,3.38,0,0,1,48.4,172.37Zm35.21-9.59-.54-.45-.27-.23a1.82,1.82,0,0,1,.72-.31l0,.24C83.73,162.35,83.76,162.6,83.61,162.78Zm3.48,10-1.21.36L87.27,172C87.63,172.31,87.57,172.56,87.09,172.77Z"/><path class="cls-1" d="M29.56,207.55a14.84,14.84,0,0,0,.37-3.2,5.62,5.62,0,0,1-.19,1.52A5.45,5.45,0,0,0,29.56,207.55Z"/></g></g></svg>